<?xml version="1.0" encoding="utf-8" standalone="no"?>
<!DOCTYPE svg PUBLIC "-//W3C//DTD SVG 1.1//EN"
  "http://www.w3.org/Graphics/SVG/1.1/DTD/svg11.dtd">
<svg xmlns:xlink="http://www.w3.org/1999/xlink" width="460.8pt" height="345.6pt" viewBox="0 0 460.8 345.6" xmlns="http://www.w3.org/2000/svg" version="1.1">
 <metadata>
  <rdf:RDF xmlns:dc="http://purl.org/dc/elements/1.1/" xmlns:cc="http://creativecommons.org/ns#" xmlns:rdf="http://www.w3.org/1999/02/22-rdf-syntax-ns#">
   <cc:Work>
    <dc:type rdf:resource="http://purl.org/dc/dcmitype/StillImage"/>
    <dc:date>2023-10-30T22:40:11.002331</dc:date>
    <dc:format>image/svg+xml</dc:format>
    <dc:creator>
     <cc:Agent>
      <dc:title>Matplotlib v3.5.1, https://matplotlib.org/</dc:title>
     </cc:Agent>
    </dc:creator>
   </cc:Work>
  </rdf:RDF>
 </metadata>
 <defs>
  <style type="text/css">*{stroke-linejoin: round; stroke-linecap: butt}</style>
 </defs>
 <g id="figure_1">
  <g id="patch_1">
   <path d="M 0 345.6 
L 460.8 345.6 
L 460.8 0 
L 0 0 
z
" style="fill: #ffffff"/>
  </g>
  <g id="axes_1">
   <g id="patch_2">
    <path d="M 57.6 307.584 
L 414.72 307.584 
L 414.72 41.472 
L 57.6 41.472 
z
" style="fill: #ffffff"/>
   </g>
   <g id="matplotlib.axis_1">
    <g id="xtick_1">
     <g id="line2d_1">
      <defs>
       <path id="m353b2adf8c" d="M 0 0 
L 0 3.5 
" style="stroke: #262626; stroke-width: 0.8"/>
      </defs>
      <g>
       <use xlink:href="#m353b2adf8c" x="57.6" y="307.584" style="fill: #262626; stroke: #262626; stroke-width: 0.8"/>
      </g>
     </g>
     <g id="text_1">
      <!-- $\mathdefault{10^{-3}}$ -->
      <g style="fill: #262626" transform="translate(44.360601 324.269876)scale(0.14 -0.14)">
       <defs>
        <path id="CMR17-31" d="M 1702 4083 
C 1702 4217 1696 4224 1606 4224 
C 1357 3927 979 3833 621 3820 
C 602 3820 570 3820 563 3808 
C 557 3795 557 3782 557 3648 
C 755 3648 1088 3686 1344 3839 
L 1344 467 
C 1344 243 1331 166 781 166 
L 589 166 
L 589 0 
C 896 6 1216 12 1523 12 
C 1830 12 2150 6 2458 0 
L 2458 166 
L 2266 166 
C 1715 166 1702 236 1702 467 
L 1702 4083 
z
" transform="scale(0.015625)"/>
        <path id="CMR17-30" d="M 2688 2038 
C 2688 2430 2682 3099 2413 3613 
C 2176 4063 1798 4224 1466 4224 
C 1158 4224 768 4082 525 3620 
C 269 3137 243 2539 243 2038 
C 243 1671 250 1112 448 623 
C 723 -39 1216 -128 1466 -128 
C 1760 -128 2208 -7 2470 604 
C 2662 1048 2688 1568 2688 2038 
z
M 1466 -26 
C 1056 -26 813 328 723 816 
C 653 1196 653 1749 653 2109 
C 653 2604 653 3015 736 3407 
C 858 3954 1216 4121 1466 4121 
C 1728 4121 2067 3947 2189 3420 
C 2272 3054 2278 2623 2278 2109 
C 2278 1691 2278 1176 2202 797 
C 2067 96 1690 -26 1466 -26 
z
" transform="scale(0.015625)"/>
        <path id="CMSY10-0" d="M 4218 1472 
C 4326 1472 4442 1472 4442 1600 
C 4442 1728 4326 1728 4218 1728 
L 755 1728 
C 646 1728 531 1728 531 1600 
C 531 1472 646 1472 755 1472 
L 4218 1472 
z
" transform="scale(0.015625)"/>
        <path id="CMR17-33" d="M 1414 2176 
C 1984 2176 2234 1673 2234 1094 
C 2234 322 1824 25 1453 25 
C 1114 25 563 193 390 691 
C 422 678 454 678 486 678 
C 640 678 755 780 755 947 
C 755 1132 614 1216 486 1216 
C 378 1216 211 1164 211 927 
C 211 335 787 -128 1466 -128 
C 2176 -128 2720 432 2720 1087 
C 2720 1718 2208 2176 1600 2246 
C 2086 2347 2554 2776 2554 3353 
C 2554 3856 2048 4224 1472 4224 
C 890 4224 378 3862 378 3347 
C 378 3123 544 3084 627 3084 
C 762 3084 877 3167 877 3334 
C 877 3500 762 3584 627 3584 
C 602 3584 570 3584 544 3571 
C 730 3999 1235 4076 1459 4076 
C 1683 4076 2106 3966 2106 3347 
C 2106 3167 2080 2851 1862 2574 
C 1670 2329 1453 2316 1242 2297 
C 1210 2297 1062 2284 1037 2284 
C 992 2278 966 2272 966 2227 
C 966 2182 973 2176 1101 2176 
L 1414 2176 
z
" transform="scale(0.015625)"/>
       </defs>
       <use xlink:href="#CMR17-31" transform="scale(0.996264)"/>
       <use xlink:href="#CMR17-30" transform="translate(45.690477 0)scale(0.996264)"/>
       <use xlink:href="#CMSY10-0" transform="translate(91.380954 36.153639)scale(0.697382)"/>
       <use xlink:href="#CMR17-33" transform="translate(145.621947 36.153639)scale(0.697382)"/>
      </g>
     </g>
    </g>
    <g id="xtick_2">
     <g id="line2d_2">
      <g>
       <use xlink:href="#m353b2adf8c" x="176.64" y="307.584" style="fill: #262626; stroke: #262626; stroke-width: 0.8"/>
      </g>
     </g>
     <g id="text_2">
      <!-- $\mathdefault{10^{-2}}$ -->
      <g style="fill: #262626" transform="translate(163.400601 324.269876)scale(0.14 -0.14)">
       <defs>
        <path id="CMR17-32" d="M 2669 990 
L 2554 990 
C 2490 537 2438 460 2413 422 
C 2381 371 1920 371 1830 371 
L 602 371 
C 832 620 1280 1073 1824 1596 
C 2214 1966 2669 2400 2669 3033 
C 2669 3788 2067 4224 1395 4224 
C 691 4224 262 3603 262 3027 
C 262 2777 448 2745 525 2745 
C 589 2745 781 2783 781 3007 
C 781 3206 614 3264 525 3264 
C 486 3264 448 3257 422 3244 
C 544 3788 915 4057 1306 4057 
C 1862 4057 2227 3616 2227 3033 
C 2227 2477 1901 1998 1536 1583 
L 262 147 
L 262 0 
L 2515 0 
L 2669 990 
z
" transform="scale(0.015625)"/>
       </defs>
       <use xlink:href="#CMR17-31" transform="scale(0.996264)"/>
       <use xlink:href="#CMR17-30" transform="translate(45.690477 0)scale(0.996264)"/>
       <use xlink:href="#CMSY10-0" transform="translate(91.380954 36.153639)scale(0.697382)"/>
       <use xlink:href="#CMR17-32" transform="translate(145.621947 36.153639)scale(0.697382)"/>
      </g>
     </g>
    </g>
    <g id="xtick_3">
     <g id="line2d_3">
      <g>
       <use xlink:href="#m353b2adf8c" x="295.68" y="307.584" style="fill: #262626; stroke: #262626; stroke-width: 0.8"/>
      </g>
     </g>
     <g id="text_3">
      <!-- $\mathdefault{10^{-1}}$ -->
      <g style="fill: #262626" transform="translate(282.440601 324.269876)scale(0.14 -0.14)">
       <use xlink:href="#CMR17-31" transform="scale(0.996264)"/>
       <use xlink:href="#CMR17-30" transform="translate(45.690477 0)scale(0.996264)"/>
       <use xlink:href="#CMSY10-0" transform="translate(91.380954 36.153639)scale(0.697382)"/>
       <use xlink:href="#CMR17-31" transform="translate(145.621947 36.153639)scale(0.697382)"/>
      </g>
     </g>
    </g>
    <g id="xtick_4">
     <g id="line2d_4">
      <g>
       <use xlink:href="#m353b2adf8c" x="414.72" y="307.584" style="fill: #262626; stroke: #262626; stroke-width: 0.8"/>
      </g>
     </g>
     <g id="text_4">
      <!-- $\mathdefault{10^{0}}$ -->
      <g style="fill: #262626" transform="translate(405.382898 324.269876)scale(0.14 -0.14)">
       <use xlink:href="#CMR17-31" transform="scale(0.996264)"/>
       <use xlink:href="#CMR17-30" transform="translate(45.690477 0)scale(0.996264)"/>
       <use xlink:href="#CMR17-30" transform="translate(91.380954 36.153639)scale(0.697382)"/>
      </g>
     </g>
    </g>
    <g id="xtick_5">
     <g id="line2d_5">
      <defs>
       <path id="m351173b3b9" d="M 0 0 
L 0 2 
" style="stroke: #262626; stroke-width: 0.6"/>
      </defs>
      <g>
       <use xlink:href="#m351173b3b9" x="93.434611" y="307.584" style="fill: #262626; stroke: #262626; stroke-width: 0.6"/>
      </g>
     </g>
    </g>
    <g id="xtick_6">
     <g id="line2d_6">
      <g>
       <use xlink:href="#m351173b3b9" x="114.396514" y="307.584" style="fill: #262626; stroke: #262626; stroke-width: 0.6"/>
      </g>
     </g>
    </g>
    <g id="xtick_7">
     <g id="line2d_7">
      <g>
       <use xlink:href="#m351173b3b9" x="129.269221" y="307.584" style="fill: #262626; stroke: #262626; stroke-width: 0.6"/>
      </g>
     </g>
    </g>
    <g id="xtick_8">
     <g id="line2d_8">
      <g>
       <use xlink:href="#m351173b3b9" x="140.805389" y="307.584" style="fill: #262626; stroke: #262626; stroke-width: 0.6"/>
      </g>
     </g>
    </g>
    <g id="xtick_9">
     <g id="line2d_9">
      <g>
       <use xlink:href="#m351173b3b9" x="150.231125" y="307.584" style="fill: #262626; stroke: #262626; stroke-width: 0.6"/>
      </g>
     </g>
    </g>
    <g id="xtick_10">
     <g id="line2d_10">
      <g>
       <use xlink:href="#m351173b3b9" x="158.200471" y="307.584" style="fill: #262626; stroke: #262626; stroke-width: 0.6"/>
      </g>
     </g>
    </g>
    <g id="xtick_11">
     <g id="line2d_11">
      <g>
       <use xlink:href="#m351173b3b9" x="165.103832" y="307.584" style="fill: #262626; stroke: #262626; stroke-width: 0.6"/>
      </g>
     </g>
    </g>
    <g id="xtick_12">
     <g id="line2d_12">
      <g>
       <use xlink:href="#m351173b3b9" x="171.193028" y="307.584" style="fill: #262626; stroke: #262626; stroke-width: 0.6"/>
      </g>
     </g>
    </g>
    <g id="xtick_13">
     <g id="line2d_13">
      <g>
       <use xlink:href="#m351173b3b9" x="212.474611" y="307.584" style="fill: #262626; stroke: #262626; stroke-width: 0.6"/>
      </g>
     </g>
    </g>
    <g id="xtick_14">
     <g id="line2d_14">
      <g>
       <use xlink:href="#m351173b3b9" x="233.436514" y="307.584" style="fill: #262626; stroke: #262626; stroke-width: 0.6"/>
      </g>
     </g>
    </g>
    <g id="xtick_15">
     <g id="line2d_15">
      <g>
       <use xlink:href="#m351173b3b9" x="248.309221" y="307.584" style="fill: #262626; stroke: #262626; stroke-width: 0.6"/>
      </g>
     </g>
    </g>
    <g id="xtick_16">
     <g id="line2d_16">
      <g>
       <use xlink:href="#m351173b3b9" x="259.845389" y="307.584" style="fill: #262626; stroke: #262626; stroke-width: 0.6"/>
      </g>
     </g>
    </g>
    <g id="xtick_17">
     <g id="line2d_17">
      <g>
       <use xlink:href="#m351173b3b9" x="269.271125" y="307.584" style="fill: #262626; stroke: #262626; stroke-width: 0.6"/>
      </g>
     </g>
    </g>
    <g id="xtick_18">
     <g id="line2d_18">
      <g>
       <use xlink:href="#m351173b3b9" x="277.240471" y="307.584" style="fill: #262626; stroke: #262626; stroke-width: 0.6"/>
      </g>
     </g>
    </g>
    <g id="xtick_19">
     <g id="line2d_19">
      <g>
       <use xlink:href="#m351173b3b9" x="284.143832" y="307.584" style="fill: #262626; stroke: #262626; stroke-width: 0.6"/>
      </g>
     </g>
    </g>
    <g id="xtick_20">
     <g id="line2d_20">
      <g>
       <use xlink:href="#m351173b3b9" x="290.233028" y="307.584" style="fill: #262626; stroke: #262626; stroke-width: 0.6"/>
      </g>
     </g>
    </g>
    <g id="xtick_21">
     <g id="line2d_21">
      <g>
       <use xlink:href="#m351173b3b9" x="331.514611" y="307.584" style="fill: #262626; stroke: #262626; stroke-width: 0.6"/>
      </g>
     </g>
    </g>
    <g id="xtick_22">
     <g id="line2d_22">
      <g>
       <use xlink:href="#m351173b3b9" x="352.476514" y="307.584" style="fill: #262626; stroke: #262626; stroke-width: 0.6"/>
      </g>
     </g>
    </g>
    <g id="xtick_23">
     <g id="line2d_23">
      <g>
       <use xlink:href="#m351173b3b9" x="367.349221" y="307.584" style="fill: #262626; stroke: #262626; stroke-width: 0.6"/>
      </g>
     </g>
    </g>
    <g id="xtick_24">
     <g id="line2d_24">
      <g>
       <use xlink:href="#m351173b3b9" x="378.885389" y="307.584" style="fill: #262626; stroke: #262626; stroke-width: 0.6"/>
      </g>
     </g>
    </g>
    <g id="xtick_25">
     <g id="line2d_25">
      <g>
       <use xlink:href="#m351173b3b9" x="388.311125" y="307.584" style="fill: #262626; stroke: #262626; stroke-width: 0.6"/>
      </g>
     </g>
    </g>
    <g id="xtick_26">
     <g id="line2d_26">
      <g>
       <use xlink:href="#m351173b3b9" x="396.280471" y="307.584" style="fill: #262626; stroke: #262626; stroke-width: 0.6"/>
      </g>
     </g>
    </g>
    <g id="xtick_27">
     <g id="line2d_27">
      <g>
       <use xlink:href="#m351173b3b9" x="403.183832" y="307.584" style="fill: #262626; stroke: #262626; stroke-width: 0.6"/>
      </g>
     </g>
    </g>
    <g id="xtick_28">
     <g id="line2d_28">
      <g>
       <use xlink:href="#m351173b3b9" x="409.273028" y="307.584" style="fill: #262626; stroke: #262626; stroke-width: 0.6"/>
      </g>
     </g>
    </g>
    <g id="text_5">
     <!-- $-y_b$ -->
     <g style="fill: #262626" transform="translate(223.761525 342.051493)scale(0.16 -0.16)">
      <defs>
       <path id="CMMI12-79" d="M 1683 -673 
C 1510 -921 1261 -1152 947 -1152 
C 870 -1152 563 -1139 467 -826 
C 486 -833 518 -833 531 -833 
C 723 -833 851 -666 851 -519 
C 851 -372 730 -320 634 -320 
C 531 -320 307 -397 307 -711 
C 307 -1050 582 -1280 947 -1280 
C 1587 -1280 2234 -673 2413 -7 
L 3040 2483 
C 3046 2515 3059 2553 3059 2591 
C 3059 2687 2982 2752 2886 2752 
C 2829 2752 2694 2726 2643 2534 
L 2170 657 
C 2138 542 2138 530 2086 459 
C 1958 281 1747 64 1440 64 
C 1082 64 1050 415 1050 587 
C 1050 951 1222 1443 1395 1902 
C 1466 2087 1504 2177 1504 2305 
C 1504 2573 1312 2816 998 2816 
C 410 2816 173 1890 173 1838 
C 173 1813 198 1781 243 1781 
C 301 1781 307 1807 333 1896 
C 486 2432 730 2687 979 2687 
C 1037 2687 1146 2687 1146 2477 
C 1146 2311 1075 2126 979 1883 
C 666 1047 666 836 666 683 
C 666 76 1101 -64 1421 -64 
C 1606 -64 1837 -7 2061 230 
L 2067 223 
C 1971 -141 1907 -359 1683 -673 
z
" transform="scale(0.015625)"/>
       <path id="CMMI12-62" d="M 1478 4255 
C 1485 4281 1498 4319 1498 4351 
C 1498 4416 1434 4416 1421 4416 
C 1414 4416 1184 4396 1069 4383 
C 960 4377 864 4364 749 4358 
C 595 4345 550 4339 550 4223 
C 550 4159 614 4159 678 4159 
C 1005 4159 1005 4103 1005 4040 
C 1005 3995 954 3812 928 3699 
L 774 3093 
C 710 2841 346 1392 320 1277 
C 288 1117 288 1008 288 925 
C 288 274 653 -64 1069 -64 
C 1811 -64 2579 887 2579 1813 
C 2579 2400 2246 2816 1766 2816 
C 1434 2816 1133 2541 1011 2413 
L 1478 4255 
z
M 1075 64 
C 870 64 646 217 646 715 
C 646 925 666 1047 781 1494 
C 800 1577 902 1985 928 2068 
C 941 2119 1318 2687 1754 2687 
C 2035 2687 2163 2407 2163 2075 
C 2163 1768 1984 1047 1824 715 
C 1664 370 1370 64 1075 64 
z
" transform="scale(0.015625)"/>
      </defs>
      <use xlink:href="#CMSY10-0" transform="scale(0.996264)"/>
      <use xlink:href="#CMMI12-79" transform="translate(77.487468 0)scale(0.996264)"/>
      <use xlink:href="#CMMI12-62" transform="translate(125.051656 -14.943915)scale(0.697382)"/>
     </g>
    </g>
   </g>
   <g id="matplotlib.axis_2">
    <g id="ytick_1">
     <g id="line2d_29">
      <defs>
       <path id="me17eab5a6c" d="M 0 0 
L -3.5 0 
" style="stroke: #262626; stroke-width: 0.8"/>
      </defs>
      <g>
       <use xlink:href="#me17eab5a6c" x="57.6" y="307.584" style="fill: #262626; stroke: #262626; stroke-width: 0.8"/>
      </g>
     </g>
     <g id="text_6">
      <!-- $\mathdefault{10^{-2}}$ -->
      <g style="fill: #262626" transform="translate(24.121201 312.426938)scale(0.14 -0.14)">
       <use xlink:href="#CMR17-31" transform="scale(0.996264)"/>
       <use xlink:href="#CMR17-30" transform="translate(45.690477 0)scale(0.996264)"/>
       <use xlink:href="#CMSY10-0" transform="translate(91.380954 36.153639)scale(0.697382)"/>
       <use xlink:href="#CMR17-32" transform="translate(145.621947 36.153639)scale(0.697382)"/>
      </g>
     </g>
    </g>
    <g id="ytick_2">
     <g id="line2d_30">
      <g>
       <use xlink:href="#me17eab5a6c" x="57.6" y="174.528" style="fill: #262626; stroke: #262626; stroke-width: 0.8"/>
      </g>
     </g>
     <g id="text_7">
      <!-- $\mathdefault{10^{-1}}$ -->
      <g style="fill: #262626" transform="translate(24.121201 179.370938)scale(0.14 -0.14)">
       <use xlink:href="#CMR17-31" transform="scale(0.996264)"/>
       <use xlink:href="#CMR17-30" transform="translate(45.690477 0)scale(0.996264)"/>
       <use xlink:href="#CMSY10-0" transform="translate(91.380954 36.153639)scale(0.697382)"/>
       <use xlink:href="#CMR17-31" transform="translate(145.621947 36.153639)scale(0.697382)"/>
      </g>
     </g>
    </g>
    <g id="ytick_3">
     <g id="line2d_31">
      <g>
       <use xlink:href="#me17eab5a6c" x="57.6" y="41.472" style="fill: #262626; stroke: #262626; stroke-width: 0.8"/>
      </g>
     </g>
     <g id="text_8">
      <!-- $\mathdefault{10^{0}}$ -->
      <g style="fill: #262626" transform="translate(31.925796 46.314938)scale(0.14 -0.14)">
       <use xlink:href="#CMR17-31" transform="scale(0.996264)"/>
       <use xlink:href="#CMR17-30" transform="translate(45.690477 0)scale(0.996264)"/>
       <use xlink:href="#CMR17-30" transform="translate(91.380954 36.153639)scale(0.697382)"/>
      </g>
     </g>
    </g>
    <g id="ytick_4">
     <g id="line2d_32">
      <defs>
       <path id="m39ae9f746f" d="M 0 0 
L -2 0 
" style="stroke: #262626; stroke-width: 0.6"/>
      </defs>
      <g>
       <use xlink:href="#m39ae9f746f" x="57.6" y="267.530153" style="fill: #262626; stroke: #262626; stroke-width: 0.6"/>
      </g>
     </g>
    </g>
    <g id="ytick_5">
     <g id="line2d_33">
      <g>
       <use xlink:href="#m39ae9f746f" x="57.6" y="244.100154" style="fill: #262626; stroke: #262626; stroke-width: 0.6"/>
      </g>
     </g>
    </g>
    <g id="ytick_6">
     <g id="line2d_34">
      <g>
       <use xlink:href="#m39ae9f746f" x="57.6" y="227.476306" style="fill: #262626; stroke: #262626; stroke-width: 0.6"/>
      </g>
     </g>
    </g>
    <g id="ytick_7">
     <g id="line2d_35">
      <g>
       <use xlink:href="#m39ae9f746f" x="57.6" y="214.581847" style="fill: #262626; stroke: #262626; stroke-width: 0.6"/>
      </g>
     </g>
    </g>
    <g id="ytick_8">
     <g id="line2d_36">
      <g>
       <use xlink:href="#m39ae9f746f" x="57.6" y="204.046307" style="fill: #262626; stroke: #262626; stroke-width: 0.6"/>
      </g>
     </g>
    </g>
    <g id="ytick_9">
     <g id="line2d_37">
      <g>
       <use xlink:href="#m39ae9f746f" x="57.6" y="195.138635" style="fill: #262626; stroke: #262626; stroke-width: 0.6"/>
      </g>
     </g>
    </g>
    <g id="ytick_10">
     <g id="line2d_38">
      <g>
       <use xlink:href="#m39ae9f746f" x="57.6" y="187.422459" style="fill: #262626; stroke: #262626; stroke-width: 0.6"/>
      </g>
     </g>
    </g>
    <g id="ytick_11">
     <g id="line2d_39">
      <g>
       <use xlink:href="#m39ae9f746f" x="57.6" y="180.616309" style="fill: #262626; stroke: #262626; stroke-width: 0.6"/>
      </g>
     </g>
    </g>
    <g id="ytick_12">
     <g id="line2d_40">
      <g>
       <use xlink:href="#m39ae9f746f" x="57.6" y="134.474153" style="fill: #262626; stroke: #262626; stroke-width: 0.6"/>
      </g>
     </g>
    </g>
    <g id="ytick_13">
     <g id="line2d_41">
      <g>
       <use xlink:href="#m39ae9f746f" x="57.6" y="111.044154" style="fill: #262626; stroke: #262626; stroke-width: 0.6"/>
      </g>
     </g>
    </g>
    <g id="ytick_14">
     <g id="line2d_42">
      <g>
       <use xlink:href="#m39ae9f746f" x="57.6" y="94.420306" style="fill: #262626; stroke: #262626; stroke-width: 0.6"/>
      </g>
     </g>
    </g>
    <g id="ytick_15">
     <g id="line2d_43">
      <g>
       <use xlink:href="#m39ae9f746f" x="57.6" y="81.525847" style="fill: #262626; stroke: #262626; stroke-width: 0.6"/>
      </g>
     </g>
    </g>
    <g id="ytick_16">
     <g id="line2d_44">
      <g>
       <use xlink:href="#m39ae9f746f" x="57.6" y="70.990307" style="fill: #262626; stroke: #262626; stroke-width: 0.6"/>
      </g>
     </g>
    </g>
    <g id="ytick_17">
     <g id="line2d_45">
      <g>
       <use xlink:href="#m39ae9f746f" x="57.6" y="62.082635" style="fill: #262626; stroke: #262626; stroke-width: 0.6"/>
      </g>
     </g>
    </g>
    <g id="ytick_18">
     <g id="line2d_46">
      <g>
       <use xlink:href="#m39ae9f746f" x="57.6" y="54.366459" style="fill: #262626; stroke: #262626; stroke-width: 0.6"/>
      </g>
     </g>
    </g>
    <g id="ytick_19">
     <g id="line2d_47">
      <g>
       <use xlink:href="#m39ae9f746f" x="57.6" y="47.560309" style="fill: #262626; stroke: #262626; stroke-width: 0.6"/>
      </g>
     </g>
    </g>
    <g id="text_9">
     <!-- $y_s$ -->
     <g style="fill: #262626" transform="translate(17.021725 180.948313)rotate(-90)scale(0.16 -0.16)">
      <defs>
       <path id="CMMI12-73" d="M 1459 1290 
C 1568 1271 1741 1233 1779 1227 
C 1862 1201 2150 1099 2150 793 
C 2150 595 1971 64 1229 64 
C 1094 64 614 83 486 447 
C 742 414 870 614 870 755 
C 870 889 781 960 653 960 
C 512 960 326 851 326 563 
C 326 176 710 -64 1222 -64 
C 2195 -64 2483 665 2483 998 
C 2483 1093 2483 1271 2278 1475 
C 2118 1627 1965 1659 1619 1729 
C 1446 1767 1171 1824 1171 2111 
C 1171 2239 1286 2687 1894 2687 
C 2163 2687 2426 2589 2490 2368 
C 2208 2368 2195 2124 2195 2118 
C 2195 1983 2317 1945 2374 1945 
C 2464 1945 2643 2015 2643 2284 
C 2643 2546 2400 2816 1901 2816 
C 1062 2816 838 2169 838 1907 
C 838 1424 1312 1322 1459 1290 
z
" transform="scale(0.015625)"/>
      </defs>
      <use xlink:href="#CMMI12-79" transform="scale(0.996264)"/>
      <use xlink:href="#CMMI12-73" transform="translate(47.564188 -14.943915)scale(0.697382)"/>
     </g>
    </g>
   </g>
   <g id="PolyCollection_1">
    <path d="M 57.6 -1.494245 
L 57.6 54.199007 
L 61.207273 58.231007 
L 64.814545 62.263007 
L 68.421818 66.295007 
L 72.029091 70.327007 
L 75.636364 74.359007 
L 79.243636 78.391007 
L 82.850909 82.423007 
L 86.458182 86.455007 
L 90.065455 90.487007 
L 93.672727 94.519007 
L 97.28 98.551007 
L 100.887273 102.583007 
L 104.494545 106.615007 
L 108.101818 110.647007 
L 111.709091 114.679007 
L 115.316364 118.711007 
L 118.923636 122.743007 
L 122.530909 126.775007 
L 126.138182 130.807007 
L 129.745455 134.839007 
L 133.352727 138.871007 
L 136.96 142.903007 
L 140.567273 146.935007 
L 144.174545 150.967007 
L 147.781818 154.999007 
L 151.389091 159.031007 
L 154.996364 163.063007 
L 158.603636 167.095007 
L 162.210909 171.127007 
L 165.818182 175.159007 
L 169.425455 179.191007 
L 173.032727 183.223007 
L 176.64 187.255007 
L 180.247273 191.287007 
L 183.854545 195.319007 
L 187.461818 199.351007 
L 191.069091 203.383007 
L 194.676364 207.415007 
L 198.283636 211.447007 
L 201.890909 215.479007 
L 205.498182 219.511007 
L 209.105455 223.543007 
L 212.712727 227.575007 
L 216.32 231.607007 
L 219.927273 235.639007 
L 223.534545 239.671007 
L 227.141818 243.703007 
L 230.749091 247.735007 
L 234.356364 251.767007 
L 237.963636 255.799007 
L 241.570909 259.831007 
L 245.178182 263.863007 
L 248.785455 267.895007 
L 252.392727 271.927007 
L 256 275.959007 
L 259.607273 279.991007 
L 263.214545 284.023007 
L 266.821818 288.055007 
L 270.429091 292.087007 
L 274.036364 296.119007 
L 277.643636 300.151007 
L 281.250909 304.183007 
L 284.858182 308.215007 
L 288.465455 312.247007 
L 292.072727 316.279007 
L 295.68 320.311007 
L 299.287273 324.343007 
L 302.894545 328.375007 
L 306.501818 332.407007 
L 310.109091 336.439007 
L 313.716364 340.471007 
L 317.323636 344.503007 
L 320.930909 348.535007 
L 324.538182 352.567007 
L 328.145455 356.599007 
L 331.752727 360.631007 
L 335.36 364.663007 
L 338.967273 368.695007 
L 342.574545 372.727007 
L 346.181818 376.759007 
L 349.789091 380.791007 
L 353.396364 384.823007 
L 357.003636 388.855007 
L 360.610909 392.887007 
L 364.218182 396.919007 
L 367.825455 400.951007 
L 371.432727 404.983007 
L 375.04 409.015007 
L 378.647273 413.047007 
L 382.254545 417.079007 
L 385.861818 421.111007 
L 389.469091 425.143007 
L 393.076364 429.175007 
L 396.683636 433.207007 
L 400.290909 437.239007 
L 403.898182 441.271007 
L 407.505455 445.303007 
L 411.112727 449.335007 
L 414.72 453.367007 
L 414.72 397.673755 
L 414.72 397.673755 
L 411.112727 393.641755 
L 407.505455 389.609755 
L 403.898182 385.577755 
L 400.290909 381.545755 
L 396.683636 377.513755 
L 393.076364 373.481755 
L 389.469091 369.449755 
L 385.861818 365.417755 
L 382.254545 361.385755 
L 378.647273 357.353755 
L 375.04 353.321755 
L 371.432727 349.289755 
L 367.825455 345.257755 
L 364.218182 341.225755 
L 360.610909 337.193755 
L 357.003636 333.161755 
L 353.396364 329.129755 
L 349.789091 325.097755 
L 346.181818 321.065755 
L 342.574545 317.033755 
L 338.967273 313.001755 
L 335.36 308.969755 
L 331.752727 304.937755 
L 328.145455 300.905755 
L 324.538182 296.873755 
L 320.930909 292.841755 
L 317.323636 288.809755 
L 313.716364 284.777755 
L 310.109091 280.745755 
L 306.501818 276.713755 
L 302.894545 272.681755 
L 299.287273 268.649755 
L 295.68 264.617755 
L 292.072727 260.585755 
L 288.465455 256.553755 
L 284.858182 252.521755 
L 281.250909 248.489755 
L 277.643636 244.457755 
L 274.036364 240.425755 
L 270.429091 236.393755 
L 266.821818 232.361755 
L 263.214545 228.329755 
L 259.607273 224.297755 
L 256 220.265755 
L 252.392727 216.233755 
L 248.785455 212.201755 
L 245.178182 208.169755 
L 241.570909 204.137755 
L 237.963636 200.105755 
L 234.356364 196.073755 
L 230.749091 192.041755 
L 227.141818 188.009755 
L 223.534545 183.977755 
L 219.927273 179.945755 
L 216.32 175.913755 
L 212.712727 171.881755 
L 209.105455 167.849755 
L 205.498182 163.817755 
L 201.890909 159.785755 
L 198.283636 155.753755 
L 194.676364 151.721755 
L 191.069091 147.689755 
L 187.461818 143.657755 
L 183.854545 139.625755 
L 180.247273 135.593755 
L 176.64 131.561755 
L 173.032727 127.529755 
L 169.425455 123.497755 
L 165.818182 119.465755 
L 162.210909 115.433755 
L 158.603636 111.401755 
L 154.996364 107.369755 
L 151.389091 103.337755 
L 147.781818 99.305755 
L 144.174545 95.273755 
L 140.567273 91.241755 
L 136.96 87.209755 
L 133.352727 83.177755 
L 129.745455 79.145755 
L 126.138182 75.113755 
L 122.530909 71.081755 
L 118.923636 67.049755 
L 115.316364 63.017755 
L 111.709091 58.985755 
L 108.101818 54.953755 
L 104.494545 50.921755 
L 100.887273 46.889755 
L 97.28 42.857755 
L 93.672727 38.825755 
L 90.065455 34.793755 
L 86.458182 30.761755 
L 82.850909 26.729755 
L 79.243636 22.697755 
L 75.636364 18.665755 
L 72.029091 14.633755 
L 68.421818 10.601755 
L 64.814545 6.569755 
L 61.207273 2.537755 
L 57.6 -1.494245 
z
" clip-path="url(#p1496fe9c49)" style="fill: #77232f; stroke: #77232f"/>
   </g>
   <g id="PolyCollection_2">
    <path d="M 57.6 8.213239 
L 57.6 34.533114 
L 61.207273 38.565114 
L 64.814545 42.597114 
L 68.421818 46.629114 
L 72.029091 50.661114 
L 75.636364 54.693114 
L 79.243636 58.725114 
L 82.850909 62.757114 
L 86.458182 66.789114 
L 90.065455 70.821114 
L 93.672727 74.853114 
L 97.28 78.885114 
L 100.887273 82.917114 
L 104.494545 86.949114 
L 108.101818 90.981114 
L 111.709091 95.013114 
L 115.316364 99.045114 
L 118.923636 103.077114 
L 122.530909 107.109114 
L 126.138182 111.141114 
L 129.745455 115.173114 
L 133.352727 119.205114 
L 136.96 123.237114 
L 140.567273 127.269114 
L 144.174545 131.301114 
L 147.781818 135.333114 
L 151.389091 139.365114 
L 154.996364 143.397114 
L 158.603636 147.429114 
L 162.210909 151.461114 
L 165.818182 155.493114 
L 169.425455 159.525114 
L 173.032727 163.557114 
L 176.64 167.589114 
L 180.247273 171.621114 
L 183.854545 175.653114 
L 187.461818 179.685114 
L 191.069091 183.717114 
L 194.676364 187.749114 
L 198.283636 191.781114 
L 201.890909 195.813114 
L 205.498182 199.845114 
L 209.105455 203.877114 
L 212.712727 207.909114 
L 216.32 211.941114 
L 219.927273 215.973114 
L 223.534545 220.005114 
L 227.141818 224.037114 
L 230.749091 228.069114 
L 234.356364 232.101114 
L 237.963636 236.133114 
L 241.570909 240.165114 
L 245.178182 244.197114 
L 248.785455 248.229114 
L 252.392727 252.261114 
L 256 256.293114 
L 259.607273 260.325114 
L 263.214545 264.357114 
L 266.821818 268.389114 
L 270.429091 272.421114 
L 274.036364 276.453114 
L 277.643636 280.485114 
L 281.250909 284.517114 
L 284.858182 288.549114 
L 288.465455 292.581114 
L 292.072727 296.613114 
L 295.68 300.645114 
L 299.287273 304.677114 
L 302.894545 308.709114 
L 306.501818 312.741114 
L 310.109091 316.773114 
L 313.716364 320.805114 
L 317.323636 324.837114 
L 320.930909 328.869114 
L 324.538182 332.901114 
L 328.145455 336.933114 
L 331.752727 340.965114 
L 335.36 344.997114 
L 338.967273 349.029114 
L 342.574545 353.061114 
L 346.181818 357.093114 
L 349.789091 361.125114 
L 353.396364 365.157114 
L 357.003636 369.189114 
L 360.610909 373.221114 
L 364.218182 377.253114 
L 367.825455 381.285114 
L 371.432727 385.317114 
L 375.04 389.349114 
L 378.647273 393.381114 
L 382.254545 397.413114 
L 385.861818 401.445114 
L 389.469091 405.477114 
L 393.076364 409.509114 
L 396.683636 413.541114 
L 400.290909 417.573114 
L 403.898182 421.605114 
L 407.505455 425.637114 
L 411.112727 429.669114 
L 414.72 433.701114 
L 414.72 407.381239 
L 414.72 407.381239 
L 411.112727 403.349239 
L 407.505455 399.317239 
L 403.898182 395.285239 
L 400.290909 391.253239 
L 396.683636 387.221239 
L 393.076364 383.189239 
L 389.469091 379.157239 
L 385.861818 375.125239 
L 382.254545 371.093239 
L 378.647273 367.061239 
L 375.04 363.029239 
L 371.432727 358.997239 
L 367.825455 354.965239 
L 364.218182 350.933239 
L 360.610909 346.901239 
L 357.003636 342.869239 
L 353.396364 338.837239 
L 349.789091 334.805239 
L 346.181818 330.773239 
L 342.574545 326.741239 
L 338.967273 322.709239 
L 335.36 318.677239 
L 331.752727 314.645239 
L 328.145455 310.613239 
L 324.538182 306.581239 
L 320.930909 302.549239 
L 317.323636 298.517239 
L 313.716364 294.485239 
L 310.109091 290.453239 
L 306.501818 286.421239 
L 302.894545 282.389239 
L 299.287273 278.357239 
L 295.68 274.325239 
L 292.072727 270.293239 
L 288.465455 266.261239 
L 284.858182 262.229239 
L 281.250909 258.197239 
L 277.643636 254.165239 
L 274.036364 250.133239 
L 270.429091 246.101239 
L 266.821818 242.069239 
L 263.214545 238.037239 
L 259.607273 234.005239 
L 256 229.973239 
L 252.392727 225.941239 
L 248.785455 221.909239 
L 245.178182 217.877239 
L 241.570909 213.845239 
L 237.963636 209.813239 
L 234.356364 205.781239 
L 230.749091 201.749239 
L 227.141818 197.717239 
L 223.534545 193.685239 
L 219.927273 189.653239 
L 216.32 185.621239 
L 212.712727 181.589239 
L 209.105455 177.557239 
L 205.498182 173.525239 
L 201.890909 169.493239 
L 198.283636 165.461239 
L 194.676364 161.429239 
L 191.069091 157.397239 
L 187.461818 153.365239 
L 183.854545 149.333239 
L 180.247273 145.301239 
L 176.64 141.269239 
L 173.032727 137.237239 
L 169.425455 133.205239 
L 165.818182 129.173239 
L 162.210909 125.141239 
L 158.603636 121.109239 
L 154.996364 117.077239 
L 151.389091 113.045239 
L 147.781818 109.013239 
L 144.174545 104.981239 
L 140.567273 100.949239 
L 136.96 96.917239 
L 133.352727 92.885239 
L 129.745455 88.853239 
L 126.138182 84.821239 
L 122.530909 80.789239 
L 118.923636 76.757239 
L 115.316364 72.725239 
L 111.709091 68.693239 
L 108.101818 64.661239 
L 104.494545 60.629239 
L 100.887273 56.597239 
L 97.28 52.565239 
L 93.672727 48.533239 
L 90.065455 44.501239 
L 86.458182 40.469239 
L 82.850909 36.437239 
L 79.243636 32.405239 
L 75.636364 28.373239 
L 72.029091 24.341239 
L 68.421818 20.309239 
L 64.814545 16.277239 
L 61.207273 12.245239 
L 57.6 8.213239 
z
" clip-path="url(#p1496fe9c49)" style="fill: #a61c31; stroke: #a61c31"/>
   </g>
   <g id="PolyCollection_3">
    <defs>
     <path id="m6c9c9d2085" d="M 57.6 -304.128 
L 57.6 -255.358779 
L 61.207273 -255.358779 
L 64.814545 -255.358779 
L 68.421818 -255.358779 
L 72.029091 -255.358779 
L 75.636364 -255.358779 
L 79.243636 -255.358779 
L 82.850909 -255.358779 
L 86.458182 -255.358779 
L 90.065455 -255.358779 
L 93.672727 -255.358779 
L 97.28 -255.358779 
L 100.887273 -255.358779 
L 104.494545 -255.358779 
L 108.101818 -255.358779 
L 111.709091 -255.358779 
L 115.316364 -255.358779 
L 118.923636 -255.358779 
L 122.530909 -255.358779 
L 126.138182 -255.358779 
L 129.745455 -255.358779 
L 133.352727 -255.358779 
L 136.96 -255.358779 
L 140.567273 -255.358779 
L 144.174545 -255.358779 
L 147.781818 -255.358779 
L 151.389091 -255.358779 
L 154.996364 -255.358779 
L 158.603636 -255.358779 
L 162.210909 -255.358779 
L 165.818182 -255.358779 
L 169.425455 -255.358779 
L 173.032727 -255.358779 
L 176.64 -255.358779 
L 180.247273 -255.358779 
L 183.854545 -255.358779 
L 187.461818 -255.358779 
L 191.069091 -255.358779 
L 194.676364 -255.358779 
L 198.283636 -255.358779 
L 201.890909 -255.358779 
L 205.498182 -255.358779 
L 209.105455 -255.358779 
L 212.712727 -255.358779 
L 216.32 -255.358779 
L 219.927273 -255.358779 
L 223.534545 -255.358779 
L 227.141818 -255.358779 
L 230.749091 -255.358779 
L 234.356364 -255.358779 
L 237.963636 -255.358779 
L 241.570909 -255.358779 
L 245.178182 -255.358779 
L 248.785455 -255.358779 
L 252.392727 -255.358779 
L 256 -255.358779 
L 259.607273 -255.358779 
L 263.214545 -255.358779 
L 266.821818 -255.358779 
L 270.429091 -255.358779 
L 274.036364 -255.358779 
L 277.643636 -255.358779 
L 281.250909 -255.358779 
L 284.858182 -255.358779 
L 288.465455 -255.358779 
L 292.072727 -255.358779 
L 295.68 -255.358779 
L 299.287273 -255.358779 
L 302.894545 -255.358779 
L 306.501818 -255.358779 
L 310.109091 -255.358779 
L 313.716364 -255.358779 
L 317.323636 -255.358779 
L 320.930909 -255.358779 
L 324.538182 -255.358779 
L 328.145455 -255.358779 
L 331.752727 -255.358779 
L 335.36 -255.358779 
L 338.967273 -255.358779 
L 342.574545 -255.358779 
L 346.181818 -255.358779 
L 349.789091 -255.358779 
L 353.396364 -255.358779 
L 357.003636 -255.358779 
L 360.610909 -255.358779 
L 364.218182 -255.358779 
L 367.825455 -255.358779 
L 371.432727 -255.358779 
L 375.04 -255.358779 
L 378.647273 -255.358779 
L 382.254545 -255.358779 
L 385.861818 -255.358779 
L 389.469091 -255.358779 
L 393.076364 -255.358779 
L 396.683636 -255.358779 
L 400.290909 -255.358779 
L 403.898182 -255.358779 
L 407.505455 -255.358779 
L 411.112727 -255.358779 
L 414.72 -255.358779 
L 414.72 -304.128 
L 414.72 -304.128 
L 411.112727 -304.128 
L 407.505455 -304.128 
L 403.898182 -304.128 
L 400.290909 -304.128 
L 396.683636 -304.128 
L 393.076364 -304.128 
L 389.469091 -304.128 
L 385.861818 -304.128 
L 382.254545 -304.128 
L 378.647273 -304.128 
L 375.04 -304.128 
L 371.432727 -304.128 
L 367.825455 -304.128 
L 364.218182 -304.128 
L 360.610909 -304.128 
L 357.003636 -304.128 
L 353.396364 -304.128 
L 349.789091 -304.128 
L 346.181818 -304.128 
L 342.574545 -304.128 
L 338.967273 -304.128 
L 335.36 -304.128 
L 331.752727 -304.128 
L 328.145455 -304.128 
L 324.538182 -304.128 
L 320.930909 -304.128 
L 317.323636 -304.128 
L 313.716364 -304.128 
L 310.109091 -304.128 
L 306.501818 -304.128 
L 302.894545 -304.128 
L 299.287273 -304.128 
L 295.68 -304.128 
L 292.072727 -304.128 
L 288.465455 -304.128 
L 284.858182 -304.128 
L 281.250909 -304.128 
L 277.643636 -304.128 
L 274.036364 -304.128 
L 270.429091 -304.128 
L 266.821818 -304.128 
L 263.214545 -304.128 
L 259.607273 -304.128 
L 256 -304.128 
L 252.392727 -304.128 
L 248.785455 -304.128 
L 245.178182 -304.128 
L 241.570909 -304.128 
L 237.963636 -304.128 
L 234.356364 -304.128 
L 230.749091 -304.128 
L 227.141818 -304.128 
L 223.534545 -304.128 
L 219.927273 -304.128 
L 216.32 -304.128 
L 212.712727 -304.128 
L 209.105455 -304.128 
L 205.498182 -304.128 
L 201.890909 -304.128 
L 198.283636 -304.128 
L 194.676364 -304.128 
L 191.069091 -304.128 
L 187.461818 -304.128 
L 183.854545 -304.128 
L 180.247273 -304.128 
L 176.64 -304.128 
L 173.032727 -304.128 
L 169.425455 -304.128 
L 165.818182 -304.128 
L 162.210909 -304.128 
L 158.603636 -304.128 
L 154.996364 -304.128 
L 151.389091 -304.128 
L 147.781818 -304.128 
L 144.174545 -304.128 
L 140.567273 -304.128 
L 136.96 -304.128 
L 133.352727 -304.128 
L 129.745455 -304.128 
L 126.138182 -304.128 
L 122.530909 -304.128 
L 118.923636 -304.128 
L 115.316364 -304.128 
L 111.709091 -304.128 
L 108.101818 -304.128 
L 104.494545 -304.128 
L 100.887273 -304.128 
L 97.28 -304.128 
L 93.672727 -304.128 
L 90.065455 -304.128 
L 86.458182 -304.128 
L 82.850909 -304.128 
L 79.243636 -304.128 
L 75.636364 -304.128 
L 72.029091 -304.128 
L 68.421818 -304.128 
L 64.814545 -304.128 
L 61.207273 -304.128 
L 57.6 -304.128 
z
" style="stroke: #565a5c; stroke-opacity: 0.5"/>
    </defs>
    <g clip-path="url(#p1496fe9c49)">
     <use xlink:href="#m6c9c9d2085" x="0" y="345.6" style="fill: #565a5c; fill-opacity: 0.5; stroke: #565a5c; stroke-opacity: 0.5"/>
    </g>
   </g>
   <g id="PolyCollection_4">
    <defs>
     <path id="m47a4b11d59" d="M 317.665668 -304.128 
L 317.665668 -302.546342 
L 321.881667 -297.782295 
L 325.489997 -294.052905 
L 329.939918 -289.324317 
L 335.012456 -283.764488 
L 342.216915 -276.036567 
L 346.451901 -271.238743 
L 350.545279 -266.783344 
L 355.326095 -261.715234 
L 362.756788 -253.999058 
L 371.208174 -244.76946 
L 379.706016 -235.510999 
L 387.002234 -227.387403 
L 395.686229 -218.188252 
L 402.139384 -211.125847 
L 409.50229 -202.745462 
L 418.314387 -193.726343 
L 423.495432 -187.984056 
L 423.495432 -304.128 
L 423.495432 -304.128 
L 418.314387 -304.128 
L 409.50229 -304.128 
L 402.139384 -304.128 
L 395.686229 -304.128 
L 387.002234 -304.128 
L 379.706016 -304.128 
L 371.208174 -304.128 
L 362.756788 -304.128 
L 355.326095 -304.128 
L 350.545279 -304.128 
L 346.451901 -304.128 
L 342.216915 -304.128 
L 335.012456 -304.128 
L 329.939918 -304.128 
L 325.489997 -304.128 
L 321.881667 -304.128 
L 317.665668 -304.128 
z
" style="stroke: #b1b2b0; stroke-opacity: 0.5"/>
    </defs>
    <g clip-path="url(#p1496fe9c49)">
     <use xlink:href="#m47a4b11d59" x="0" y="345.6" style="fill: #b1b2b0; fill-opacity: 0.5; stroke: #b1b2b0; stroke-opacity: 0.5"/>
    </g>
   </g>
   <g id="PolyCollection_5">
    <defs>
     <path id="mda85e27d4f" d="M 220.569358 -38.933249 
L 220.569358 -38.016 
L 228.975749 -38.016 
L 237.76513 -38.016 
L 243.97042 -38.016 
L 252.764472 -38.016 
L 263.372216 -38.016 
L 273.986583 -38.016 
L 282.0334 -38.016 
L 290.083461 -38.016 
L 298.682655 -38.016 
L 310.57855 -38.016 
L 326.675812 -38.016 
L 337.288059 -38.016 
L 344.609029 -38.016 
L 357.050203 -38.016 
L 366.928759 -38.016 
L 374.979944 -38.016 
L 383.396576 -38.016 
L 392.178873 -38.016 
L 400.593915 -38.016 
L 408.278965 -38.016 
L 415.963269 -38.016 
L 424.0146 -38.016 
L 424.0146 -261.013959 
L 424.0146 -261.013959 
L 415.963269 -252.529 
L 408.278965 -244.043406 
L 400.593915 -235.926317 
L 392.178873 -226.335569 
L 383.396576 -216.743605 
L 374.979944 -207.519602 
L 366.928759 -199.034775 
L 357.050203 -187.966804 
L 344.609029 -174.31904 
L 337.288059 -166.566954 
L 326.675812 -155.129836 
L 310.57855 -137.059058 
L 298.682655 -124.323133 
L 290.083461 -114.915865 
L 282.0334 -106.426627 
L 273.986583 -97.574939 
L 263.372216 -85.767963 
L 252.764472 -74.340457 
L 243.97042 -64.740364 
L 237.76513 -57.747419 
L 228.975749 -47.775884 
L 220.569358 -38.933249 
z
" style="stroke: #b1b2b0; stroke-opacity: 0.5"/>
    </defs>
    <g clip-path="url(#p1496fe9c49)">
     <use xlink:href="#mda85e27d4f" x="0" y="345.6" style="fill: #b1b2b0; fill-opacity: 0.5; stroke: #b1b2b0; stroke-opacity: 0.5"/>
    </g>
   </g>
   <g id="PolyCollection_6">
    <path d="M 414.72 19.887446 
L 397.73686 19.887446 
L 397.73686 23.919446 
L 397.73686 27.951446 
L 397.73686 31.983446 
L 397.73686 36.015446 
L 397.73686 40.047446 
L 397.73686 44.079446 
L 397.73686 48.111446 
L 397.73686 52.143446 
L 397.73686 56.175446 
L 397.73686 60.207446 
L 397.73686 64.239446 
L 397.73686 68.271446 
L 397.73686 72.303446 
L 397.73686 76.335446 
L 397.73686 80.367446 
L 397.73686 84.399446 
L 397.73686 88.431446 
L 397.73686 92.463446 
L 397.73686 96.495446 
L 397.73686 100.527446 
L 397.73686 104.559446 
L 397.73686 108.591446 
L 397.73686 112.623446 
L 397.73686 116.655446 
L 397.73686 120.687446 
L 397.73686 124.719446 
L 397.73686 128.751446 
L 397.73686 132.783446 
L 397.73686 136.815446 
L 397.73686 140.847446 
L 397.73686 144.879446 
L 397.73686 148.911446 
L 397.73686 152.943446 
L 397.73686 156.975446 
L 397.73686 161.007446 
L 397.73686 165.039446 
L 397.73686 169.071446 
L 397.73686 173.103446 
L 397.73686 177.135446 
L 397.73686 181.167446 
L 397.73686 185.199446 
L 397.73686 189.231446 
L 397.73686 193.263446 
L 397.73686 197.295446 
L 397.73686 201.327446 
L 397.73686 205.359446 
L 397.73686 209.391446 
L 397.73686 213.423446 
L 397.73686 217.455446 
L 397.73686 221.487446 
L 397.73686 225.519446 
L 397.73686 229.551446 
L 397.73686 233.583446 
L 397.73686 237.615446 
L 397.73686 241.647446 
L 397.73686 245.679446 
L 397.73686 249.711446 
L 397.73686 253.743446 
L 397.73686 257.775446 
L 397.73686 261.807446 
L 397.73686 265.839446 
L 397.73686 269.871446 
L 397.73686 273.903446 
L 397.73686 277.935446 
L 397.73686 281.967446 
L 397.73686 285.999446 
L 397.73686 290.031446 
L 397.73686 294.063446 
L 397.73686 298.095446 
L 397.73686 302.127446 
L 397.73686 306.159446 
L 397.73686 310.191446 
L 397.73686 314.223446 
L 397.73686 318.255446 
L 397.73686 322.287446 
L 397.73686 326.319446 
L 397.73686 330.351446 
L 397.73686 334.383446 
L 397.73686 338.415446 
L 397.73686 342.447446 
L 397.73686 346.479446 
L 397.73686 350.511446 
L 397.73686 354.543446 
L 397.73686 358.575446 
L 397.73686 362.607446 
L 397.73686 366.639446 
L 397.73686 370.671446 
L 397.73686 374.703446 
L 397.73686 378.735446 
L 397.73686 382.767446 
L 397.73686 386.799446 
L 397.73686 390.831446 
L 397.73686 394.863446 
L 397.73686 398.895446 
L 397.73686 402.927446 
L 397.73686 406.959446 
L 397.73686 410.991446 
L 397.73686 415.023446 
L 397.73686 419.055446 
L 414.72 419.055446 
L 414.72 419.055446 
L 414.72 415.023446 
L 414.72 410.991446 
L 414.72 406.959446 
L 414.72 402.927446 
L 414.72 398.895446 
L 414.72 394.863446 
L 414.72 390.831446 
L 414.72 386.799446 
L 414.72 382.767446 
L 414.72 378.735446 
L 414.72 374.703446 
L 414.72 370.671446 
L 414.72 366.639446 
L 414.72 362.607446 
L 414.72 358.575446 
L 414.72 354.543446 
L 414.72 350.511446 
L 414.72 346.479446 
L 414.72 342.447446 
L 414.72 338.415446 
L 414.72 334.383446 
L 414.72 330.351446 
L 414.72 326.319446 
L 414.72 322.287446 
L 414.72 318.255446 
L 414.72 314.223446 
L 414.72 310.191446 
L 414.72 306.159446 
L 414.72 302.127446 
L 414.72 298.095446 
L 414.72 294.063446 
L 414.72 290.031446 
L 414.72 285.999446 
L 414.72 281.967446 
L 414.72 277.935446 
L 414.72 273.903446 
L 414.72 269.871446 
L 414.72 265.839446 
L 414.72 261.807446 
L 414.72 257.775446 
L 414.72 253.743446 
L 414.72 249.711446 
L 414.72 245.679446 
L 414.72 241.647446 
L 414.72 237.615446 
L 414.72 233.583446 
L 414.72 229.551446 
L 414.72 225.519446 
L 414.72 221.487446 
L 414.72 217.455446 
L 414.72 213.423446 
L 414.72 209.391446 
L 414.72 205.359446 
L 414.72 201.327446 
L 414.72 197.295446 
L 414.72 193.263446 
L 414.72 189.231446 
L 414.72 185.199446 
L 414.72 181.167446 
L 414.72 177.135446 
L 414.72 173.103446 
L 414.72 169.071446 
L 414.72 165.039446 
L 414.72 161.007446 
L 414.72 156.975446 
L 414.72 152.943446 
L 414.72 148.911446 
L 414.72 144.879446 
L 414.72 140.847446 
L 414.72 136.815446 
L 414.72 132.783446 
L 414.72 128.751446 
L 414.72 124.719446 
L 414.72 120.687446 
L 414.72 116.655446 
L 414.72 112.623446 
L 414.72 108.591446 
L 414.72 104.559446 
L 414.72 100.527446 
L 414.72 96.495446 
L 414.72 92.463446 
L 414.72 88.431446 
L 414.72 84.399446 
L 414.72 80.367446 
L 414.72 76.335446 
L 414.72 72.303446 
L 414.72 68.271446 
L 414.72 64.239446 
L 414.72 60.207446 
L 414.72 56.175446 
L 414.72 52.143446 
L 414.72 48.111446 
L 414.72 44.079446 
L 414.72 40.047446 
L 414.72 36.015446 
L 414.72 31.983446 
L 414.72 27.951446 
L 414.72 23.919446 
L 414.72 19.887446 
z
" clip-path="url(#p1496fe9c49)" style="fill: #565a5c; fill-opacity: 0.5; stroke: #565a5c; stroke-opacity: 0.5"/>
   </g>
   <g id="line2d_48">
    <path d="M 57.6 19.887446 
L 61.207273 23.919446 
L 64.814545 27.951446 
L 68.421818 31.983446 
L 72.029091 36.015446 
L 75.636364 40.047446 
L 79.243636 44.079446 
L 82.850909 48.111446 
L 86.458182 52.143446 
L 90.065455 56.175446 
L 93.672727 60.207446 
L 97.28 64.239446 
L 100.887273 68.271446 
L 104.494545 72.303446 
L 108.101818 76.335446 
L 111.709091 80.367446 
L 115.316364 84.399446 
L 118.923636 88.431446 
L 122.530909 92.463446 
L 126.138182 96.495446 
L 129.745455 100.527446 
L 133.352727 104.559446 
L 136.96 108.591446 
L 140.567273 112.623446 
L 144.174545 116.655446 
L 147.781818 120.687446 
L 151.389091 124.719446 
L 154.996364 128.751446 
L 158.603636 132.783446 
L 162.210909 136.815446 
L 165.818182 140.847446 
L 169.425455 144.879446 
L 173.032727 148.911446 
L 176.64 152.943446 
L 180.247273 156.975446 
L 183.854545 161.007446 
L 187.461818 165.039446 
L 191.069091 169.071446 
L 194.676364 173.103446 
L 198.283636 177.135446 
L 201.890909 181.167446 
L 205.498182 185.199446 
L 209.105455 189.231446 
L 212.712727 193.263446 
L 216.32 197.295446 
L 219.927273 201.327446 
L 223.534545 205.359446 
L 227.141818 209.391446 
L 230.749091 213.423446 
L 234.356364 217.455446 
L 237.963636 221.487446 
L 241.570909 225.519446 
L 245.178182 229.551446 
L 248.785455 233.583446 
L 252.392727 237.615446 
L 256 241.647446 
L 259.607273 245.679446 
L 263.214545 249.711446 
L 266.821818 253.743446 
L 270.429091 257.775446 
L 274.036364 261.807446 
L 277.643636 265.839446 
L 281.250909 269.871446 
L 284.858182 273.903446 
L 288.465455 277.935446 
L 292.072727 281.967446 
L 295.68 285.999446 
L 299.287273 290.031446 
L 302.894545 294.063446 
L 306.501818 298.095446 
L 310.109091 302.127446 
L 313.716364 306.159446 
L 317.323636 310.191446 
L 320.930909 314.223446 
L 324.538182 318.255446 
L 328.145455 322.287446 
L 331.752727 326.319446 
L 335.36 330.351446 
L 338.967273 334.383446 
L 342.574545 338.415446 
L 346.181818 342.447446 
L 349.789091 346.479446 
L 349.896946 346.6 
" clip-path="url(#p1496fe9c49)" style="fill: none; stroke: #a61c31; stroke-width: 1.5; stroke-linecap: round"/>
   </g>
   <g id="LineCollection_1">
    <path d="M 57.6 90.241221 
L 414.72 90.241221 
" clip-path="url(#p1496fe9c49)" style="fill: none; stroke: #565a5c; stroke-width: 1.5"/>
   </g>
   <g id="line2d_49">
    <path d="M 317.665668 43.053658 
L 321.881667 47.817705 
L 325.489997 51.547095 
L 329.939918 56.275683 
L 335.012456 61.835512 
L 342.216915 69.563433 
L 346.451901 74.361257 
L 350.545279 78.816656 
L 355.326095 83.884766 
L 362.756788 91.600942 
L 371.208174 100.83054 
L 379.706016 110.089001 
L 387.002234 118.212597 
L 395.686229 127.411748 
L 402.139384 134.474153 
L 409.50229 142.854538 
L 418.314387 151.873657 
L 423.495432 157.615944 
" clip-path="url(#p1496fe9c49)" style="fill: none; stroke: #b1b2b0; stroke-width: 1.5; stroke-linecap: round"/>
   </g>
   <g id="line2d_50">
    <path d="M 220.569358 306.666751 
L 228.975749 297.824116 
L 237.76513 287.852581 
L 243.97042 280.859636 
L 252.764472 271.259543 
L 263.372216 259.832037 
L 273.986583 248.025061 
L 282.0334 239.173373 
L 290.083461 230.684135 
L 298.682655 221.276867 
L 310.57855 208.540942 
L 326.675812 190.470164 
L 337.288059 179.033046 
L 344.609029 171.28096 
L 357.050203 157.633196 
L 366.928759 146.565225 
L 374.979944 138.080398 
L 383.396576 128.856395 
L 392.178873 119.264431 
L 400.593915 109.673683 
L 408.278965 101.556594 
L 415.963269 93.071 
L 424.0146 84.586041 
" clip-path="url(#p1496fe9c49)" style="fill: none; stroke: #b1b2b0; stroke-width: 1.5; stroke-linecap: round"/>
   </g>
   <g id="LineCollection_2">
    <path d="M 397.73686 19.887446 
L 397.73686 346.6 
" clip-path="url(#p1496fe9c49)" style="fill: none; stroke: #565a5c; stroke-width: 1.5"/>
   </g>
   <g id="patch_3">
    <path d="M 57.6 307.584 
L 57.6 41.472 
" style="fill: none; stroke: #262626; stroke-width: 1.65; stroke-linejoin: miter; stroke-linecap: square"/>
   </g>
   <g id="patch_4">
    <path d="M 414.72 307.584 
L 414.72 41.472 
" style="fill: none; stroke: #262626; stroke-width: 1.65; stroke-linejoin: miter; stroke-linecap: square"/>
   </g>
   <g id="patch_5">
    <path d="M 57.6 307.584 
L 414.72 307.584 
" style="fill: none; stroke: #262626; stroke-width: 1.65; stroke-linejoin: miter; stroke-linecap: square"/>
   </g>
   <g id="patch_6">
    <path d="M 57.6 41.472 
L 414.72 41.472 
" style="fill: none; stroke: #262626; stroke-width: 1.65; stroke-linejoin: miter; stroke-linecap: square"/>
   </g>
   <g id="text_10">
    <!-- $m_S = 1.2 $ TeV -->
    <g transform="translate(78.561903 254.635694)scale(0.14 -0.14)">
     <defs>
      <path id="CMMI12-6d" d="M 1318 1870 
C 1331 1909 1491 2228 1728 2432 
C 1894 2585 2112 2687 2362 2687 
C 2618 2687 2707 2496 2707 2241 
C 2707 2202 2707 2075 2630 1775 
L 2470 1117 
C 2419 925 2298 453 2285 383 
C 2259 287 2221 121 2221 95 
C 2221 6 2291 -64 2387 -64 
C 2579 -64 2611 83 2669 313 
L 3053 1838 
C 3066 1890 3398 2687 4102 2687 
C 4358 2687 4448 2496 4448 2241 
C 4448 1883 4198 1187 4058 804 
C 4000 651 3968 568 3968 453 
C 3968 166 4166 -64 4474 -64 
C 5069 -64 5293 874 5293 913 
C 5293 945 5267 970 5229 970 
C 5171 970 5165 951 5133 842 
C 4986 332 4749 64 4493 64 
C 4429 64 4326 70 4326 274 
C 4326 440 4403 645 4429 715 
C 4544 1021 4832 1775 4832 2145 
C 4832 2528 4608 2816 4122 2816 
C 3693 2816 3347 2573 3091 2196 
C 3072 2541 2861 2816 2381 2816 
C 1811 2816 1510 2413 1395 2253 
C 1376 2617 1114 2816 832 2816 
C 646 2816 499 2726 378 2483 
C 262 2253 173 1864 173 1838 
C 173 1813 198 1781 243 1781 
C 294 1781 301 1787 339 1934 
C 435 2311 557 2687 813 2687 
C 960 2687 1011 2585 1011 2394 
C 1011 2253 947 2004 902 1807 
L 723 1117 
C 698 996 627 708 595 593 
C 550 427 480 127 480 95 
C 480 6 550 -64 646 -64 
C 723 -64 813 -26 864 70 
C 877 102 934 325 966 453 
L 1107 1028 
L 1318 1870 
z
" transform="scale(0.015625)"/>
      <path id="CMMI12-53" d="M 4064 4422 
C 4064 4480 4019 4480 4006 4480 
C 3981 4480 3974 4473 3898 4377 
C 3859 4332 3597 4002 3590 3996 
C 3379 4409 2957 4480 2688 4480 
C 1875 4480 1139 3742 1139 3024 
C 1139 2547 1427 2268 1741 2160 
C 1811 2134 2189 2033 2381 1988 
C 2707 1899 2790 1874 2925 1734 
C 2950 1702 3078 1556 3078 1258 
C 3078 667 2528 57 1888 57 
C 1363 57 781 279 781 991 
C 781 1112 806 1264 826 1328 
C 826 1347 832 1378 832 1391 
C 832 1417 819 1448 768 1448 
C 710 1448 704 1436 678 1328 
L 352 25 
C 352 19 326 -64 326 -71 
C 326 -128 378 -128 390 -128 
C 416 -128 422 -122 499 -26 
L 794 356 
C 947 127 1280 -128 1875 -128 
C 2701 -128 3456 667 3456 1461 
C 3456 1728 3392 1963 3149 2198 
C 3014 2331 2899 2363 2310 2516 
C 1882 2630 1824 2649 1709 2751 
C 1600 2859 1517 3011 1517 3227 
C 1517 3761 2061 4307 2669 4307 
C 3296 4307 3590 3926 3590 3322 
C 3590 3157 3558 2986 3558 2960 
C 3558 2903 3610 2903 3629 2903 
C 3686 2903 3693 2922 3718 3024 
L 4064 4422 
z
" transform="scale(0.015625)"/>
      <path id="CMR17-3d" d="M 4115 2048 
C 4211 2048 4307 2048 4307 2156 
C 4307 2272 4198 2272 4090 2272 
L 512 2272 
C 403 2272 294 2272 294 2156 
C 294 2048 390 2048 486 2048 
L 4115 2048 
z
M 4090 927 
C 4198 927 4307 927 4307 1043 
C 4307 1152 4211 1152 4115 1152 
L 486 1152 
C 390 1152 294 1152 294 1043 
C 294 927 403 927 512 927 
L 4090 927 
z
" transform="scale(0.015625)"/>
      <path id="CMMI12-3a" d="M 1178 307 
C 1178 492 1024 620 870 620 
C 685 620 557 467 557 313 
C 557 128 710 0 864 0 
C 1050 0 1178 153 1178 307 
z
" transform="scale(0.015625)"/>
      <path id="CMR17-54" d="M 3981 4332 
L 288 4332 
L 179 2924 
L 294 2924 
C 378 3981 467 4166 1453 4166 
C 1568 4166 1754 4166 1805 4159 
C 1926 4140 1926 4064 1926 3917 
L 1926 465 
C 1926 236 1907 166 1376 166 
L 1197 166 
L 1197 0 
C 1504 6 1824 12 2138 12 
C 2451 12 2771 6 3078 0 
L 3078 166 
L 2899 166 
C 2368 166 2349 236 2349 465 
L 2349 3917 
C 2349 4057 2349 4134 2464 4159 
C 2515 4166 2701 4166 2816 4166 
C 3795 4166 3891 3981 3974 2924 
L 4090 2924 
L 3981 4332 
z
" transform="scale(0.015625)"/>
      <path id="CMR17-65" d="M 2438 1503 
C 2464 1529 2464 1542 2464 1606 
C 2464 2251 2118 2816 1389 2816 
C 710 2816 173 2175 173 1394 
C 173 554 781 -64 1459 -64 
C 2176 -64 2458 619 2458 755 
C 2458 800 2419 800 2406 800 
C 2362 800 2355 787 2330 709 
C 2189 270 1837 51 1504 51 
C 1229 51 954 206 781 490 
C 582 819 582 1200 582 1503 
L 2438 1503 
z
M 589 1600 
C 634 2511 1126 2713 1382 2713 
C 1818 2713 2112 2308 2118 1600 
L 589 1600 
z
" transform="scale(0.015625)"/>
      <path id="CMR17-56" d="M 3776 3762 
C 3834 3903 3936 4179 4365 4185 
L 4365 4352 
C 4218 4339 4051 4339 3891 4339 
C 3738 4339 3475 4339 3328 4352 
L 3328 4185 
C 3648 4166 3661 3942 3661 3903 
C 3661 3833 3642 3788 3622 3737 
L 2362 448 
L 1043 3903 
C 1024 3948 1011 3980 1011 4012 
C 1011 4185 1267 4185 1402 4185 
L 1402 4352 
C 1197 4339 896 4339 685 4339 
C 518 4339 218 4339 64 4352 
L 64 4185 
C 435 4185 506 4160 582 3955 
L 2106 -26 
C 2138 -116 2144 -128 2214 -128 
C 2285 -128 2291 -116 2323 -26 
L 3776 3762 
z
" transform="scale(0.015625)"/>
     </defs>
     <use xlink:href="#CMMI12-6d" transform="scale(0.996264)"/>
     <use xlink:href="#CMMI12-53" transform="translate(85.327224 -14.943915)scale(0.697382)"/>
     <use xlink:href="#CMR17-3d" transform="translate(159.555263 0)scale(0.996264)"/>
     <use xlink:href="#CMR17-31" transform="translate(258.94406 0)scale(0.996264)"/>
     <use xlink:href="#CMMI12-3a" transform="translate(304.634537 0)scale(0.996264)"/>
     <use xlink:href="#CMR17-32" transform="translate(331.731714 0)scale(0.996264)"/>
     <use xlink:href="#CMR17-54" transform="translate(407.498158 0)scale(0.996264)"/>
     <use xlink:href="#CMR17-65" transform="translate(466.200783 0)scale(0.996264)"/>
     <use xlink:href="#CMR17-56" transform="translate(506.686443 0)scale(0.996264)"/>
    </g>
   </g>
   <g id="text_11">
    <!-- $D - \overline{D}$ -->
    <g transform="translate(176.64 70.990307)scale(0.14 -0.14)">
     <defs>
      <path id="CMMI12-44" d="M 1005 472 
C 947 249 934 185 486 185 
C 365 185 301 185 301 70 
C 301 0 339 0 467 0 
L 2496 0 
C 3789 0 5050 1332 5050 2752 
C 5050 3669 4499 4352 3584 4352 
L 1530 4352 
C 1408 4352 1350 4352 1350 4230 
C 1350 4166 1408 4166 1504 4166 
C 1894 4166 1894 4115 1894 4045 
C 1894 4032 1894 3994 1869 3898 
L 1005 472 
z
M 2355 3917 
C 2413 4153 2438 4166 2688 4166 
L 3392 4166 
C 3994 4166 4544 3841 4544 2962 
C 4544 2644 4416 1535 3795 835 
C 3616 625 3130 185 2394 185 
L 1664 185 
C 1574 185 1562 185 1523 191 
C 1453 198 1446 211 1446 262 
C 1446 306 1459 344 1472 402 
L 2355 3917 
z
" transform="scale(0.015625)"/>
     </defs>
     <use xlink:href="#CMMI12-44" transform="scale(0.996264)"/>
     <use xlink:href="#CMSY10-0" transform="translate(105.843155 0)scale(0.996264)"/>
     <use xlink:href="#CMMI12-44" transform="translate(205.469829 0)scale(0.996264)"/>
     <path d="M 205.469829 80.032884 
L 289.173777 80.032884 
L 289.173777 84.017834 
L 205.469829 84.017834 
L 205.469829 80.032884 
z
"/>
    </g>
   </g>
   <g id="text_12">
    <!-- $B  \rightarrow K^* \nu \nu $ -->
    <g transform="translate(354.459966 74.694465)rotate(-313)scale(0.14 -0.14)">
     <defs>
      <path id="CMMI12-42" d="M 2342 3915 
C 2400 4153 2426 4166 2675 4166 
L 3507 4166 
C 4230 4166 4230 3547 4230 3489 
C 4230 2967 3712 2304 2867 2304 
L 1946 2304 
L 2342 3915 
z
M 3424 2252 
C 4122 2381 4755 2871 4755 3463 
C 4755 3966 4314 4352 3590 4352 
L 1536 4352 
C 1414 4352 1357 4352 1357 4230 
C 1357 4166 1414 4166 1510 4166 
C 1901 4166 1901 4114 1901 4043 
C 1901 4031 1901 3992 1875 3895 
L 1011 469 
C 954 248 941 185 493 185 
C 371 185 307 185 307 70 
C 307 0 346 0 474 0 
L 2669 0 
C 3648 0 4403 733 4403 1369 
C 4403 1886 3942 2201 3424 2252 
z
M 2515 185 
L 1651 185 
C 1562 185 1549 185 1510 191 
C 1440 198 1434 210 1434 261 
C 1434 305 1446 343 1459 399 
L 1907 2176 
L 3110 2176 
C 3866 2176 3866 1483 3866 1432 
C 3866 828 3309 185 2515 185 
z
" transform="scale(0.015625)"/>
      <path id="CMSY10-21" d="M 5338 1472 
C 4986 1203 4813 940 4762 857 
C 4474 415 4422 12 4422 6 
C 4422 -71 4499 -71 4550 -71 
C 4659 -71 4666 -58 4691 57 
C 4838 684 5216 1222 5939 1516 
C 6016 1542 6035 1555 6035 1600 
C 6035 1644 5997 1664 5984 1670 
C 5702 1779 4928 2099 4685 3174 
C 4666 3251 4659 3270 4550 3270 
C 4499 3270 4422 3270 4422 3193 
C 4422 3180 4480 2777 4749 2348 
C 4877 2156 5062 1932 5338 1728 
L 582 1728 
C 467 1728 352 1728 352 1600 
C 352 1472 467 1472 582 1472 
L 5338 1472 
z
" transform="scale(0.015625)"/>
      <path id="CMMI12-4b" d="M 3200 2574 
C 3194 2593 3168 2644 3168 2663 
C 3168 2669 3174 2675 3283 2758 
L 3904 3242 
C 4762 3905 5043 4128 5485 4166 
C 5530 4172 5594 4172 5594 4281 
C 5594 4319 5574 4352 5523 4352 
C 5453 4352 5376 4339 5306 4339 
L 5062 4339 
C 4864 4339 4653 4352 4461 4352 
C 4416 4352 4339 4352 4339 4236 
C 4339 4172 4384 4166 4422 4166 
C 4493 4159 4576 4134 4576 4045 
C 4576 3917 4384 3765 4333 3726 
L 1824 1784 
L 2355 3886 
C 2413 4102 2426 4166 2880 4166 
C 3002 4166 3059 4166 3059 4287 
C 3059 4352 2995 4352 2963 4352 
C 2848 4352 2714 4339 2592 4339 
L 1837 4339 
C 1722 4339 1581 4352 1466 4352 
C 1414 4352 1344 4352 1344 4230 
C 1344 4166 1402 4166 1498 4166 
C 1888 4166 1888 4115 1888 4045 
C 1888 4032 1888 3994 1862 3898 
L 998 472 
C 941 249 928 185 480 185 
C 358 185 294 185 294 70 
C 294 0 352 0 390 0 
C 512 0 640 12 762 12 
L 1510 12 
C 1632 12 1766 0 1888 0 
C 1939 0 2010 0 2010 121 
C 2010 185 1952 185 1856 185 
C 1466 185 1466 236 1466 300 
C 1466 344 1504 504 1530 605 
L 1779 1593 
L 2752 2351 
C 2938 1943 3277 1128 3539 504 
C 3558 465 3571 427 3571 383 
C 3571 191 3315 185 3258 185 
C 3200 185 3136 185 3136 64 
C 3136 0 3206 0 3226 0 
C 3450 0 3686 12 3910 12 
L 4218 12 
C 4314 12 4422 0 4518 0 
C 4557 0 4627 0 4627 121 
C 4627 185 4570 185 4506 185 
C 4269 191 4186 242 4090 472 
L 3200 2574 
z
" transform="scale(0.015625)"/>
      <path id="CMSY10-3" d="M 1760 2762 
C 1766 2853 1766 3008 1600 3008 
C 1498 3008 1414 2924 1434 2840 
L 1434 2755 
L 1523 1740 
L 704 2349 
C 646 2382 634 2395 589 2395 
C 499 2395 416 2303 416 2212 
C 416 2107 480 2081 544 2048 
L 1453 1603 
L 570 1164 
C 467 1112 416 1085 416 987 
C 416 889 499 804 589 804 
C 634 804 646 804 806 928 
L 1523 1459 
L 1427 359 
C 1427 224 1542 192 1594 192 
C 1670 192 1766 236 1766 359 
L 1670 1459 
L 2490 850 
C 2547 817 2560 804 2605 804 
C 2694 804 2778 896 2778 987 
C 2778 1085 2720 1118 2643 1157 
C 2259 1354 2246 1354 1741 1596 
L 2624 2035 
C 2726 2087 2778 2113 2778 2212 
C 2778 2310 2694 2395 2605 2395 
C 2560 2395 2547 2395 2387 2271 
L 1670 1740 
L 1760 2762 
z
" transform="scale(0.015625)"/>
      <path id="CMMI12-17" d="M 1408 2751 
C 1408 2777 1389 2816 1338 2816 
C 1293 2816 691 2758 595 2751 
C 525 2745 461 2739 461 2623 
C 461 2559 512 2559 602 2559 
C 902 2559 922 2515 922 2445 
C 922 2419 909 2343 902 2317 
L 339 64 
C 339 38 358 0 403 0 
L 538 0 
C 627 0 1600 230 2349 996 
C 3174 1845 3290 2630 3290 2655 
C 3290 2758 3206 2816 3123 2816 
C 2938 2816 2893 2643 2880 2598 
C 2502 1264 1626 472 774 192 
L 1408 2751 
z
" transform="scale(0.015625)"/>
     </defs>
     <use xlink:href="#CMMI12-42" transform="scale(0.996264)"/>
     <use xlink:href="#CMSY10-21" transform="translate(106.809532 0)scale(0.996264)"/>
     <use xlink:href="#CMMI12-4b" transform="translate(234.110215 0)scale(0.996264)"/>
     <use xlink:href="#CMSY10-3" transform="translate(324.257636 36.153639)scale(0.697382)"/>
     <use xlink:href="#CMMI12-17" transform="translate(359.624978 0)scale(0.996264)"/>
     <use xlink:href="#CMMI12-17" transform="translate(414.107771 0)scale(0.996264)"/>
    </g>
   </g>
   <g id="text_13">
    <!-- $b\overline{b}\rightarrow \mu \overline{\mu} $ -->
    <g transform="translate(304.536382 244.997482)rotate(-48)scale(0.14 -0.14)">
     <defs>
      <path id="CMMI12-16" d="M 922 140 
C 1082 -7 1318 -64 1536 -64 
C 1946 -64 2227 210 2374 408 
C 2438 70 2707 -64 2931 -64 
C 3123 -64 3277 51 3392 281 
C 3494 498 3584 887 3584 913 
C 3584 944 3558 970 3520 970 
C 3462 970 3456 938 3430 842 
C 3334 466 3213 64 2950 64 
C 2765 64 2752 229 2752 357 
C 2752 504 2810 734 2854 925 
L 3034 1615 
C 3059 1736 3130 2023 3162 2138 
C 3200 2291 3270 2566 3270 2591 
C 3270 2687 3194 2752 3098 2752 
C 3040 2752 2906 2726 2854 2534 
L 2406 759 
C 2374 632 2374 619 2291 517 
C 2214 408 1965 64 1562 64 
C 1203 64 1088 325 1088 625 
C 1088 811 1146 1034 1171 1143 
L 1459 2292 
C 1491 2413 1542 2617 1542 2656 
C 1542 2758 1459 2816 1376 2816 
C 1318 2816 1178 2796 1126 2592 
L 198 -1085 
C 192 -1116 179 -1154 179 -1191 
C 179 -1287 256 -1351 352 -1351 
C 538 -1351 576 -1204 621 -1029 
L 922 140 
z
" transform="scale(0.015625)"/>
     </defs>
     <use xlink:href="#CMMI12-62" transform="scale(0.996264)"/>
     <use xlink:href="#CMMI12-62" transform="translate(41.475874 0)scale(0.996264)"/>
     <use xlink:href="#CMSY10-21" transform="translate(110.625757 0)scale(0.996264)"/>
     <use xlink:href="#CMMI12-16" transform="translate(237.92644 0)scale(0.996264)"/>
     <use xlink:href="#CMMI12-16" transform="translate(296.617862 0)scale(0.996264)"/>
     <path d="M 41.475874 81.139772 
L 82.951748 81.139772 
L 82.951748 85.124722 
L 41.475874 85.124722 
L 41.475874 81.139772 
z
"/>
     <path d="M 296.617862 54.849612 
L 355.309283 54.849612 
L 355.309283 58.834561 
L 296.617862 58.834561 
L 296.617862 54.849612 
z
"/>
    </g>
   </g>
   <g id="text_14">
    <!-- $pp \rightarrow \mu \mu $ -->
    <g transform="translate(409.533169 230.188334)rotate(-90)scale(0.14 -0.14)">
     <defs>
      <path id="CMMI12-70" d="M 275 -794 
C 230 -981 205 -1031 -58 -1031 
C -135 -1031 -199 -1031 -199 -1152 
C -199 -1165 -192 -1216 -122 -1216 
C -39 -1216 51 -1204 134 -1204 
L 410 -1204 
C 544 -1204 870 -1216 1005 -1216 
C 1043 -1216 1120 -1216 1120 -1101 
C 1120 -1031 1075 -1031 966 -1031 
C 672 -1031 653 -987 653 -937 
C 653 -863 941 217 979 364 
C 1050 185 1222 -64 1555 -64 
C 2278 -64 3059 874 3059 1813 
C 3059 2400 2726 2816 2246 2816 
C 1837 2816 1491 2419 1421 2330 
C 1370 2649 1120 2816 864 2816 
C 678 2816 531 2726 410 2483 
C 294 2253 205 1864 205 1838 
C 205 1813 230 1781 275 1781 
C 326 1781 333 1787 371 1934 
C 467 2311 589 2687 845 2687 
C 992 2687 1043 2585 1043 2394 
C 1043 2241 1024 2177 998 2062 
L 275 -794 
z
M 1382 1992 
C 1427 2170 1606 2356 1709 2445 
C 1779 2509 1990 2687 2234 2687 
C 2515 2687 2643 2407 2643 2075 
C 2643 1768 2464 1047 2304 715 
C 2144 370 1850 64 1555 64 
C 1120 64 1050 613 1050 638 
C 1050 657 1062 708 1069 740 
L 1382 1992 
z
" transform="scale(0.015625)"/>
     </defs>
     <use xlink:href="#CMMI12-70" transform="scale(0.996264)"/>
     <use xlink:href="#CMMI12-70" transform="translate(48.959514 0)scale(0.996264)"/>
     <use xlink:href="#CMSY10-21" transform="translate(125.593037 0)scale(0.996264)"/>
     <use xlink:href="#CMMI12-16" transform="translate(252.89372 0)scale(0.996264)"/>
     <use xlink:href="#CMMI12-16" transform="translate(311.585142 0)scale(0.996264)"/>
    </g>
   </g>
   <g id="text_15">
    <!-- $C_9^{\mu \mu} = - C_{10}^{\mu \mu}$ -->
    <g style="fill: #262626" transform="translate(188.860847 35.472)scale(0.18 -0.18)">
     <defs>
      <path id="CMMI12-43" d="M 4781 4422 
C 4781 4480 4736 4480 4723 4480 
C 4710 4480 4685 4480 4634 4415 
L 4192 3881 
C 3968 4262 3616 4480 3136 4480 
C 1754 4480 320 3087 320 1594 
C 320 533 1069 -128 2003 -128 
C 2515 -128 2963 89 3334 400 
C 3891 864 4058 1480 4058 1531 
C 4058 1588 4006 1588 3987 1588 
C 3930 1588 3923 1550 3910 1524 
C 3616 533 2752 57 2112 57 
C 1434 57 845 489 845 1391 
C 845 1594 909 2699 1632 3531 
C 1984 3938 2586 4294 3194 4294 
C 3898 4294 4211 3716 4211 3068 
C 4211 2903 4192 2763 4192 2737 
C 4192 2680 4256 2680 4275 2680 
C 4346 2680 4352 2687 4378 2801 
L 4781 4422 
z
" transform="scale(0.015625)"/>
      <path id="CMR17-39" d="M 2253 1871 
C 2253 448 1670 25 1190 25 
C 1043 25 685 43 538 281 
C 704 256 826 345 826 505 
C 826 678 685 736 595 736 
C 538 736 365 710 365 492 
C 365 68 742 -128 1203 -128 
C 1939 -128 2688 665 2688 2090 
C 2688 3857 1971 4224 1485 4224 
C 851 4224 243 3664 243 2800 
C 243 2000 762 1408 1414 1408 
C 1952 1408 2189 1910 2253 2122 
L 2253 1871 
z
M 1427 1510 
C 1254 1510 1011 1542 813 1929 
C 678 2181 678 2477 678 2793 
C 678 3174 678 3438 858 3722 
C 947 3857 1114 4076 1485 4076 
C 2240 4076 2240 2909 2240 2651 
C 2240 2193 2035 1510 1427 1510 
z
" transform="scale(0.015625)"/>
     </defs>
     <use xlink:href="#CMMI12-43" transform="scale(0.996264)"/>
     <use xlink:href="#CMMI12-16" transform="translate(76.946847 47.87587)scale(0.697382)"/>
     <use xlink:href="#CMMI12-16" transform="translate(118.030652 47.87587)scale(0.697382)"/>
     <use xlink:href="#CMR17-39" transform="translate(69.792037 -26.578082)scale(0.697382)"/>
     <use xlink:href="#CMR17-3d" transform="translate(187.286597 0)scale(0.996264)"/>
     <use xlink:href="#CMSY10-0" transform="translate(286.675395 0)scale(0.996264)"/>
     <use xlink:href="#CMMI12-43" transform="translate(364.162862 0)scale(0.996264)"/>
     <use xlink:href="#CMMI12-16" transform="translate(441.109709 47.87587)scale(0.697382)"/>
     <use xlink:href="#CMMI12-16" transform="translate(482.193514 47.87587)scale(0.697382)"/>
     <use xlink:href="#CMR17-31" transform="translate(433.954899 -26.578082)scale(0.697382)"/>
     <use xlink:href="#CMR17-30" transform="translate(465.938081 -26.578082)scale(0.697382)"/>
    </g>
   </g>
   <g id="legend_1">
    <g id="patch_7">
     <path d="M 64.6 302.584 
L 134.790754 302.584 
Q 136.790754 302.584 136.790754 300.584 
L 136.790754 271.65872 
Q 136.790754 269.65872 134.790754 269.65872 
L 64.6 269.65872 
Q 62.6 269.65872 62.6 271.65872 
L 62.6 300.584 
Q 62.6 302.584 64.6 302.584 
z
" style="fill: #ffffff; opacity: 0.8; stroke: #cccccc; stroke-linejoin: miter"/>
    </g>
    <g id="patch_8">
     <path d="M 66.6 281.1307 
L 86.6 281.1307 
L 86.6 274.1307 
L 66.6 274.1307 
z
" style="fill: #a61c31; stroke: #a61c31; stroke-linejoin: miter"/>
    </g>
    <g id="text_16">
     <!-- $R_{K^*} (1 \sigma)$ -->
     <g style="fill: #262626" transform="translate(94.6 281.1307)scale(0.1 -0.1)">
      <defs>
       <path id="CMMI12-52" d="M 2355 3917 
C 2413 4153 2438 4166 2688 4166 
L 3149 4166 
C 3699 4166 4109 4000 4109 3503 
C 4109 3177 3942 2240 2656 2240 
L 1933 2240 
L 2355 3917 
z
M 3245 2163 
C 4038 2335 4659 2846 4659 3394 
C 4659 3892 4154 4352 3264 4352 
L 1530 4352 
C 1402 4352 1344 4352 1344 4230 
C 1344 4166 1389 4166 1510 4166 
C 1894 4166 1894 4115 1894 4045 
C 1894 4032 1894 3994 1869 3898 
L 1005 475 
C 947 253 934 190 493 190 
C 346 190 301 190 301 69 
C 301 6 371 6 390 6 
C 506 6 640 19 762 19 
L 1517 19 
C 1632 19 1766 6 1882 6 
C 1933 6 2003 6 2003 126 
C 2003 190 1946 190 1850 190 
C 1459 190 1459 241 1459 304 
C 1459 310 1459 355 1472 405 
L 1901 2112 
L 2669 2112 
C 3277 2112 3392 1731 3392 1522 
C 3392 1426 3328 1179 3283 1014 
C 3213 723 3194 653 3194 532 
C 3194 82 3565 -128 3994 -128 
C 4512 -128 4736 501 4736 589 
C 4736 634 4704 653 4666 653 
C 4614 653 4602 615 4589 564 
C 4435 114 4173 0 4013 0 
C 3853 0 3750 69 3750 355 
C 3750 507 3827 1084 3834 1116 
C 3866 1350 3866 1376 3866 1426 
C 3866 1889 3488 2086 3245 2163 
z
" transform="scale(0.015625)"/>
       <path id="CMR17-28" d="M 1958 -1562 
C 1958 -1556 1958 -1543 1939 -1524 
C 1645 -1223 858 -403 858 1596 
C 858 3595 1632 4408 1946 4729 
C 1946 4735 1958 4748 1958 4767 
C 1958 4787 1939 4800 1914 4800 
C 1843 4800 1299 4325 986 3620 
C 666 2909 576 2218 576 1603 
C 576 1141 621 360 1005 -467 
C 1312 -1133 1837 -1600 1914 -1600 
C 1946 -1600 1958 -1588 1958 -1562 
z
" transform="scale(0.015625)"/>
       <path id="CMMI12-1b" d="M 3251 2406 
C 3334 2406 3546 2406 3546 2611 
C 3546 2752 3424 2752 3309 2752 
L 1894 2752 
C 934 2752 243 1685 243 932 
C 243 389 595 -64 1171 -64 
C 1926 -64 2752 746 2752 1704 
C 2752 1953 2694 2195 2541 2406 
L 3251 2406 
z
M 1178 64 
C 851 64 614 312 614 753 
C 614 1136 845 2406 1786 2406 
C 2061 2406 2368 2272 2368 1780 
C 2368 1557 2266 1021 2042 651 
C 1811 274 1466 64 1178 64 
z
" transform="scale(0.015625)"/>
       <path id="CMR17-29" d="M 1683 1596 
C 1683 2057 1638 2839 1254 3665 
C 947 4332 422 4800 346 4800 
C 326 4800 301 4793 301 4761 
C 301 4748 307 4742 314 4729 
C 621 4408 1402 3595 1402 1603 
C 1402 -396 627 -1210 314 -1530 
C 307 -1543 301 -1549 301 -1562 
C 301 -1594 326 -1600 346 -1600 
C 416 -1600 960 -1127 1274 -422 
C 1594 289 1683 981 1683 1596 
z
" transform="scale(0.015625)"/>
      </defs>
      <use xlink:href="#CMMI12-52" transform="scale(0.996264)"/>
      <use xlink:href="#CMMI12-4b" transform="translate(74.250826 -14.943915)scale(0.697382)"/>
      <use xlink:href="#CMSY10-3" transform="translate(137.353728 5.202658)scale(0.498132)"/>
      <use xlink:href="#CMR17-28" transform="translate(163.256684 0)scale(0.996264)"/>
      <use xlink:href="#CMR17-31" transform="translate(198.537452 0)scale(0.996264)"/>
      <use xlink:href="#CMMI12-1b" transform="translate(244.227929 0)scale(0.996264)"/>
      <use xlink:href="#CMR17-29" transform="translate(303.247982 0)scale(0.996264)"/>
     </g>
    </g>
    <g id="patch_9">
     <path d="M 66.6 296.09334 
L 86.6 296.09334 
L 86.6 289.09334 
L 66.6 289.09334 
z
" style="fill: #77232f; stroke: #77232f; stroke-linejoin: miter"/>
    </g>
    <g id="text_17">
     <!-- $R_{K^*}  (2 \sigma)$ -->
     <g style="fill: #262626" transform="translate(94.6 296.09334)scale(0.1 -0.1)">
      <use xlink:href="#CMMI12-52" transform="scale(0.996264)"/>
      <use xlink:href="#CMMI12-4b" transform="translate(74.250826 -14.943915)scale(0.697382)"/>
      <use xlink:href="#CMSY10-3" transform="translate(137.353728 5.202658)scale(0.498132)"/>
      <use xlink:href="#CMR17-28" transform="translate(163.256684 0)scale(0.996264)"/>
      <use xlink:href="#CMR17-32" transform="translate(198.537452 0)scale(0.996264)"/>
      <use xlink:href="#CMMI12-1b" transform="translate(244.227929 0)scale(0.996264)"/>
      <use xlink:href="#CMR17-29" transform="translate(303.247982 0)scale(0.996264)"/>
     </g>
    </g>
   </g>
  </g>
 </g>
 <defs>
  <clipPath id="p1496fe9c49">
   <rect x="57.6" y="41.472" width="357.12" height="266.112"/>
  </clipPath>
 </defs>
</svg>
