<?xml version="1.0" encoding="utf-8" standalone="no"?>
<!DOCTYPE svg PUBLIC "-//W3C//DTD SVG 1.1//EN"
  "http://www.w3.org/Graphics/SVG/1.1/DTD/svg11.dtd">
<svg xmlns:xlink="http://www.w3.org/1999/xlink" width="460.8pt" height="345.6pt" viewBox="0 0 460.8 345.6" xmlns="http://www.w3.org/2000/svg" version="1.1">
 <metadata>
  <rdf:RDF xmlns:dc="http://purl.org/dc/elements/1.1/" xmlns:cc="http://creativecommons.org/ns#" xmlns:rdf="http://www.w3.org/1999/02/22-rdf-syntax-ns#">
   <cc:Work>
    <dc:type rdf:resource="http://purl.org/dc/dcmitype/StillImage"/>
    <dc:date>2023-10-30T22:41:28.515643</dc:date>
    <dc:format>image/svg+xml</dc:format>
    <dc:creator>
     <cc:Agent>
      <dc:title>Matplotlib v3.5.1, https://matplotlib.org/</dc:title>
     </cc:Agent>
    </dc:creator>
   </cc:Work>
  </rdf:RDF>
 </metadata>
 <defs>
  <style type="text/css">*{stroke-linejoin: round; stroke-linecap: butt}</style>
 </defs>
 <g id="figure_1">
  <g id="patch_1">
   <path d="M 0 345.6 
L 460.8 345.6 
L 460.8 0 
L 0 0 
z
" style="fill: #ffffff"/>
  </g>
  <g id="axes_1">
   <g id="patch_2">
    <path d="M 57.6 307.584 
L 414.72 307.584 
L 414.72 41.472 
L 57.6 41.472 
z
" style="fill: #ffffff"/>
   </g>
   <g id="matplotlib.axis_1">
    <g id="xtick_1">
     <g id="line2d_1">
      <defs>
       <path id="m928e947749" d="M 0 0 
L 0 3.5 
" style="stroke: #262626; stroke-width: 0.8"/>
      </defs>
      <g>
       <use xlink:href="#m928e947749" x="57.6" y="307.584" style="fill: #262626; stroke: #262626; stroke-width: 0.8"/>
      </g>
     </g>
     <g id="text_1">
      <!-- $\mathdefault{0.2}$ -->
      <g style="fill: #262626" transform="translate(48.874709 324.269876)scale(0.14 -0.14)">
       <defs>
        <path id="CMR17-30" d="M 2688 2038 
C 2688 2430 2682 3099 2413 3613 
C 2176 4063 1798 4224 1466 4224 
C 1158 4224 768 4082 525 3620 
C 269 3137 243 2539 243 2038 
C 243 1671 250 1112 448 623 
C 723 -39 1216 -128 1466 -128 
C 1760 -128 2208 -7 2470 604 
C 2662 1048 2688 1568 2688 2038 
z
M 1466 -26 
C 1056 -26 813 328 723 816 
C 653 1196 653 1749 653 2109 
C 653 2604 653 3015 736 3407 
C 858 3954 1216 4121 1466 4121 
C 1728 4121 2067 3947 2189 3420 
C 2272 3054 2278 2623 2278 2109 
C 2278 1691 2278 1176 2202 797 
C 2067 96 1690 -26 1466 -26 
z
" transform="scale(0.015625)"/>
        <path id="CMMI12-3a" d="M 1178 307 
C 1178 492 1024 620 870 620 
C 685 620 557 467 557 313 
C 557 128 710 0 864 0 
C 1050 0 1178 153 1178 307 
z
" transform="scale(0.015625)"/>
        <path id="CMR17-32" d="M 2669 990 
L 2554 990 
C 2490 537 2438 460 2413 422 
C 2381 371 1920 371 1830 371 
L 602 371 
C 832 620 1280 1073 1824 1596 
C 2214 1966 2669 2400 2669 3033 
C 2669 3788 2067 4224 1395 4224 
C 691 4224 262 3603 262 3027 
C 262 2777 448 2745 525 2745 
C 589 2745 781 2783 781 3007 
C 781 3206 614 3264 525 3264 
C 486 3264 448 3257 422 3244 
C 544 3788 915 4057 1306 4057 
C 1862 4057 2227 3616 2227 3033 
C 2227 2477 1901 1998 1536 1583 
L 262 147 
L 262 0 
L 2515 0 
L 2669 990 
z
" transform="scale(0.015625)"/>
       </defs>
       <use xlink:href="#CMR17-30" transform="scale(0.996264)"/>
       <use xlink:href="#CMMI12-3a" transform="translate(45.690477 0)scale(0.996264)"/>
       <use xlink:href="#CMR17-32" transform="translate(72.787654 0)scale(0.996264)"/>
      </g>
     </g>
    </g>
    <g id="xtick_2">
     <g id="line2d_2">
      <g>
       <use xlink:href="#m928e947749" x="117.12" y="307.584" style="fill: #262626; stroke: #262626; stroke-width: 0.8"/>
      </g>
     </g>
     <g id="text_2">
      <!-- $\mathdefault{0.4}$ -->
      <g style="fill: #262626" transform="translate(108.394709 324.269876)scale(0.14 -0.14)">
       <defs>
        <path id="CMR17-34" d="M 2150 4147 
C 2150 4281 2144 4288 2029 4288 
L 128 1254 
L 128 1088 
L 1779 1088 
L 1779 460 
C 1779 230 1766 166 1318 166 
L 1197 166 
L 1197 0 
C 1402 12 1747 12 1965 12 
C 2182 12 2528 12 2733 0 
L 2733 166 
L 2611 166 
C 2163 166 2150 230 2150 460 
L 2150 1088 
L 2803 1088 
L 2803 1254 
L 2150 1254 
L 2150 4147 
z
M 1798 3723 
L 1798 1254 
L 256 1254 
L 1798 3723 
z
" transform="scale(0.015625)"/>
       </defs>
       <use xlink:href="#CMR17-30" transform="scale(0.996264)"/>
       <use xlink:href="#CMMI12-3a" transform="translate(45.690477 0)scale(0.996264)"/>
       <use xlink:href="#CMR17-34" transform="translate(72.787654 0)scale(0.996264)"/>
      </g>
     </g>
    </g>
    <g id="xtick_3">
     <g id="line2d_3">
      <g>
       <use xlink:href="#m928e947749" x="176.64" y="307.584" style="fill: #262626; stroke: #262626; stroke-width: 0.8"/>
      </g>
     </g>
     <g id="text_3">
      <!-- $\mathdefault{0.6}$ -->
      <g style="fill: #262626" transform="translate(167.914709 324.269876)scale(0.14 -0.14)">
       <defs>
        <path id="CMR17-36" d="M 678 2198 
C 678 3712 1395 4076 1811 4076 
C 1946 4076 2272 4049 2400 3782 
C 2298 3782 2106 3782 2106 3558 
C 2106 3385 2246 3328 2336 3328 
C 2394 3328 2566 3353 2566 3571 
C 2566 3987 2246 4224 1805 4224 
C 1043 4224 243 3411 243 2011 
C 243 257 966 -128 1478 -128 
C 2099 -128 2688 431 2688 1295 
C 2688 2101 2170 2688 1517 2688 
C 1126 2688 838 2430 678 1979 
L 678 2198 
z
M 1478 25 
C 691 25 691 1212 691 1450 
C 691 1914 909 2585 1504 2585 
C 1613 2585 1926 2585 2138 2140 
C 2253 1889 2253 1624 2253 1302 
C 2253 954 2253 696 2118 438 
C 1978 173 1773 25 1478 25 
z
" transform="scale(0.015625)"/>
       </defs>
       <use xlink:href="#CMR17-30" transform="scale(0.996264)"/>
       <use xlink:href="#CMMI12-3a" transform="translate(45.690477 0)scale(0.996264)"/>
       <use xlink:href="#CMR17-36" transform="translate(72.787654 0)scale(0.996264)"/>
      </g>
     </g>
    </g>
    <g id="xtick_4">
     <g id="line2d_4">
      <g>
       <use xlink:href="#m928e947749" x="236.16" y="307.584" style="fill: #262626; stroke: #262626; stroke-width: 0.8"/>
      </g>
     </g>
     <g id="text_4">
      <!-- $\mathdefault{0.8}$ -->
      <g style="fill: #262626" transform="translate(227.434709 324.269876)scale(0.14 -0.14)">
       <defs>
        <path id="CMR17-38" d="M 1741 2289 
C 2144 2494 2554 2803 2554 3298 
C 2554 3884 1990 4224 1472 4224 
C 890 4224 378 3800 378 3215 
C 378 3054 416 2777 666 2533 
C 730 2469 998 2276 1171 2154 
C 883 2006 211 1652 211 945 
C 211 282 838 -128 1459 -128 
C 2144 -128 2720 366 2720 1022 
C 2720 1607 2330 1877 2074 2051 
L 1741 2289 
z
M 902 2855 
C 851 2887 595 3086 595 3388 
C 595 3781 998 4076 1459 4076 
C 1965 4076 2336 3716 2336 3298 
C 2336 2700 1670 2359 1638 2359 
C 1632 2359 1626 2359 1574 2398 
L 902 2855 
z
M 2080 1536 
C 2176 1466 2483 1253 2483 861 
C 2483 385 2010 25 1472 25 
C 890 25 448 443 448 951 
C 448 1459 838 1884 1280 2083 
L 2080 1536 
z
" transform="scale(0.015625)"/>
       </defs>
       <use xlink:href="#CMR17-30" transform="scale(0.996264)"/>
       <use xlink:href="#CMMI12-3a" transform="translate(45.690477 0)scale(0.996264)"/>
       <use xlink:href="#CMR17-38" transform="translate(72.787654 0)scale(0.996264)"/>
      </g>
     </g>
    </g>
    <g id="xtick_5">
     <g id="line2d_5">
      <g>
       <use xlink:href="#m928e947749" x="295.68" y="307.584" style="fill: #262626; stroke: #262626; stroke-width: 0.8"/>
      </g>
     </g>
     <g id="text_5">
      <!-- $\mathdefault{1.0}$ -->
      <g style="fill: #262626" transform="translate(286.954709 324.269876)scale(0.14 -0.14)">
       <defs>
        <path id="CMR17-31" d="M 1702 4083 
C 1702 4217 1696 4224 1606 4224 
C 1357 3927 979 3833 621 3820 
C 602 3820 570 3820 563 3808 
C 557 3795 557 3782 557 3648 
C 755 3648 1088 3686 1344 3839 
L 1344 467 
C 1344 243 1331 166 781 166 
L 589 166 
L 589 0 
C 896 6 1216 12 1523 12 
C 1830 12 2150 6 2458 0 
L 2458 166 
L 2266 166 
C 1715 166 1702 236 1702 467 
L 1702 4083 
z
" transform="scale(0.015625)"/>
       </defs>
       <use xlink:href="#CMR17-31" transform="scale(0.996264)"/>
       <use xlink:href="#CMMI12-3a" transform="translate(45.690477 0)scale(0.996264)"/>
       <use xlink:href="#CMR17-30" transform="translate(72.787654 0)scale(0.996264)"/>
      </g>
     </g>
    </g>
    <g id="xtick_6">
     <g id="line2d_6">
      <g>
       <use xlink:href="#m928e947749" x="355.2" y="307.584" style="fill: #262626; stroke: #262626; stroke-width: 0.8"/>
      </g>
     </g>
     <g id="text_6">
      <!-- $\mathdefault{1.2}$ -->
      <g style="fill: #262626" transform="translate(346.474709 324.269876)scale(0.14 -0.14)">
       <use xlink:href="#CMR17-31" transform="scale(0.996264)"/>
       <use xlink:href="#CMMI12-3a" transform="translate(45.690477 0)scale(0.996264)"/>
       <use xlink:href="#CMR17-32" transform="translate(72.787654 0)scale(0.996264)"/>
      </g>
     </g>
    </g>
    <g id="xtick_7">
     <g id="line2d_7">
      <g>
       <use xlink:href="#m928e947749" x="414.72" y="307.584" style="fill: #262626; stroke: #262626; stroke-width: 0.8"/>
      </g>
     </g>
     <g id="text_7">
      <!-- $\mathdefault{1.4}$ -->
      <g style="fill: #262626" transform="translate(405.994709 324.269876)scale(0.14 -0.14)">
       <use xlink:href="#CMR17-31" transform="scale(0.996264)"/>
       <use xlink:href="#CMMI12-3a" transform="translate(45.690477 0)scale(0.996264)"/>
       <use xlink:href="#CMR17-34" transform="translate(72.787654 0)scale(0.996264)"/>
      </g>
     </g>
    </g>
    <g id="text_8">
     <!-- $y_{\tau b}$ -->
     <g style="fill: #262626" transform="translate(226.890098 342.051493)scale(0.16 -0.16)">
      <defs>
       <path id="CMMI12-79" d="M 1683 -673 
C 1510 -921 1261 -1152 947 -1152 
C 870 -1152 563 -1139 467 -826 
C 486 -833 518 -833 531 -833 
C 723 -833 851 -666 851 -519 
C 851 -372 730 -320 634 -320 
C 531 -320 307 -397 307 -711 
C 307 -1050 582 -1280 947 -1280 
C 1587 -1280 2234 -673 2413 -7 
L 3040 2483 
C 3046 2515 3059 2553 3059 2591 
C 3059 2687 2982 2752 2886 2752 
C 2829 2752 2694 2726 2643 2534 
L 2170 657 
C 2138 542 2138 530 2086 459 
C 1958 281 1747 64 1440 64 
C 1082 64 1050 415 1050 587 
C 1050 951 1222 1443 1395 1902 
C 1466 2087 1504 2177 1504 2305 
C 1504 2573 1312 2816 998 2816 
C 410 2816 173 1890 173 1838 
C 173 1813 198 1781 243 1781 
C 301 1781 307 1807 333 1896 
C 486 2432 730 2687 979 2687 
C 1037 2687 1146 2687 1146 2477 
C 1146 2311 1075 2126 979 1883 
C 666 1047 666 836 666 683 
C 666 76 1101 -64 1421 -64 
C 1606 -64 1837 -7 2061 230 
L 2067 223 
C 1971 -141 1907 -359 1683 -673 
z
" transform="scale(0.015625)"/>
       <path id="CMMI12-1c" d="M 1837 2406 
L 2899 2406 
C 2982 2406 3194 2406 3194 2611 
C 3194 2752 3072 2752 2957 2752 
L 1197 2752 
C 1050 2752 832 2752 538 2438 
C 371 2253 166 1916 166 1878 
C 166 1839 198 1827 237 1827 
C 282 1827 288 1846 320 1884 
C 653 2406 986 2406 1146 2406 
L 1677 2406 
L 1011 223 
C 979 127 979 114 979 95 
C 979 25 1024 -64 1152 -64 
C 1350 -64 1382 108 1402 204 
L 1837 2406 
z
" transform="scale(0.015625)"/>
       <path id="CMMI12-62" d="M 1478 4255 
C 1485 4281 1498 4319 1498 4351 
C 1498 4416 1434 4416 1421 4416 
C 1414 4416 1184 4396 1069 4383 
C 960 4377 864 4364 749 4358 
C 595 4345 550 4339 550 4223 
C 550 4159 614 4159 678 4159 
C 1005 4159 1005 4103 1005 4040 
C 1005 3995 954 3812 928 3699 
L 774 3093 
C 710 2841 346 1392 320 1277 
C 288 1117 288 1008 288 925 
C 288 274 653 -64 1069 -64 
C 1811 -64 2579 887 2579 1813 
C 2579 2400 2246 2816 1766 2816 
C 1434 2816 1133 2541 1011 2413 
L 1478 4255 
z
M 1075 64 
C 870 64 646 217 646 715 
C 646 925 666 1047 781 1494 
C 800 1577 902 1985 928 2068 
C 941 2119 1318 2687 1754 2687 
C 2035 2687 2163 2407 2163 2075 
C 2163 1768 1984 1047 1824 715 
C 1664 370 1370 64 1075 64 
z
" transform="scale(0.015625)"/>
      </defs>
      <use xlink:href="#CMMI12-79" transform="scale(0.996264)"/>
      <use xlink:href="#CMMI12-1c" transform="translate(47.564188 -14.943915)scale(0.697382)"/>
      <use xlink:href="#CMMI12-62" transform="translate(85.007835 -14.943915)scale(0.697382)"/>
     </g>
    </g>
   </g>
   <g id="matplotlib.axis_2">
    <g id="ytick_1">
     <g id="line2d_8">
      <defs>
       <path id="m73ebea2be3" d="M 0 0 
L -3.5 0 
" style="stroke: #262626; stroke-width: 0.8"/>
      </defs>
      <g>
       <use xlink:href="#m73ebea2be3" x="57.6" y="307.584" style="fill: #262626; stroke: #262626; stroke-width: 0.8"/>
      </g>
     </g>
     <g id="text_9">
      <!-- $\mathdefault{0.2}$ -->
      <g style="fill: #262626" transform="translate(33.149418 312.426938)scale(0.14 -0.14)">
       <use xlink:href="#CMR17-30" transform="scale(0.996264)"/>
       <use xlink:href="#CMMI12-3a" transform="translate(45.690477 0)scale(0.996264)"/>
       <use xlink:href="#CMR17-32" transform="translate(72.787654 0)scale(0.996264)"/>
      </g>
     </g>
    </g>
    <g id="ytick_2">
     <g id="line2d_9">
      <g>
       <use xlink:href="#m73ebea2be3" x="57.6" y="269.568" style="fill: #262626; stroke: #262626; stroke-width: 0.8"/>
      </g>
     </g>
     <g id="text_10">
      <!-- $\mathdefault{0.4}$ -->
      <g style="fill: #262626" transform="translate(33.149418 274.410938)scale(0.14 -0.14)">
       <use xlink:href="#CMR17-30" transform="scale(0.996264)"/>
       <use xlink:href="#CMMI12-3a" transform="translate(45.690477 0)scale(0.996264)"/>
       <use xlink:href="#CMR17-34" transform="translate(72.787654 0)scale(0.996264)"/>
      </g>
     </g>
    </g>
    <g id="ytick_3">
     <g id="line2d_10">
      <g>
       <use xlink:href="#m73ebea2be3" x="57.6" y="231.552" style="fill: #262626; stroke: #262626; stroke-width: 0.8"/>
      </g>
     </g>
     <g id="text_11">
      <!-- $\mathdefault{0.6}$ -->
      <g style="fill: #262626" transform="translate(33.149418 236.394938)scale(0.14 -0.14)">
       <use xlink:href="#CMR17-30" transform="scale(0.996264)"/>
       <use xlink:href="#CMMI12-3a" transform="translate(45.690477 0)scale(0.996264)"/>
       <use xlink:href="#CMR17-36" transform="translate(72.787654 0)scale(0.996264)"/>
      </g>
     </g>
    </g>
    <g id="ytick_4">
     <g id="line2d_11">
      <g>
       <use xlink:href="#m73ebea2be3" x="57.6" y="193.536" style="fill: #262626; stroke: #262626; stroke-width: 0.8"/>
      </g>
     </g>
     <g id="text_12">
      <!-- $\mathdefault{0.8}$ -->
      <g style="fill: #262626" transform="translate(33.149418 198.378938)scale(0.14 -0.14)">
       <use xlink:href="#CMR17-30" transform="scale(0.996264)"/>
       <use xlink:href="#CMMI12-3a" transform="translate(45.690477 0)scale(0.996264)"/>
       <use xlink:href="#CMR17-38" transform="translate(72.787654 0)scale(0.996264)"/>
      </g>
     </g>
    </g>
    <g id="ytick_5">
     <g id="line2d_12">
      <g>
       <use xlink:href="#m73ebea2be3" x="57.6" y="155.52" style="fill: #262626; stroke: #262626; stroke-width: 0.8"/>
      </g>
     </g>
     <g id="text_13">
      <!-- $\mathdefault{1.0}$ -->
      <g style="fill: #262626" transform="translate(33.149418 160.362938)scale(0.14 -0.14)">
       <use xlink:href="#CMR17-31" transform="scale(0.996264)"/>
       <use xlink:href="#CMMI12-3a" transform="translate(45.690477 0)scale(0.996264)"/>
       <use xlink:href="#CMR17-30" transform="translate(72.787654 0)scale(0.996264)"/>
      </g>
     </g>
    </g>
    <g id="ytick_6">
     <g id="line2d_13">
      <g>
       <use xlink:href="#m73ebea2be3" x="57.6" y="117.504" style="fill: #262626; stroke: #262626; stroke-width: 0.8"/>
      </g>
     </g>
     <g id="text_14">
      <!-- $\mathdefault{1.2}$ -->
      <g style="fill: #262626" transform="translate(33.149418 122.346938)scale(0.14 -0.14)">
       <use xlink:href="#CMR17-31" transform="scale(0.996264)"/>
       <use xlink:href="#CMMI12-3a" transform="translate(45.690477 0)scale(0.996264)"/>
       <use xlink:href="#CMR17-32" transform="translate(72.787654 0)scale(0.996264)"/>
      </g>
     </g>
    </g>
    <g id="ytick_7">
     <g id="line2d_14">
      <g>
       <use xlink:href="#m73ebea2be3" x="57.6" y="79.488" style="fill: #262626; stroke: #262626; stroke-width: 0.8"/>
      </g>
     </g>
     <g id="text_15">
      <!-- $\mathdefault{1.4}$ -->
      <g style="fill: #262626" transform="translate(33.149418 84.330938)scale(0.14 -0.14)">
       <use xlink:href="#CMR17-31" transform="scale(0.996264)"/>
       <use xlink:href="#CMMI12-3a" transform="translate(45.690477 0)scale(0.996264)"/>
       <use xlink:href="#CMR17-34" transform="translate(72.787654 0)scale(0.996264)"/>
      </g>
     </g>
    </g>
    <g id="ytick_8">
     <g id="line2d_15">
      <g>
       <use xlink:href="#m73ebea2be3" x="57.6" y="41.472" style="fill: #262626; stroke: #262626; stroke-width: 0.8"/>
      </g>
     </g>
     <g id="text_16">
      <!-- $\mathdefault{1.6}$ -->
      <g style="fill: #262626" transform="translate(33.149418 46.314938)scale(0.14 -0.14)">
       <use xlink:href="#CMR17-31" transform="scale(0.996264)"/>
       <use xlink:href="#CMMI12-3a" transform="translate(45.690477 0)scale(0.996264)"/>
       <use xlink:href="#CMR17-36" transform="translate(72.787654 0)scale(0.996264)"/>
      </g>
     </g>
    </g>
    <g id="text_17">
     <!-- $y'_c$ -->
     <g style="fill: #262626" transform="translate(25.208721 180.747505)rotate(-90)scale(0.16 -0.16)">
      <defs>
       <path id="CMSY10-30" d="M 1619 3048 
C 1651 3125 1677 3182 1677 3246 
C 1677 3430 1510 3584 1312 3584 
C 1133 3584 1018 3462 973 3297 
L 211 517 
C 211 505 186 435 186 428 
C 186 358 352 313 403 313 
C 442 313 448 332 486 415 
L 1619 3048 
z
" transform="scale(0.015625)"/>
       <path id="CMMI12-63" d="M 2502 2432 
C 2381 2432 2323 2432 2234 2355 
C 2195 2323 2125 2227 2125 2124 
C 2125 1996 2221 1919 2342 1919 
C 2496 1919 2669 2047 2669 2303 
C 2669 2591 2374 2816 1933 2816 
C 1094 2816 256 1932 256 1011 
C 256 446 602 -64 1254 -64 
C 2125 -64 2675 622 2675 706 
C 2675 745 2637 777 2611 777 
C 2592 777 2586 771 2528 712 
C 2118 161 1510 64 1267 64 
C 826 64 685 453 685 777 
C 685 1004 794 1634 1024 2073 
C 1190 2374 1536 2687 1939 2687 
C 2022 2687 2374 2676 2502 2432 
z
" transform="scale(0.015625)"/>
      </defs>
      <use xlink:href="#CMMI12-79" transform="scale(0.996264)"/>
      <use xlink:href="#CMSY10-30" transform="translate(51.138781 36.153639)scale(0.697382)"/>
      <use xlink:href="#CMMI12-63" transform="translate(47.564188 -24.62935)scale(0.697382)"/>
     </g>
    </g>
   </g>
   <g id="PolyCollection_1">
    <path d="M 57.6 -39.927252 
L 57.6 165.687282 
L 61.808485 177.568311 
L 66.01697 187.977354 
L 70.225455 197.172008 
L 74.433939 205.353078 
L 78.642424 212.67941 
L 82.850909 219.278305 
L 87.059394 225.252979 
L 91.267879 230.688006 
L 95.476364 235.653339 
L 99.684848 240.207343 
L 103.893333 244.399096 
L 108.101818 248.270169 
L 112.310303 251.856005 
L 116.518788 255.18701 
L 120.727273 258.289416 
L 124.935758 261.185976 
L 129.144242 263.896518 
L 133.352727 266.438404 
L 137.561212 268.826901 
L 141.769697 271.075485 
L 145.978182 273.196101 
L 150.186667 275.199371 
L 154.395152 277.094773 
L 158.603636 278.89079 
L 162.812121 280.59504 
L 167.020606 282.214381 
L 171.229091 283.755003 
L 175.437576 285.222512 
L 179.646061 286.62199 
L 183.854545 287.958061 
L 188.06303 289.23494 
L 192.271515 290.456474 
L 196.48 291.626185 
L 200.688485 292.747303 
L 204.89697 293.822793 
L 209.105455 294.855387 
L 213.313939 295.8476 
L 217.522424 296.801756 
L 221.730909 297.720003 
L 225.939394 298.60433 
L 230.147879 299.456583 
L 234.356364 300.278476 
L 238.564848 301.071602 
L 242.773333 301.837447 
L 246.981818 302.577394 
L 251.190303 303.292734 
L 255.398788 303.984675 
L 259.607273 304.654347 
L 263.815758 305.302808 
L 268.024242 305.931049 
L 272.232727 306.540002 
L 276.441212 307.130542 
L 280.649697 307.703491 
L 284.858182 308.259625 
L 289.066667 308.799671 
L 293.275152 309.32432 
L 297.483636 309.834219 
L 301.692121 310.329982 
L 305.900606 310.812189 
L 310.109091 311.281389 
L 314.317576 311.738101 
L 318.526061 312.182816 
L 322.734545 312.616002 
L 326.94303 313.0381 
L 331.151515 313.449532 
L 335.36 313.850697 
L 339.568485 314.241973 
L 343.77697 314.623723 
L 347.985455 314.99629 
L 352.193939 315.360002 
L 356.402424 315.715169 
L 360.610909 316.062091 
L 364.819394 316.401051 
L 369.027879 316.732319 
L 373.236364 317.056155 
L 377.444848 317.372807 
L 381.653333 317.682509 
L 385.861818 317.98549 
L 390.070303 318.281965 
L 394.278788 318.572141 
L 398.487273 318.856218 
L 402.695758 319.134385 
L 406.904242 319.406825 
L 411.112727 319.673713 
L 415.321212 319.935218 
L 419.529697 320.191499 
L 423.738182 320.442713 
L 427.946667 320.689008 
L 432.155152 320.930528 
L 436.363636 321.167409 
L 440.572121 321.399784 
L 444.780606 321.627781 
L 448.989091 321.851521 
L 453.197576 322.071124 
L 457.406061 322.286703 
L 461.614545 322.498367 
L 465.82303 322.706222 
L 470.031515 322.910371 
L 474.24 323.11091 
L 474.24 297.409093 
L 474.24 297.409093 
L 470.031515 296.979366 
L 465.82303 296.541905 
L 461.614545 296.096501 
L 457.406061 295.642935 
L 453.197576 295.18098 
L 448.989091 294.710403 
L 444.780606 294.230958 
L 440.572121 293.742394 
L 436.363636 293.244447 
L 432.155152 292.736845 
L 427.946667 292.219304 
L 423.738182 291.691528 
L 419.529697 291.153213 
L 415.321212 290.604038 
L 411.112727 290.043671 
L 406.904242 289.471768 
L 402.695758 288.887967 
L 398.487273 288.291895 
L 394.278788 287.683159 
L 390.070303 287.061353 
L 385.861818 286.42605 
L 381.653333 285.776806 
L 377.444848 285.113157 
L 373.236364 284.434619 
L 369.027879 283.740684 
L 364.819394 283.030823 
L 360.610909 282.304481 
L 356.402424 281.561077 
L 352.193939 280.800003 
L 347.985455 280.020622 
L 343.77697 279.222264 
L 339.568485 278.404229 
L 335.36 277.565779 
L 331.151515 276.706141 
L 326.94303 275.824501 
L 322.734545 274.920004 
L 318.526061 273.991749 
L 314.317576 273.038787 
L 310.109091 272.06012 
L 305.900606 271.054691 
L 301.692121 270.02139 
L 297.483636 268.95904 
L 293.275152 267.866399 
L 289.066667 266.742153 
L 284.858182 265.58491 
L 280.649697 264.393196 
L 276.441212 263.165447 
L 272.232727 261.900004 
L 268.024242 260.595105 
L 263.815758 259.248873 
L 259.607273 257.859315 
L 255.398788 256.424304 
L 251.190303 254.941573 
L 246.981818 253.408701 
L 242.773333 251.823101 
L 238.564848 250.182005 
L 234.356364 248.482448 
L 230.147879 246.721249 
L 225.939394 244.894992 
L 221.730909 243.000005 
L 217.522424 241.032334 
L 213.313939 238.987715 
L 209.105455 236.861544 
L 204.89697 234.648843 
L 200.688485 232.34422 
L 196.48 229.941824 
L 192.271515 227.4353 
L 188.06303 224.817728 
L 183.854545 222.08156 
L 179.646061 219.21855 
L 175.437576 216.219668 
L 171.229091 213.075007 
L 167.020606 209.773673 
L 162.812121 206.303657 
L 158.603636 202.651693 
L 154.395152 198.803085 
L 150.186667 194.74151 
L 145.978182 190.448789 
L 141.769697 185.904611 
L 137.561212 181.086216 
L 133.352727 175.968009 
L 129.144242 170.52111 
L 124.935758 164.712806 
L 120.727273 158.505892 
L 116.518788 151.857878 
L 112.310303 144.720011 
L 108.101818 137.036077 
L 103.893333 128.740921 
L 99.684848 119.758592 
L 95.476364 110.000013 
L 91.267879 99.360013 
L 87.059394 87.713527 
L 82.850909 74.910653 
L 78.642424 60.770164 
L 74.433939 45.070882 
L 70.225455 27.540017 
L 66.01697 7.837186 
L 61.808485 -14.467905 
L 57.6 -39.927252 
z
" clip-path="url(#p2a65ffe228)" style="fill: #466b3f; stroke: #466b3f"/>
   </g>
   <g id="PolyCollection_2">
    <defs>
     <path id="m12c111edaf" d="M 57.6 -334.123619 
L 57.6 -231.316351 
L 61.808485 -216.040743 
L 66.01697 -202.657688 
L 70.225455 -190.83599 
L 74.433939 -180.317471 
L 78.642424 -170.897901 
L 82.850909 -162.413608 
L 87.059394 -154.731884 
L 91.267879 -147.743992 
L 95.476364 -141.359992 
L 99.684848 -135.504845 
L 103.893333 -130.115448 
L 108.101818 -125.138354 
L 112.310303 -120.527994 
L 116.518788 -116.245273 
L 120.727273 -112.256465 
L 124.935758 -108.532317 
L 129.144242 -105.047334 
L 133.352727 -101.779195 
L 137.561212 -98.708271 
L 141.769697 -95.817233 
L 145.978182 -93.090727 
L 150.186667 -90.515094 
L 154.395152 -88.078149 
L 158.603636 -85.768984 
L 162.812121 -83.577806 
L 167.020606 -81.495796 
L 171.229091 -79.514996 
L 175.437576 -77.628199 
L 179.646061 -75.82887 
L 183.854545 -74.111064 
L 188.06303 -72.469363 
L 192.271515 -70.89882 
L 196.48 -69.394905 
L 200.688485 -67.953468 
L 204.89697 -66.570694 
L 209.105455 -65.243073 
L 213.313939 -63.967371 
L 217.522424 -62.740599 
L 221.730909 -61.559997 
L 225.939394 -60.423005 
L 230.147879 -59.327251 
L 234.356364 -58.270531 
L 238.564848 -57.250797 
L 242.773333 -56.26614 
L 246.981818 -55.31478 
L 251.190303 -54.395056 
L 255.398788 -53.505418 
L 259.607273 -52.644411 
L 263.815758 -51.810676 
L 268.024242 -51.002937 
L 272.232727 -50.219997 
L 276.441212 -49.460732 
L 280.649697 -48.724083 
L 284.858182 -48.009054 
L 289.066667 -47.314708 
L 293.275152 -46.64016 
L 297.483636 -45.984576 
L 301.692121 -45.347166 
L 305.900606 -44.727185 
L 310.109091 -44.123928 
L 314.317576 -43.536728 
L 318.526061 -42.964951 
L 322.734545 -42.407998 
L 326.94303 -41.865299 
L 331.151515 -41.336315 
L 335.36 -40.820533 
L 339.568485 -40.317463 
L 343.77697 -39.826641 
L 347.985455 -39.347627 
L 352.193939 -38.879998 
L 356.402424 -38.423354 
L 360.610909 -37.977311 
L 364.819394 -37.541506 
L 369.027879 -37.11559 
L 373.236364 -36.699229 
L 377.444848 -36.292106 
L 381.653333 -35.893917 
L 385.861818 -35.50437 
L 390.070303 -35.123188 
L 394.278788 -34.750104 
L 398.487273 -34.384863 
L 402.695758 -34.02722 
L 406.904242 -33.676939 
L 411.112727 -33.333797 
L 415.321212 -32.997577 
L 419.529697 -32.668072 
L 423.738182 -32.345083 
L 427.946667 -32.028418 
L 432.155152 -31.717893 
L 436.363636 -31.413332 
L 440.572121 -31.114564 
L 444.780606 -30.821425 
L 448.989091 -30.533758 
L 453.197576 -30.251412 
L 457.406061 -29.974239 
L 461.614545 -29.7021 
L 465.82303 -29.434857 
L 470.031515 -29.172381 
L 474.24 -28.914544 
L 474.24 -41.765452 
L 474.24 -41.765452 
L 470.031515 -42.137883 
L 465.82303 -42.517016 
L 461.614545 -42.903033 
L 457.406061 -43.296123 
L 453.197576 -43.696484 
L 448.989091 -44.104318 
L 444.780606 -44.519836 
L 440.572121 -44.943258 
L 436.363636 -45.374812 
L 432.155152 -45.814734 
L 427.946667 -46.26327 
L 423.738182 -46.720675 
L 419.529697 -47.187216 
L 415.321212 -47.663167 
L 411.112727 -48.148818 
L 406.904242 -48.644468 
L 402.695758 -49.150428 
L 398.487273 -49.667024 
L 394.278788 -50.194595 
L 390.070303 -50.733494 
L 385.861818 -51.28409 
L 381.653333 -51.846768 
L 377.444848 -52.421931 
L 373.236364 -53.009997 
L 369.027879 -53.611407 
L 364.819394 -54.22662 
L 360.610909 -54.856116 
L 356.402424 -55.5004 
L 352.193939 -56.159997 
L 347.985455 -56.835461 
L 343.77697 -57.527371 
L 339.568485 -58.236335 
L 335.36 -58.962992 
L 331.151515 -59.708011 
L 326.94303 -60.472099 
L 322.734545 -61.255997 
L 318.526061 -62.060485 
L 314.317576 -62.886384 
L 310.109091 -63.734563 
L 305.900606 -64.605934 
L 301.692121 -65.501462 
L 297.483636 -66.422165 
L 293.275152 -67.369121 
L 289.066667 -68.343467 
L 284.858182 -69.346411 
L 280.649697 -70.37923 
L 276.441212 -71.443279 
L 272.232727 -72.539996 
L 268.024242 -73.670909 
L 263.815758 -74.837643 
L 259.607273 -76.041927 
L 255.398788 -77.285603 
L 251.190303 -78.570637 
L 246.981818 -79.899126 
L 242.773333 -81.273313 
L 238.564848 -82.695596 
L 234.356364 -84.168545 
L 230.147879 -85.694918 
L 225.939394 -87.277673 
L 221.730909 -88.919995 
L 217.522424 -90.62531 
L 213.313939 -92.397314 
L 209.105455 -94.239995 
L 204.89697 -96.157669 
L 200.688485 -98.15501 
L 196.48 -100.237086 
L 192.271515 -102.409406 
L 188.06303 -104.677969 
L 183.854545 -107.049315 
L 179.646061 -109.53059 
L 175.437576 -112.129621 
L 171.229091 -114.854994 
L 167.020606 -117.71615 
L 162.812121 -120.723497 
L 158.603636 -123.888533 
L 154.395152 -127.223993 
L 150.186667 -130.744025 
L 145.978182 -134.464383 
L 141.769697 -138.40267 
L 137.561212 -142.578613 
L 133.352727 -147.014392 
L 129.144242 -151.735038 
L 124.935758 -156.768902 
L 120.727273 -162.148227 
L 116.518788 -167.909839 
L 112.310303 -174.095991 
L 108.101818 -180.7554 
L 103.893333 -187.944535 
L 99.684848 -195.72922 
L 95.476364 -204.186656 
L 91.267879 -213.407989 
L 87.059394 -223.50161 
L 82.850909 -234.597434 
L 78.642424 -246.852524 
L 74.433939 -260.458569 
L 70.225455 -275.651985 
L 66.01697 -292.727772 
L 61.808485 -312.058851 
L 57.6 -334.123619 
z
" style="stroke: #94b43b"/>
    </defs>
    <g clip-path="url(#p2a65ffe228)">
     <use xlink:href="#m12c111edaf" x="0" y="345.6" style="fill: #94b43b; stroke: #94b43b"/>
    </g>
   </g>
   <g id="PolyCollection_3">
    <defs>
     <path id="m20dc1dcbb2" d="M 57.6 -304.128 
L 57.6 -190.08 
L 61.808485 -190.08 
L 66.01697 -190.08 
L 70.225455 -190.08 
L 74.433939 -190.08 
L 78.642424 -190.08 
L 82.850909 -190.08 
L 87.059394 -190.08 
L 91.267879 -190.08 
L 95.476364 -190.08 
L 99.684848 -190.08 
L 103.893333 -190.08 
L 108.101818 -190.08 
L 112.310303 -190.08 
L 116.518788 -190.08 
L 120.727273 -190.08 
L 124.935758 -190.08 
L 129.144242 -190.08 
L 133.352727 -190.08 
L 137.561212 -190.08 
L 141.769697 -190.08 
L 145.978182 -190.08 
L 150.186667 -190.08 
L 154.395152 -190.08 
L 158.603636 -190.08 
L 162.812121 -190.08 
L 167.020606 -190.08 
L 171.229091 -190.08 
L 175.437576 -190.08 
L 179.646061 -190.08 
L 183.854545 -190.08 
L 188.06303 -190.08 
L 192.271515 -190.08 
L 196.48 -190.08 
L 200.688485 -190.08 
L 204.89697 -190.08 
L 209.105455 -190.08 
L 213.313939 -190.08 
L 217.522424 -190.08 
L 221.730909 -190.08 
L 225.939394 -190.08 
L 230.147879 -190.08 
L 234.356364 -190.08 
L 238.564848 -190.08 
L 242.773333 -190.08 
L 246.981818 -190.08 
L 251.190303 -190.08 
L 255.398788 -190.08 
L 259.607273 -190.08 
L 263.815758 -190.08 
L 268.024242 -190.08 
L 272.232727 -190.08 
L 276.441212 -190.08 
L 280.649697 -190.08 
L 284.858182 -190.08 
L 289.066667 -190.08 
L 293.275152 -190.08 
L 297.483636 -190.08 
L 301.692121 -190.08 
L 305.900606 -190.08 
L 310.109091 -190.08 
L 314.317576 -190.08 
L 318.526061 -190.08 
L 322.734545 -190.08 
L 326.94303 -190.08 
L 331.151515 -190.08 
L 335.36 -190.08 
L 339.568485 -190.08 
L 343.77697 -190.08 
L 347.985455 -190.08 
L 352.193939 -190.08 
L 356.402424 -190.08 
L 360.610909 -190.08 
L 364.819394 -190.08 
L 369.027879 -190.08 
L 373.236364 -190.08 
L 377.444848 -190.08 
L 381.653333 -190.08 
L 385.861818 -190.08 
L 390.070303 -190.08 
L 394.278788 -190.08 
L 398.487273 -190.08 
L 402.695758 -190.08 
L 406.904242 -190.08 
L 411.112727 -190.08 
L 415.321212 -190.08 
L 419.529697 -190.08 
L 423.738182 -190.08 
L 427.946667 -190.08 
L 432.155152 -190.08 
L 436.363636 -190.08 
L 440.572121 -190.08 
L 444.780606 -190.08 
L 448.989091 -190.08 
L 453.197576 -190.08 
L 457.406061 -190.08 
L 461.614545 -190.08 
L 465.82303 -190.08 
L 470.031515 -190.08 
L 474.24 -190.08 
L 474.24 -304.128 
L 474.24 -304.128 
L 470.031515 -304.128 
L 465.82303 -304.128 
L 461.614545 -304.128 
L 457.406061 -304.128 
L 453.197576 -304.128 
L 448.989091 -304.128 
L 444.780606 -304.128 
L 440.572121 -304.128 
L 436.363636 -304.128 
L 432.155152 -304.128 
L 427.946667 -304.128 
L 423.738182 -304.128 
L 419.529697 -304.128 
L 415.321212 -304.128 
L 411.112727 -304.128 
L 406.904242 -304.128 
L 402.695758 -304.128 
L 398.487273 -304.128 
L 394.278788 -304.128 
L 390.070303 -304.128 
L 385.861818 -304.128 
L 381.653333 -304.128 
L 377.444848 -304.128 
L 373.236364 -304.128 
L 369.027879 -304.128 
L 364.819394 -304.128 
L 360.610909 -304.128 
L 356.402424 -304.128 
L 352.193939 -304.128 
L 347.985455 -304.128 
L 343.77697 -304.128 
L 339.568485 -304.128 
L 335.36 -304.128 
L 331.151515 -304.128 
L 326.94303 -304.128 
L 322.734545 -304.128 
L 318.526061 -304.128 
L 314.317576 -304.128 
L 310.109091 -304.128 
L 305.900606 -304.128 
L 301.692121 -304.128 
L 297.483636 -304.128 
L 293.275152 -304.128 
L 289.066667 -304.128 
L 284.858182 -304.128 
L 280.649697 -304.128 
L 276.441212 -304.128 
L 272.232727 -304.128 
L 268.024242 -304.128 
L 263.815758 -304.128 
L 259.607273 -304.128 
L 255.398788 -304.128 
L 251.190303 -304.128 
L 246.981818 -304.128 
L 242.773333 -304.128 
L 238.564848 -304.128 
L 234.356364 -304.128 
L 230.147879 -304.128 
L 225.939394 -304.128 
L 221.730909 -304.128 
L 217.522424 -304.128 
L 213.313939 -304.128 
L 209.105455 -304.128 
L 204.89697 -304.128 
L 200.688485 -304.128 
L 196.48 -304.128 
L 192.271515 -304.128 
L 188.06303 -304.128 
L 183.854545 -304.128 
L 179.646061 -304.128 
L 175.437576 -304.128 
L 171.229091 -304.128 
L 167.020606 -304.128 
L 162.812121 -304.128 
L 158.603636 -304.128 
L 154.395152 -304.128 
L 150.186667 -304.128 
L 145.978182 -304.128 
L 141.769697 -304.128 
L 137.561212 -304.128 
L 133.352727 -304.128 
L 129.144242 -304.128 
L 124.935758 -304.128 
L 120.727273 -304.128 
L 116.518788 -304.128 
L 112.310303 -304.128 
L 108.101818 -304.128 
L 103.893333 -304.128 
L 99.684848 -304.128 
L 95.476364 -304.128 
L 91.267879 -304.128 
L 87.059394 -304.128 
L 82.850909 -304.128 
L 78.642424 -304.128 
L 74.433939 -304.128 
L 70.225455 -304.128 
L 66.01697 -304.128 
L 61.808485 -304.128 
L 57.6 -304.128 
z
" style="stroke: #565a5c; stroke-opacity: 0.5"/>
    </defs>
    <g clip-path="url(#p2a65ffe228)">
     <use xlink:href="#m20dc1dcbb2" x="0" y="345.6" style="fill: #565a5c; fill-opacity: 0.5; stroke: #565a5c; stroke-opacity: 0.5"/>
    </g>
   </g>
   <g id="PolyCollection_4">
    <defs>
     <path id="m8c48800a78" d="M 474.24 -38.016 
L 355.2 -38.016 
L 355.2 -40.704 
L 355.2 -43.392 
L 355.2 -46.08 
L 355.2 -48.768 
L 355.2 -51.456 
L 355.2 -54.144 
L 355.2 -56.832 
L 355.2 -59.52 
L 355.2 -62.208 
L 355.2 -64.896 
L 355.2 -67.584 
L 355.2 -70.272 
L 355.2 -72.96 
L 355.2 -75.648 
L 355.2 -78.336 
L 355.2 -81.024 
L 355.2 -83.712 
L 355.2 -86.4 
L 355.2 -89.088 
L 355.2 -91.776 
L 355.2 -94.464 
L 355.2 -97.152 
L 355.2 -99.84 
L 355.2 -102.528 
L 355.2 -105.216 
L 355.2 -107.904 
L 355.2 -110.592 
L 355.2 -113.28 
L 355.2 -115.968 
L 355.2 -118.656 
L 355.2 -121.344 
L 355.2 -124.032 
L 355.2 -126.72 
L 355.2 -129.408 
L 355.2 -132.096 
L 355.2 -134.784 
L 355.2 -137.472 
L 355.2 -140.16 
L 355.2 -142.848 
L 355.2 -145.536 
L 355.2 -148.224 
L 355.2 -150.912 
L 355.2 -153.6 
L 355.2 -156.288 
L 355.2 -158.976 
L 355.2 -161.664 
L 355.2 -164.352 
L 355.2 -167.04 
L 355.2 -169.728 
L 355.2 -172.416 
L 355.2 -175.104 
L 355.2 -177.792 
L 355.2 -180.48 
L 355.2 -183.168 
L 355.2 -185.856 
L 355.2 -188.544 
L 355.2 -191.232 
L 355.2 -193.92 
L 355.2 -196.608 
L 355.2 -199.296 
L 355.2 -201.984 
L 355.2 -204.672 
L 355.2 -207.36 
L 355.2 -210.048 
L 355.2 -212.736 
L 355.2 -215.424 
L 355.2 -218.112 
L 355.2 -220.8 
L 355.2 -223.488 
L 355.2 -226.176 
L 355.2 -228.864 
L 355.2 -231.552 
L 355.2 -234.24 
L 355.2 -236.928 
L 355.2 -239.616 
L 355.2 -242.304 
L 355.2 -244.992 
L 355.2 -247.68 
L 355.2 -250.368 
L 355.2 -253.056 
L 355.2 -255.744 
L 355.2 -258.432 
L 355.2 -261.12 
L 355.2 -263.808 
L 355.2 -266.496 
L 355.2 -269.184 
L 355.2 -271.872 
L 355.2 -274.56 
L 355.2 -277.248 
L 355.2 -279.936 
L 355.2 -282.624 
L 355.2 -285.312 
L 355.2 -288 
L 355.2 -290.688 
L 355.2 -293.376 
L 355.2 -296.064 
L 355.2 -298.752 
L 355.2 -301.44 
L 355.2 -304.128 
L 474.24 -304.128 
L 474.24 -304.128 
L 474.24 -301.44 
L 474.24 -298.752 
L 474.24 -296.064 
L 474.24 -293.376 
L 474.24 -290.688 
L 474.24 -288 
L 474.24 -285.312 
L 474.24 -282.624 
L 474.24 -279.936 
L 474.24 -277.248 
L 474.24 -274.56 
L 474.24 -271.872 
L 474.24 -269.184 
L 474.24 -266.496 
L 474.24 -263.808 
L 474.24 -261.12 
L 474.24 -258.432 
L 474.24 -255.744 
L 474.24 -253.056 
L 474.24 -250.368 
L 474.24 -247.68 
L 474.24 -244.992 
L 474.24 -242.304 
L 474.24 -239.616 
L 474.24 -236.928 
L 474.24 -234.24 
L 474.24 -231.552 
L 474.24 -228.864 
L 474.24 -226.176 
L 474.24 -223.488 
L 474.24 -220.8 
L 474.24 -218.112 
L 474.24 -215.424 
L 474.24 -212.736 
L 474.24 -210.048 
L 474.24 -207.36 
L 474.24 -204.672 
L 474.24 -201.984 
L 474.24 -199.296 
L 474.24 -196.608 
L 474.24 -193.92 
L 474.24 -191.232 
L 474.24 -188.544 
L 474.24 -185.856 
L 474.24 -183.168 
L 474.24 -180.48 
L 474.24 -177.792 
L 474.24 -175.104 
L 474.24 -172.416 
L 474.24 -169.728 
L 474.24 -167.04 
L 474.24 -164.352 
L 474.24 -161.664 
L 474.24 -158.976 
L 474.24 -156.288 
L 474.24 -153.6 
L 474.24 -150.912 
L 474.24 -148.224 
L 474.24 -145.536 
L 474.24 -142.848 
L 474.24 -140.16 
L 474.24 -137.472 
L 474.24 -134.784 
L 474.24 -132.096 
L 474.24 -129.408 
L 474.24 -126.72 
L 474.24 -124.032 
L 474.24 -121.344 
L 474.24 -118.656 
L 474.24 -115.968 
L 474.24 -113.28 
L 474.24 -110.592 
L 474.24 -107.904 
L 474.24 -105.216 
L 474.24 -102.528 
L 474.24 -99.84 
L 474.24 -97.152 
L 474.24 -94.464 
L 474.24 -91.776 
L 474.24 -89.088 
L 474.24 -86.4 
L 474.24 -83.712 
L 474.24 -81.024 
L 474.24 -78.336 
L 474.24 -75.648 
L 474.24 -72.96 
L 474.24 -70.272 
L 474.24 -67.584 
L 474.24 -64.896 
L 474.24 -62.208 
L 474.24 -59.52 
L 474.24 -56.832 
L 474.24 -54.144 
L 474.24 -51.456 
L 474.24 -48.768 
L 474.24 -46.08 
L 474.24 -43.392 
L 474.24 -40.704 
L 474.24 -38.016 
z
" style="stroke: #b1b2b0; stroke-opacity: 0.5"/>
    </defs>
    <g clip-path="url(#p2a65ffe228)">
     <use xlink:href="#m8c48800a78" x="0" y="345.6" style="fill: #b1b2b0; fill-opacity: 0.5; stroke: #b1b2b0; stroke-opacity: 0.5"/>
    </g>
   </g>
   <g id="PolyCollection_5">
    <defs>
     <path id="m8a8edd7a19" d="M 184.386528 -304.128 
L 184.386528 -303.825773 
L 187.722624 -298.741133 
L 190.22544 -294.597389 
L 192.72528 -291.208262 
L 195.228096 -287.819136 
L 197.939232 -284.05175 
L 201.067008 -279.909907 
L 204.403104 -275.013446 
L 207.7392 -270.869702 
L 211.078272 -266.725958 
L 214.414368 -262.958573 
L 217.542144 -258.440371 
L 220.87824 -253.920269 
L 224.422656 -250.529242 
L 228.803328 -245.82096 
L 232.347744 -242.241754 
L 235.2672 -239.227085 
L 238.603296 -236.212416 
L 242.356032 -232.256851 
L 246.525408 -228.301286 
L 249.86448 -224.72208 
L 253.617216 -221.521133 
L 256.953312 -218.882822 
L 260.706048 -215.491795 
L 266.12832 -211.34615 
L 272.383872 -206.824147 
L 277.806144 -202.678502 
L 282.395136 -199.287475 
L 289.067328 -194.387213 
L 295.32288 -190.617926 
L 300.328512 -187.603258 
L 305.747808 -184.21033 
L 313.256256 -179.686426 
L 321.597984 -174.786163 
L 327.853536 -171.769594 
L 334.109088 -167.998406 
L 339.948 -165.360096 
L 346.203552 -161.965267 
L 352.875744 -159.325056 
L 359.547936 -156.684845 
L 366.639744 -153.290016 
L 372.478656 -151.026163 
L 377.064672 -149.14057 
L 382.903584 -146.876717 
L 387.909216 -144.991123 
L 393.331488 -142.72727 
L 399.58704 -140.839776 
L 405.009312 -138.575923 
L 412.514784 -136.31207 
L 417.937056 -134.424576 
L 424.192608 -132.160723 
L 430.44816 -130.273229 
L 437.123328 -128.572013 
L 443.37888 -126.872698 
L 448.798176 -124.987104 
L 453.803808 -123.475968 
L 459.64272 -121.776653 
L 466.523232 -120.453696 
L 473.40672 -118.566202 
L 473.40672 -304.128 
L 473.40672 -304.128 
L 466.523232 -304.128 
L 459.64272 -304.128 
L 453.803808 -304.128 
L 448.798176 -304.128 
L 443.37888 -304.128 
L 437.123328 -304.128 
L 430.44816 -304.128 
L 424.192608 -304.128 
L 417.937056 -304.128 
L 412.514784 -304.128 
L 405.009312 -304.128 
L 399.58704 -304.128 
L 393.331488 -304.128 
L 387.909216 -304.128 
L 382.903584 -304.128 
L 377.064672 -304.128 
L 372.478656 -304.128 
L 366.639744 -304.128 
L 359.547936 -304.128 
L 352.875744 -304.128 
L 346.203552 -304.128 
L 339.948 -304.128 
L 334.109088 -304.128 
L 327.853536 -304.128 
L 321.597984 -304.128 
L 313.256256 -304.128 
L 305.747808 -304.128 
L 300.328512 -304.128 
L 295.32288 -304.128 
L 289.067328 -304.128 
L 282.395136 -304.128 
L 277.806144 -304.128 
L 272.383872 -304.128 
L 266.12832 -304.128 
L 260.706048 -304.128 
L 256.953312 -304.128 
L 253.617216 -304.128 
L 249.86448 -304.128 
L 246.525408 -304.128 
L 242.356032 -304.128 
L 238.603296 -304.128 
L 235.2672 -304.128 
L 232.347744 -304.128 
L 228.803328 -304.128 
L 224.422656 -304.128 
L 220.87824 -304.128 
L 217.542144 -304.128 
L 214.414368 -304.128 
L 211.078272 -304.128 
L 207.7392 -304.128 
L 204.403104 -304.128 
L 201.067008 -304.128 
L 197.939232 -304.128 
L 195.228096 -304.128 
L 192.72528 -304.128 
L 190.22544 -304.128 
L 187.722624 -304.128 
L 184.386528 -304.128 
z
" style="stroke: #565a5c; stroke-opacity: 0.5"/>
    </defs>
    <g clip-path="url(#p2a65ffe228)">
     <use xlink:href="#m8a8edd7a19" x="0" y="345.6" style="fill: #565a5c; fill-opacity: 0.5; stroke: #565a5c; stroke-opacity: 0.5"/>
    </g>
   </g>
   <g id="PolyCollection_6">
    <defs>
     <path id="m3b3027f329" d="M 58.43328 -50.814086 
L 58.43328 -38.016 
L 67.608288 -38.016 
L 76.366656 -38.016 
L 86.37792 -38.016 
L 96.386208 -38.016 
L 106.394496 -38.016 
L 115.569504 -38.016 
L 125.997408 -38.016 
L 136.841952 -38.016 
L 146.85024 -38.016 
L 158.111424 -38.016 
L 168.119712 -38.016 
L 178.547616 -38.016 
L 188.555904 -38.016 
L 197.314272 -38.016 
L 206.90592 -38.016 
L 217.750464 -38.016 
L 227.758752 -38.016 
L 239.436576 -38.016 
L 249.028224 -38.016 
L 259.872768 -38.016 
L 271.133952 -38.016 
L 282.395136 -38.016 
L 291.150528 -38.016 
L 301.995072 -38.016 
L 311.58672 -38.016 
L 320.761728 -38.016 
L 353.709024 -38.016 
L 362.050752 -38.016 
L 362.050752 -303.375283 
L 362.050752 -303.375283 
L 353.709024 -296.600832 
L 320.761728 -269.875584 
L 311.58672 -261.595699 
L 301.995072 -253.690272 
L 291.150528 -244.65767 
L 282.395136 -237.128602 
L 271.133952 -227.719642 
L 259.872768 -218.308781 
L 249.028224 -209.276179 
L 239.436576 -201.372653 
L 227.758752 -191.585434 
L 217.750464 -183.305549 
L 206.90592 -174.271046 
L 197.314272 -166.36752 
L 188.555904 -158.838451 
L 178.547616 -150.558566 
L 168.119712 -141.900422 
L 158.111424 -133.620538 
L 146.85024 -124.211578 
L 136.841952 -115.553434 
L 125.997408 -106.89719 
L 115.569504 -97.862688 
L 106.394496 -90.33552 
L 96.386208 -82.053734 
L 86.37792 -73.397491 
L 76.366656 -65.492064 
L 67.608288 -57.964896 
L 58.43328 -50.814086 
z
" style="stroke: #b1b2b0; stroke-opacity: 0.5"/>
    </defs>
    <g clip-path="url(#p2a65ffe228)">
     <use xlink:href="#m3b3027f329" x="0" y="345.6" style="fill: #b1b2b0; fill-opacity: 0.5; stroke: #b1b2b0; stroke-opacity: 0.5"/>
    </g>
   </g>
   <g id="LineCollection_1">
    <path d="M 57.6 155.52 
L 461.8 155.52 
" clip-path="url(#p2a65ffe228)" style="fill: none; stroke: #565a5c; stroke-width: 1.5"/>
   </g>
   <g id="LineCollection_2">
    <path d="M 355.2 307.584 
L 355.2 41.472 
" clip-path="url(#p2a65ffe228)" style="fill: none; stroke: #b1b2b0; stroke-width: 1.5"/>
   </g>
   <g id="line2d_16">
    <path d="M 184.386528 41.774227 
L 187.722624 46.858867 
L 190.22544 51.002611 
L 192.72528 54.391738 
L 195.228096 57.780864 
L 197.939232 61.54825 
L 201.067008 65.690093 
L 204.403104 70.586554 
L 207.7392 74.730298 
L 211.078272 78.874042 
L 214.414368 82.641427 
L 217.542144 87.159629 
L 220.87824 91.679731 
L 224.422656 95.070758 
L 228.803328 99.77904 
L 232.347744 103.358246 
L 235.2672 106.372915 
L 238.603296 109.387584 
L 242.356032 113.343149 
L 246.525408 117.298714 
L 249.86448 120.87792 
L 253.617216 124.078867 
L 256.953312 126.717178 
L 260.706048 130.108205 
L 266.12832 134.25385 
L 272.383872 138.775853 
L 277.806144 142.921498 
L 282.395136 146.312525 
L 289.067328 151.212787 
L 295.32288 154.982074 
L 300.328512 157.996742 
L 305.747808 161.38967 
L 313.256256 165.913574 
L 321.597984 170.813837 
L 327.853536 173.830406 
L 334.109088 177.601594 
L 339.948 180.239904 
L 346.203552 183.634733 
L 352.875744 186.274944 
L 359.547936 188.915155 
L 366.639744 192.309984 
L 372.478656 194.573837 
L 377.064672 196.45943 
L 382.903584 198.723283 
L 387.909216 200.608877 
L 393.331488 202.87273 
L 399.58704 204.760224 
L 405.009312 207.024077 
L 412.514784 209.28793 
L 417.937056 211.175424 
L 424.192608 213.439277 
L 430.44816 215.326771 
L 437.123328 217.027987 
L 443.37888 218.727302 
L 448.798176 220.612896 
L 453.803808 222.124032 
L 459.64272 223.823347 
L 461.8 224.23814 
" clip-path="url(#p2a65ffe228)" style="fill: none; stroke: #565a5c; stroke-width: 1.5; stroke-linecap: round"/>
   </g>
   <g id="line2d_17">
    <path d="M 58.43328 294.785914 
L 67.608288 287.635104 
L 76.366656 280.107936 
L 86.37792 272.202509 
L 96.386208 263.546266 
L 106.394496 255.26448 
L 115.569504 247.737312 
L 125.997408 238.70281 
L 136.841952 230.046566 
L 146.85024 221.388422 
L 158.111424 211.979462 
L 168.119712 203.699578 
L 178.547616 195.041434 
L 188.555904 186.761549 
L 197.314272 179.23248 
L 206.90592 171.328954 
L 217.750464 162.294451 
L 227.758752 154.014566 
L 239.436576 144.227347 
L 249.028224 136.323821 
L 259.872768 127.291219 
L 271.133952 117.880358 
L 282.395136 108.471398 
L 291.150528 100.94233 
L 301.995072 91.909728 
L 311.58672 84.004301 
L 320.761728 75.724416 
L 353.709024 48.999168 
L 362.050752 42.224717 
" clip-path="url(#p2a65ffe228)" style="fill: none; stroke: #b1b2b0; stroke-width: 1.5; stroke-linecap: round"/>
   </g>
   <g id="patch_3">
    <path d="M 57.6 307.584 
L 57.6 41.472 
" style="fill: none; stroke: #262626; stroke-width: 1.65; stroke-linejoin: miter; stroke-linecap: square"/>
   </g>
   <g id="patch_4">
    <path d="M 414.72 307.584 
L 414.72 41.472 
" style="fill: none; stroke: #262626; stroke-width: 1.65; stroke-linejoin: miter; stroke-linecap: square"/>
   </g>
   <g id="patch_5">
    <path d="M 57.6 307.584 
L 414.72 307.584 
" style="fill: none; stroke: #262626; stroke-width: 1.65; stroke-linejoin: miter; stroke-linecap: square"/>
   </g>
   <g id="patch_6">
    <path d="M 57.6 41.472 
L 414.72 41.472 
" style="fill: none; stroke: #262626; stroke-width: 1.65; stroke-linejoin: miter; stroke-linecap: square"/>
   </g>
   <g id="text_18">
    <!-- $m_S = 2.0 $ TeV -->
    <g transform="translate(72.48 250.56)scale(0.14 -0.14)">
     <defs>
      <path id="CMMI12-6d" d="M 1318 1870 
C 1331 1909 1491 2228 1728 2432 
C 1894 2585 2112 2687 2362 2687 
C 2618 2687 2707 2496 2707 2241 
C 2707 2202 2707 2075 2630 1775 
L 2470 1117 
C 2419 925 2298 453 2285 383 
C 2259 287 2221 121 2221 95 
C 2221 6 2291 -64 2387 -64 
C 2579 -64 2611 83 2669 313 
L 3053 1838 
C 3066 1890 3398 2687 4102 2687 
C 4358 2687 4448 2496 4448 2241 
C 4448 1883 4198 1187 4058 804 
C 4000 651 3968 568 3968 453 
C 3968 166 4166 -64 4474 -64 
C 5069 -64 5293 874 5293 913 
C 5293 945 5267 970 5229 970 
C 5171 970 5165 951 5133 842 
C 4986 332 4749 64 4493 64 
C 4429 64 4326 70 4326 274 
C 4326 440 4403 645 4429 715 
C 4544 1021 4832 1775 4832 2145 
C 4832 2528 4608 2816 4122 2816 
C 3693 2816 3347 2573 3091 2196 
C 3072 2541 2861 2816 2381 2816 
C 1811 2816 1510 2413 1395 2253 
C 1376 2617 1114 2816 832 2816 
C 646 2816 499 2726 378 2483 
C 262 2253 173 1864 173 1838 
C 173 1813 198 1781 243 1781 
C 294 1781 301 1787 339 1934 
C 435 2311 557 2687 813 2687 
C 960 2687 1011 2585 1011 2394 
C 1011 2253 947 2004 902 1807 
L 723 1117 
C 698 996 627 708 595 593 
C 550 427 480 127 480 95 
C 480 6 550 -64 646 -64 
C 723 -64 813 -26 864 70 
C 877 102 934 325 966 453 
L 1107 1028 
L 1318 1870 
z
" transform="scale(0.015625)"/>
      <path id="CMMI12-53" d="M 4064 4422 
C 4064 4480 4019 4480 4006 4480 
C 3981 4480 3974 4473 3898 4377 
C 3859 4332 3597 4002 3590 3996 
C 3379 4409 2957 4480 2688 4480 
C 1875 4480 1139 3742 1139 3024 
C 1139 2547 1427 2268 1741 2160 
C 1811 2134 2189 2033 2381 1988 
C 2707 1899 2790 1874 2925 1734 
C 2950 1702 3078 1556 3078 1258 
C 3078 667 2528 57 1888 57 
C 1363 57 781 279 781 991 
C 781 1112 806 1264 826 1328 
C 826 1347 832 1378 832 1391 
C 832 1417 819 1448 768 1448 
C 710 1448 704 1436 678 1328 
L 352 25 
C 352 19 326 -64 326 -71 
C 326 -128 378 -128 390 -128 
C 416 -128 422 -122 499 -26 
L 794 356 
C 947 127 1280 -128 1875 -128 
C 2701 -128 3456 667 3456 1461 
C 3456 1728 3392 1963 3149 2198 
C 3014 2331 2899 2363 2310 2516 
C 1882 2630 1824 2649 1709 2751 
C 1600 2859 1517 3011 1517 3227 
C 1517 3761 2061 4307 2669 4307 
C 3296 4307 3590 3926 3590 3322 
C 3590 3157 3558 2986 3558 2960 
C 3558 2903 3610 2903 3629 2903 
C 3686 2903 3693 2922 3718 3024 
L 4064 4422 
z
" transform="scale(0.015625)"/>
      <path id="CMR17-3d" d="M 4115 2048 
C 4211 2048 4307 2048 4307 2156 
C 4307 2272 4198 2272 4090 2272 
L 512 2272 
C 403 2272 294 2272 294 2156 
C 294 2048 390 2048 486 2048 
L 4115 2048 
z
M 4090 927 
C 4198 927 4307 927 4307 1043 
C 4307 1152 4211 1152 4115 1152 
L 486 1152 
C 390 1152 294 1152 294 1043 
C 294 927 403 927 512 927 
L 4090 927 
z
" transform="scale(0.015625)"/>
      <path id="CMR17-54" d="M 3981 4332 
L 288 4332 
L 179 2924 
L 294 2924 
C 378 3981 467 4166 1453 4166 
C 1568 4166 1754 4166 1805 4159 
C 1926 4140 1926 4064 1926 3917 
L 1926 465 
C 1926 236 1907 166 1376 166 
L 1197 166 
L 1197 0 
C 1504 6 1824 12 2138 12 
C 2451 12 2771 6 3078 0 
L 3078 166 
L 2899 166 
C 2368 166 2349 236 2349 465 
L 2349 3917 
C 2349 4057 2349 4134 2464 4159 
C 2515 4166 2701 4166 2816 4166 
C 3795 4166 3891 3981 3974 2924 
L 4090 2924 
L 3981 4332 
z
" transform="scale(0.015625)"/>
      <path id="CMR17-65" d="M 2438 1503 
C 2464 1529 2464 1542 2464 1606 
C 2464 2251 2118 2816 1389 2816 
C 710 2816 173 2175 173 1394 
C 173 554 781 -64 1459 -64 
C 2176 -64 2458 619 2458 755 
C 2458 800 2419 800 2406 800 
C 2362 800 2355 787 2330 709 
C 2189 270 1837 51 1504 51 
C 1229 51 954 206 781 490 
C 582 819 582 1200 582 1503 
L 2438 1503 
z
M 589 1600 
C 634 2511 1126 2713 1382 2713 
C 1818 2713 2112 2308 2118 1600 
L 589 1600 
z
" transform="scale(0.015625)"/>
      <path id="CMR17-56" d="M 3776 3762 
C 3834 3903 3936 4179 4365 4185 
L 4365 4352 
C 4218 4339 4051 4339 3891 4339 
C 3738 4339 3475 4339 3328 4352 
L 3328 4185 
C 3648 4166 3661 3942 3661 3903 
C 3661 3833 3642 3788 3622 3737 
L 2362 448 
L 1043 3903 
C 1024 3948 1011 3980 1011 4012 
C 1011 4185 1267 4185 1402 4185 
L 1402 4352 
C 1197 4339 896 4339 685 4339 
C 518 4339 218 4339 64 4352 
L 64 4185 
C 435 4185 506 4160 582 3955 
L 2106 -26 
C 2138 -116 2144 -128 2214 -128 
C 2285 -128 2291 -116 2323 -26 
L 3776 3762 
z
" transform="scale(0.015625)"/>
     </defs>
     <use xlink:href="#CMMI12-6d" transform="scale(0.996264)"/>
     <use xlink:href="#CMMI12-53" transform="translate(85.327224 -14.943915)scale(0.697382)"/>
     <use xlink:href="#CMR17-3d" transform="translate(159.555263 0)scale(0.996264)"/>
     <use xlink:href="#CMR17-32" transform="translate(258.94406 0)scale(0.996264)"/>
     <use xlink:href="#CMMI12-3a" transform="translate(304.634537 0)scale(0.996264)"/>
     <use xlink:href="#CMR17-30" transform="translate(331.731714 0)scale(0.996264)"/>
     <use xlink:href="#CMR17-54" transform="translate(407.498158 0)scale(0.996264)"/>
     <use xlink:href="#CMR17-65" transform="translate(466.200783 0)scale(0.996264)"/>
     <use xlink:href="#CMR17-56" transform="translate(506.686443 0)scale(0.996264)"/>
    </g>
   </g>
   <g id="text_19">
    <!-- $pp \rightarrow \tau \tau$ -->
    <g transform="translate(87.36 98.496)scale(0.14 -0.14)">
     <defs>
      <path id="CMMI12-70" d="M 275 -794 
C 230 -981 205 -1031 -58 -1031 
C -135 -1031 -199 -1031 -199 -1152 
C -199 -1165 -192 -1216 -122 -1216 
C -39 -1216 51 -1204 134 -1204 
L 410 -1204 
C 544 -1204 870 -1216 1005 -1216 
C 1043 -1216 1120 -1216 1120 -1101 
C 1120 -1031 1075 -1031 966 -1031 
C 672 -1031 653 -987 653 -937 
C 653 -863 941 217 979 364 
C 1050 185 1222 -64 1555 -64 
C 2278 -64 3059 874 3059 1813 
C 3059 2400 2726 2816 2246 2816 
C 1837 2816 1491 2419 1421 2330 
C 1370 2649 1120 2816 864 2816 
C 678 2816 531 2726 410 2483 
C 294 2253 205 1864 205 1838 
C 205 1813 230 1781 275 1781 
C 326 1781 333 1787 371 1934 
C 467 2311 589 2687 845 2687 
C 992 2687 1043 2585 1043 2394 
C 1043 2241 1024 2177 998 2062 
L 275 -794 
z
M 1382 1992 
C 1427 2170 1606 2356 1709 2445 
C 1779 2509 1990 2687 2234 2687 
C 2515 2687 2643 2407 2643 2075 
C 2643 1768 2464 1047 2304 715 
C 2144 370 1850 64 1555 64 
C 1120 64 1050 613 1050 638 
C 1050 657 1062 708 1069 740 
L 1382 1992 
z
" transform="scale(0.015625)"/>
      <path id="CMSY10-21" d="M 5338 1472 
C 4986 1203 4813 940 4762 857 
C 4474 415 4422 12 4422 6 
C 4422 -71 4499 -71 4550 -71 
C 4659 -71 4666 -58 4691 57 
C 4838 684 5216 1222 5939 1516 
C 6016 1542 6035 1555 6035 1600 
C 6035 1644 5997 1664 5984 1670 
C 5702 1779 4928 2099 4685 3174 
C 4666 3251 4659 3270 4550 3270 
C 4499 3270 4422 3270 4422 3193 
C 4422 3180 4480 2777 4749 2348 
C 4877 2156 5062 1932 5338 1728 
L 582 1728 
C 467 1728 352 1728 352 1600 
C 352 1472 467 1472 582 1472 
L 5338 1472 
z
" transform="scale(0.015625)"/>
     </defs>
     <use xlink:href="#CMMI12-70" transform="scale(0.996264)"/>
     <use xlink:href="#CMMI12-70" transform="translate(48.959514 0)scale(0.996264)"/>
     <use xlink:href="#CMSY10-21" transform="translate(125.593037 0)scale(0.996264)"/>
     <use xlink:href="#CMMI12-1c" transform="translate(252.89372 0)scale(0.996264)"/>
     <use xlink:href="#CMMI12-1c" transform="translate(306.384885 0)scale(0.996264)"/>
    </g>
   </g>
   <g id="text_20">
    <!-- $Z \rightarrow \tau \tau $ -->
    <g transform="translate(370.837876 253.272028)rotate(-90)scale(0.14 -0.14)">
     <defs>
      <path id="CMMI12-5a" d="M 4480 4153 
C 4518 4198 4550 4236 4550 4300 
C 4550 4345 4544 4352 4397 4352 
L 1754 4352 
C 1606 4352 1600 4345 1562 4230 
L 1210 3083 
C 1190 3019 1190 3007 1190 2994 
C 1190 2968 1210 2930 1254 2930 
C 1306 2930 1318 2956 1344 3039 
C 1581 3726 1894 4166 2906 4166 
L 3955 4166 
L 448 217 
C 390 147 365 121 365 51 
C 365 0 397 0 518 0 
L 3251 0 
C 3398 0 3405 6 3443 121 
L 3891 1529 
C 3898 1548 3910 1593 3910 1618 
C 3910 1650 3885 1682 3846 1682 
C 3795 1682 3789 1676 3738 1516 
C 3469 695 3187 198 2074 198 
L 966 198 
L 4480 4153 
z
" transform="scale(0.015625)"/>
     </defs>
     <use xlink:href="#CMMI12-5a" transform="scale(0.996264)"/>
     <use xlink:href="#CMSY10-21" transform="translate(101.597601 0)scale(0.996264)"/>
     <use xlink:href="#CMMI12-1c" transform="translate(228.898284 0)scale(0.996264)"/>
     <use xlink:href="#CMMI12-1c" transform="translate(282.38945 0)scale(0.996264)"/>
    </g>
   </g>
   <g id="text_21">
    <!-- $B  \rightarrow K^* \nu \nu $ -->
    <g transform="translate(208.41543 69.883866)rotate(-312)scale(0.14 -0.14)">
     <defs>
      <path id="CMMI12-42" d="M 2342 3915 
C 2400 4153 2426 4166 2675 4166 
L 3507 4166 
C 4230 4166 4230 3547 4230 3489 
C 4230 2967 3712 2304 2867 2304 
L 1946 2304 
L 2342 3915 
z
M 3424 2252 
C 4122 2381 4755 2871 4755 3463 
C 4755 3966 4314 4352 3590 4352 
L 1536 4352 
C 1414 4352 1357 4352 1357 4230 
C 1357 4166 1414 4166 1510 4166 
C 1901 4166 1901 4114 1901 4043 
C 1901 4031 1901 3992 1875 3895 
L 1011 469 
C 954 248 941 185 493 185 
C 371 185 307 185 307 70 
C 307 0 346 0 474 0 
L 2669 0 
C 3648 0 4403 733 4403 1369 
C 4403 1886 3942 2201 3424 2252 
z
M 2515 185 
L 1651 185 
C 1562 185 1549 185 1510 191 
C 1440 198 1434 210 1434 261 
C 1434 305 1446 343 1459 399 
L 1907 2176 
L 3110 2176 
C 3866 2176 3866 1483 3866 1432 
C 3866 828 3309 185 2515 185 
z
" transform="scale(0.015625)"/>
      <path id="CMMI12-4b" d="M 3200 2574 
C 3194 2593 3168 2644 3168 2663 
C 3168 2669 3174 2675 3283 2758 
L 3904 3242 
C 4762 3905 5043 4128 5485 4166 
C 5530 4172 5594 4172 5594 4281 
C 5594 4319 5574 4352 5523 4352 
C 5453 4352 5376 4339 5306 4339 
L 5062 4339 
C 4864 4339 4653 4352 4461 4352 
C 4416 4352 4339 4352 4339 4236 
C 4339 4172 4384 4166 4422 4166 
C 4493 4159 4576 4134 4576 4045 
C 4576 3917 4384 3765 4333 3726 
L 1824 1784 
L 2355 3886 
C 2413 4102 2426 4166 2880 4166 
C 3002 4166 3059 4166 3059 4287 
C 3059 4352 2995 4352 2963 4352 
C 2848 4352 2714 4339 2592 4339 
L 1837 4339 
C 1722 4339 1581 4352 1466 4352 
C 1414 4352 1344 4352 1344 4230 
C 1344 4166 1402 4166 1498 4166 
C 1888 4166 1888 4115 1888 4045 
C 1888 4032 1888 3994 1862 3898 
L 998 472 
C 941 249 928 185 480 185 
C 358 185 294 185 294 70 
C 294 0 352 0 390 0 
C 512 0 640 12 762 12 
L 1510 12 
C 1632 12 1766 0 1888 0 
C 1939 0 2010 0 2010 121 
C 2010 185 1952 185 1856 185 
C 1466 185 1466 236 1466 300 
C 1466 344 1504 504 1530 605 
L 1779 1593 
L 2752 2351 
C 2938 1943 3277 1128 3539 504 
C 3558 465 3571 427 3571 383 
C 3571 191 3315 185 3258 185 
C 3200 185 3136 185 3136 64 
C 3136 0 3206 0 3226 0 
C 3450 0 3686 12 3910 12 
L 4218 12 
C 4314 12 4422 0 4518 0 
C 4557 0 4627 0 4627 121 
C 4627 185 4570 185 4506 185 
C 4269 191 4186 242 4090 472 
L 3200 2574 
z
" transform="scale(0.015625)"/>
      <path id="CMSY10-3" d="M 1760 2762 
C 1766 2853 1766 3008 1600 3008 
C 1498 3008 1414 2924 1434 2840 
L 1434 2755 
L 1523 1740 
L 704 2349 
C 646 2382 634 2395 589 2395 
C 499 2395 416 2303 416 2212 
C 416 2107 480 2081 544 2048 
L 1453 1603 
L 570 1164 
C 467 1112 416 1085 416 987 
C 416 889 499 804 589 804 
C 634 804 646 804 806 928 
L 1523 1459 
L 1427 359 
C 1427 224 1542 192 1594 192 
C 1670 192 1766 236 1766 359 
L 1670 1459 
L 2490 850 
C 2547 817 2560 804 2605 804 
C 2694 804 2778 896 2778 987 
C 2778 1085 2720 1118 2643 1157 
C 2259 1354 2246 1354 1741 1596 
L 2624 2035 
C 2726 2087 2778 2113 2778 2212 
C 2778 2310 2694 2395 2605 2395 
C 2560 2395 2547 2395 2387 2271 
L 1670 1740 
L 1760 2762 
z
" transform="scale(0.015625)"/>
      <path id="CMMI12-17" d="M 1408 2751 
C 1408 2777 1389 2816 1338 2816 
C 1293 2816 691 2758 595 2751 
C 525 2745 461 2739 461 2623 
C 461 2559 512 2559 602 2559 
C 902 2559 922 2515 922 2445 
C 922 2419 909 2343 902 2317 
L 339 64 
C 339 38 358 0 403 0 
L 538 0 
C 627 0 1600 230 2349 996 
C 3174 1845 3290 2630 3290 2655 
C 3290 2758 3206 2816 3123 2816 
C 2938 2816 2893 2643 2880 2598 
C 2502 1264 1626 472 774 192 
L 1408 2751 
z
" transform="scale(0.015625)"/>
     </defs>
     <use xlink:href="#CMMI12-42" transform="scale(0.996264)"/>
     <use xlink:href="#CMSY10-21" transform="translate(106.809532 0)scale(0.996264)"/>
     <use xlink:href="#CMMI12-4b" transform="translate(234.110215 0)scale(0.996264)"/>
     <use xlink:href="#CMSY10-3" transform="translate(324.257636 36.153639)scale(0.697382)"/>
     <use xlink:href="#CMMI12-17" transform="translate(359.624978 0)scale(0.996264)"/>
     <use xlink:href="#CMMI12-17" transform="translate(414.107771 0)scale(0.996264)"/>
    </g>
   </g>
   <g id="text_22">
    <!-- $ tt \rightarrow \tau \tau $ -->
    <g transform="translate(213.248949 184.826335)rotate(-45)scale(0.14 -0.14)">
     <defs>
      <path id="CMMI12-74" d="M 1286 2566 
L 1875 2566 
C 1997 2566 2061 2566 2061 2681 
C 2061 2752 2022 2752 1894 2752 
L 1331 2752 
L 1568 3664 
C 1594 3752 1594 3764 1594 3808 
C 1594 3910 1510 3968 1427 3968 
C 1376 3968 1229 3948 1178 3746 
L 928 2752 
L 326 2752 
C 198 2752 141 2752 141 2630 
C 141 2566 186 2566 307 2566 
L 877 2566 
L 454 881 
C 403 657 384 593 384 510 
C 384 210 595 -64 954 -64 
C 1600 -64 1946 868 1946 913 
C 1946 951 1920 970 1882 970 
C 1869 970 1843 970 1830 944 
C 1824 938 1818 932 1773 830 
C 1638 510 1344 64 973 64 
C 781 64 768 223 768 364 
C 768 370 768 491 787 568 
L 1286 2566 
z
" transform="scale(0.015625)"/>
     </defs>
     <use xlink:href="#CMMI12-74" transform="scale(0.996264)"/>
     <use xlink:href="#CMMI12-74" transform="translate(35.22633 0)scale(0.996264)"/>
     <use xlink:href="#CMSY10-21" transform="translate(98.126669 0)scale(0.996264)"/>
     <use xlink:href="#CMMI12-1c" transform="translate(225.427353 0)scale(0.996264)"/>
     <use xlink:href="#CMMI12-1c" transform="translate(278.918518 0)scale(0.996264)"/>
    </g>
   </g>
   <g id="text_23">
    <!-- $C_{V_L}$ -->
    <g style="fill: #262626" transform="translate(223.160523 35.472)scale(0.18 -0.18)">
     <defs>
      <path id="CMMI12-43" d="M 4781 4422 
C 4781 4480 4736 4480 4723 4480 
C 4710 4480 4685 4480 4634 4415 
L 4192 3881 
C 3968 4262 3616 4480 3136 4480 
C 1754 4480 320 3087 320 1594 
C 320 533 1069 -128 2003 -128 
C 2515 -128 2963 89 3334 400 
C 3891 864 4058 1480 4058 1531 
C 4058 1588 4006 1588 3987 1588 
C 3930 1588 3923 1550 3910 1524 
C 3616 533 2752 57 2112 57 
C 1434 57 845 489 845 1391 
C 845 1594 909 2699 1632 3531 
C 1984 3938 2586 4294 3194 4294 
C 3898 4294 4211 3716 4211 3068 
C 4211 2903 4192 2763 4192 2737 
C 4192 2680 4256 2680 4275 2680 
C 4346 2680 4352 2687 4378 2801 
L 4781 4422 
z
" transform="scale(0.015625)"/>
      <path id="CMMI12-56" d="M 3962 3644 
C 4179 3987 4378 4140 4704 4166 
C 4768 4172 4819 4172 4819 4287 
C 4819 4313 4806 4352 4749 4352 
C 4634 4352 4358 4339 4243 4339 
C 4058 4339 3866 4352 3686 4352 
C 3635 4352 3571 4352 3571 4230 
C 3571 4172 3629 4166 3654 4166 
C 3891 4146 3917 4032 3917 3956 
C 3917 3860 3827 3714 3821 3708 
L 1811 540 
L 1363 3968 
C 1363 4153 1696 4166 1766 4166 
C 1862 4166 1920 4166 1920 4287 
C 1920 4352 1850 4352 1830 4352 
C 1722 4352 1594 4339 1485 4339 
L 1126 4339 
C 659 4339 467 4352 461 4352 
C 422 4352 346 4352 346 4236 
C 346 4166 390 4166 493 4166 
C 819 4166 838 4108 858 3949 
L 1370 25 
C 1389 -109 1389 -128 1478 -128 
C 1555 -128 1587 -109 1651 -7 
L 3962 3644 
z
" transform="scale(0.015625)"/>
      <path id="CMMI12-4c" d="M 2349 3860 
C 2406 4102 2426 4166 2989 4166 
C 3162 4166 3206 4166 3206 4287 
C 3206 4352 3136 4352 3110 4352 
C 2982 4352 2835 4339 2707 4339 
L 1850 4339 
C 1728 4339 1587 4352 1466 4352 
C 1414 4352 1344 4352 1344 4230 
C 1344 4166 1402 4166 1498 4166 
C 1888 4166 1888 4115 1888 4045 
C 1888 4032 1888 3994 1862 3898 
L 998 472 
C 941 249 928 185 480 185 
C 358 185 294 185 294 70 
C 294 0 333 0 461 0 
L 3328 0 
C 3469 0 3475 6 3520 121 
L 4013 1478 
C 4026 1510 4038 1548 4038 1567 
C 4038 1605 4006 1631 3974 1631 
C 3968 1631 3936 1631 3923 1605 
C 3910 1599 3910 1586 3859 1465 
C 3654 905 3366 185 2285 185 
L 1670 185 
C 1581 185 1568 185 1530 191 
C 1459 198 1453 211 1453 262 
C 1453 306 1466 344 1478 402 
L 2349 3860 
z
" transform="scale(0.015625)"/>
     </defs>
     <use xlink:href="#CMMI12-43" transform="scale(0.996264)"/>
     <use xlink:href="#CMMI12-56" transform="translate(69.792037 -14.943915)scale(0.697382)"/>
     <use xlink:href="#CMMI12-4c" transform="translate(109.600564 -25.404611)scale(0.498132)"/>
    </g>
   </g>
   <g id="legend_1">
    <g id="patch_7">
     <path d="M 64.6 302.584 
L 140.563129 302.584 
Q 142.563129 302.584 142.563129 300.584 
L 142.563129 268.552296 
Q 142.563129 266.552296 140.563129 266.552296 
L 64.6 266.552296 
Q 62.6 266.552296 62.6 268.552296 
L 62.6 300.584 
Q 62.6 302.584 64.6 302.584 
z
" style="fill: #ffffff; opacity: 0.8; stroke: #cccccc; stroke-linejoin: miter"/>
    </g>
    <g id="patch_8">
     <path d="M 66.6 278.024276 
L 86.6 278.024276 
L 86.6 271.024276 
L 66.6 271.024276 
z
" style="fill: #94b43b; stroke: #94b43b; stroke-linejoin: miter"/>
    </g>
    <g id="text_24">
     <!-- $R_{D^(*)} (1 \sigma)$ -->
     <g style="fill: #262626" transform="translate(94.6 278.024276)scale(0.1 -0.1)">
      <defs>
       <path id="CMMI12-52" d="M 2355 3917 
C 2413 4153 2438 4166 2688 4166 
L 3149 4166 
C 3699 4166 4109 4000 4109 3503 
C 4109 3177 3942 2240 2656 2240 
L 1933 2240 
L 2355 3917 
z
M 3245 2163 
C 4038 2335 4659 2846 4659 3394 
C 4659 3892 4154 4352 3264 4352 
L 1530 4352 
C 1402 4352 1344 4352 1344 4230 
C 1344 4166 1389 4166 1510 4166 
C 1894 4166 1894 4115 1894 4045 
C 1894 4032 1894 3994 1869 3898 
L 1005 475 
C 947 253 934 190 493 190 
C 346 190 301 190 301 69 
C 301 6 371 6 390 6 
C 506 6 640 19 762 19 
L 1517 19 
C 1632 19 1766 6 1882 6 
C 1933 6 2003 6 2003 126 
C 2003 190 1946 190 1850 190 
C 1459 190 1459 241 1459 304 
C 1459 310 1459 355 1472 405 
L 1901 2112 
L 2669 2112 
C 3277 2112 3392 1731 3392 1522 
C 3392 1426 3328 1179 3283 1014 
C 3213 723 3194 653 3194 532 
C 3194 82 3565 -128 3994 -128 
C 4512 -128 4736 501 4736 589 
C 4736 634 4704 653 4666 653 
C 4614 653 4602 615 4589 564 
C 4435 114 4173 0 4013 0 
C 3853 0 3750 69 3750 355 
C 3750 507 3827 1084 3834 1116 
C 3866 1350 3866 1376 3866 1426 
C 3866 1889 3488 2086 3245 2163 
z
" transform="scale(0.015625)"/>
       <path id="CMMI12-44" d="M 1005 472 
C 947 249 934 185 486 185 
C 365 185 301 185 301 70 
C 301 0 339 0 467 0 
L 2496 0 
C 3789 0 5050 1332 5050 2752 
C 5050 3669 4499 4352 3584 4352 
L 1530 4352 
C 1408 4352 1350 4352 1350 4230 
C 1350 4166 1408 4166 1504 4166 
C 1894 4166 1894 4115 1894 4045 
C 1894 4032 1894 3994 1869 3898 
L 1005 472 
z
M 2355 3917 
C 2413 4153 2438 4166 2688 4166 
L 3392 4166 
C 3994 4166 4544 3841 4544 2962 
C 4544 2644 4416 1535 3795 835 
C 3616 625 3130 185 2394 185 
L 1664 185 
C 1574 185 1562 185 1523 191 
C 1453 198 1446 211 1446 262 
C 1446 306 1459 344 1472 402 
L 2355 3917 
z
" transform="scale(0.015625)"/>
       <path id="CMR17-28" d="M 1958 -1562 
C 1958 -1556 1958 -1543 1939 -1524 
C 1645 -1223 858 -403 858 1596 
C 858 3595 1632 4408 1946 4729 
C 1946 4735 1958 4748 1958 4767 
C 1958 4787 1939 4800 1914 4800 
C 1843 4800 1299 4325 986 3620 
C 666 2909 576 2218 576 1603 
C 576 1141 621 360 1005 -467 
C 1312 -1133 1837 -1600 1914 -1600 
C 1946 -1600 1958 -1588 1958 -1562 
z
" transform="scale(0.015625)"/>
       <path id="CMR17-29" d="M 1683 1596 
C 1683 2057 1638 2839 1254 3665 
C 947 4332 422 4800 346 4800 
C 326 4800 301 4793 301 4761 
C 301 4748 307 4742 314 4729 
C 621 4408 1402 3595 1402 1603 
C 1402 -396 627 -1210 314 -1530 
C 307 -1543 301 -1549 301 -1562 
C 301 -1594 326 -1600 346 -1600 
C 416 -1600 960 -1127 1274 -422 
C 1594 289 1683 981 1683 1596 
z
" transform="scale(0.015625)"/>
       <path id="CMMI12-1b" d="M 3251 2406 
C 3334 2406 3546 2406 3546 2611 
C 3546 2752 3424 2752 3309 2752 
L 1894 2752 
C 934 2752 243 1685 243 932 
C 243 389 595 -64 1171 -64 
C 1926 -64 2752 746 2752 1704 
C 2752 1953 2694 2195 2541 2406 
L 3251 2406 
z
M 1178 64 
C 851 64 614 312 614 753 
C 614 1136 845 2406 1786 2406 
C 2061 2406 2368 2272 2368 1780 
C 2368 1557 2266 1021 2042 651 
C 1811 274 1466 64 1178 64 
z
" transform="scale(0.015625)"/>
      </defs>
      <use xlink:href="#CMMI12-52" transform="scale(0.996264)"/>
      <use xlink:href="#CMMI12-44" transform="translate(74.250826 -23.145899)scale(0.697382)"/>
      <use xlink:href="#CMR17-28" transform="translate(132.843329 -2.999327)scale(0.498132)"/>
      <use xlink:href="#CMSY10-3" transform="translate(150.981838 -23.145899)scale(0.697382)"/>
      <use xlink:href="#CMR17-29" transform="translate(185.851047 -23.145899)scale(0.697382)"/>
      <use xlink:href="#CMR17-28" transform="translate(211.0456 0)scale(0.996264)"/>
      <use xlink:href="#CMR17-31" transform="translate(246.326368 0)scale(0.996264)"/>
      <use xlink:href="#CMMI12-1b" transform="translate(292.016845 0)scale(0.996264)"/>
      <use xlink:href="#CMR17-29" transform="translate(351.036898 0)scale(0.996264)"/>
     </g>
    </g>
    <g id="patch_9">
     <path d="M 66.6 294.540128 
L 86.6 294.540128 
L 86.6 287.540128 
L 66.6 287.540128 
z
" style="fill: #466b3f; stroke: #466b3f; stroke-linejoin: miter"/>
    </g>
    <g id="text_25">
     <!-- $R_{D^(*)}  (2 \sigma)$ -->
     <g style="fill: #262626" transform="translate(94.6 294.540128)scale(0.1 -0.1)">
      <use xlink:href="#CMMI12-52" transform="scale(0.996264)"/>
      <use xlink:href="#CMMI12-44" transform="translate(74.250826 -23.145899)scale(0.697382)"/>
      <use xlink:href="#CMR17-28" transform="translate(132.843329 -2.999327)scale(0.498132)"/>
      <use xlink:href="#CMSY10-3" transform="translate(150.981838 -23.145899)scale(0.697382)"/>
      <use xlink:href="#CMR17-29" transform="translate(185.851047 -23.145899)scale(0.697382)"/>
      <use xlink:href="#CMR17-28" transform="translate(211.0456 0)scale(0.996264)"/>
      <use xlink:href="#CMR17-32" transform="translate(246.326368 0)scale(0.996264)"/>
      <use xlink:href="#CMMI12-1b" transform="translate(292.016845 0)scale(0.996264)"/>
      <use xlink:href="#CMR17-29" transform="translate(351.036898 0)scale(0.996264)"/>
     </g>
    </g>
   </g>
  </g>
 </g>
 <defs>
  <clipPath id="p2a65ffe228">
   <rect x="57.6" y="41.472" width="357.12" height="266.112"/>
  </clipPath>
 </defs>
</svg>
