<?xml version="1.0" encoding="utf-8" standalone="no"?>
<!DOCTYPE svg PUBLIC "-//W3C//DTD SVG 1.1//EN"
  "http://www.w3.org/Graphics/SVG/1.1/DTD/svg11.dtd">
<svg xmlns:xlink="http://www.w3.org/1999/xlink" width="432pt" height="288pt" viewBox="0 0 432 288" xmlns="http://www.w3.org/2000/svg" version="1.1">
 <metadata>
  <rdf:RDF xmlns:dc="http://purl.org/dc/elements/1.1/" xmlns:cc="http://creativecommons.org/ns#" xmlns:rdf="http://www.w3.org/1999/02/22-rdf-syntax-ns#">
   <cc:Work>
    <dc:type rdf:resource="http://purl.org/dc/dcmitype/StillImage"/>
    <dc:date>2023-11-03T06:45:57.348455</dc:date>
    <dc:format>image/svg+xml</dc:format>
    <dc:creator>
     <cc:Agent>
      <dc:title>Matplotlib v3.5.1, https://matplotlib.org/</dc:title>
     </cc:Agent>
    </dc:creator>
   </cc:Work>
  </rdf:RDF>
 </metadata>
 <defs>
  <style type="text/css">*{stroke-linejoin: round; stroke-linecap: butt}</style>
 </defs>
 <g id="figure_1">
  <g id="patch_1">
   <path d="M 0 288 
L 432 288 
L 432 0 
L 0 0 
L 0 288 
z
" style="fill: none"/>
  </g>
  <g id="axes_1">
   <g id="patch_2">
    <path d="M 54 252 
L 388.8 252 
L 388.8 34.56 
L 54 34.56 
z
" style="fill: #ffffff"/>
   </g>
   <g id="matplotlib.axis_1">
    <g id="xtick_1">
     <g id="line2d_1">
      <defs>
       <path id="m25f7a3d627" d="M 0 0 
L 0 -3.5 
" style="stroke: #262626; stroke-width: 0.8"/>
      </defs>
      <g>
       <use xlink:href="#m25f7a3d627" x="54" y="252" style="fill: #262626; stroke: #262626; stroke-width: 0.8"/>
      </g>
     </g>
     <g id="line2d_2">
      <defs>
       <path id="m5cc28424ca" d="M 0 0 
L 0 3.5 
" style="stroke: #262626; stroke-width: 0.8"/>
      </defs>
      <g>
       <use xlink:href="#m5cc28424ca" x="54" y="34.56" style="fill: #262626; stroke: #262626; stroke-width: 0.8"/>
      </g>
     </g>
     <g id="text_1">
      <!-- $\mathdefault{10^{1}}$ -->
      <g style="fill: #262626" transform="translate(44.662898 265.185876)scale(0.14 -0.14)">
       <defs>
        <path id="CMR17-31" d="M 1702 4083 
C 1702 4217 1696 4224 1606 4224 
C 1357 3927 979 3833 621 3820 
C 602 3820 570 3820 563 3808 
C 557 3795 557 3782 557 3648 
C 755 3648 1088 3686 1344 3839 
L 1344 467 
C 1344 243 1331 166 781 166 
L 589 166 
L 589 0 
C 896 6 1216 12 1523 12 
C 1830 12 2150 6 2458 0 
L 2458 166 
L 2266 166 
C 1715 166 1702 236 1702 467 
L 1702 4083 
z
" transform="scale(0.015625)"/>
        <path id="CMR17-30" d="M 2688 2038 
C 2688 2430 2682 3099 2413 3613 
C 2176 4063 1798 4224 1466 4224 
C 1158 4224 768 4082 525 3620 
C 269 3137 243 2539 243 2038 
C 243 1671 250 1112 448 623 
C 723 -39 1216 -128 1466 -128 
C 1760 -128 2208 -7 2470 604 
C 2662 1048 2688 1568 2688 2038 
z
M 1466 -26 
C 1056 -26 813 328 723 816 
C 653 1196 653 1749 653 2109 
C 653 2604 653 3015 736 3407 
C 858 3954 1216 4121 1466 4121 
C 1728 4121 2067 3947 2189 3420 
C 2272 3054 2278 2623 2278 2109 
C 2278 1691 2278 1176 2202 797 
C 2067 96 1690 -26 1466 -26 
z
" transform="scale(0.015625)"/>
       </defs>
       <use xlink:href="#CMR17-31" transform="scale(0.996264)"/>
       <use xlink:href="#CMR17-30" transform="translate(45.690477 0)scale(0.996264)"/>
       <use xlink:href="#CMR17-31" transform="translate(91.380954 36.153639)scale(0.697382)"/>
      </g>
     </g>
    </g>
    <g id="xtick_2">
     <g id="line2d_3">
      <g>
       <use xlink:href="#m25f7a3d627" x="165.6" y="252" style="fill: #262626; stroke: #262626; stroke-width: 0.8"/>
      </g>
     </g>
     <g id="line2d_4">
      <g>
       <use xlink:href="#m5cc28424ca" x="165.6" y="34.56" style="fill: #262626; stroke: #262626; stroke-width: 0.8"/>
      </g>
     </g>
     <g id="text_2">
      <!-- $\mathdefault{10^{2}}$ -->
      <g style="fill: #262626" transform="translate(156.262898 265.185876)scale(0.14 -0.14)">
       <defs>
        <path id="CMR17-32" d="M 2669 990 
L 2554 990 
C 2490 537 2438 460 2413 422 
C 2381 371 1920 371 1830 371 
L 602 371 
C 832 620 1280 1073 1824 1596 
C 2214 1966 2669 2400 2669 3033 
C 2669 3788 2067 4224 1395 4224 
C 691 4224 262 3603 262 3027 
C 262 2777 448 2745 525 2745 
C 589 2745 781 2783 781 3007 
C 781 3206 614 3264 525 3264 
C 486 3264 448 3257 422 3244 
C 544 3788 915 4057 1306 4057 
C 1862 4057 2227 3616 2227 3033 
C 2227 2477 1901 1998 1536 1583 
L 262 147 
L 262 0 
L 2515 0 
L 2669 990 
z
" transform="scale(0.015625)"/>
       </defs>
       <use xlink:href="#CMR17-31" transform="scale(0.996264)"/>
       <use xlink:href="#CMR17-30" transform="translate(45.690477 0)scale(0.996264)"/>
       <use xlink:href="#CMR17-32" transform="translate(91.380954 36.153639)scale(0.697382)"/>
      </g>
     </g>
    </g>
    <g id="xtick_3">
     <g id="line2d_5">
      <g>
       <use xlink:href="#m25f7a3d627" x="277.2" y="252" style="fill: #262626; stroke: #262626; stroke-width: 0.8"/>
      </g>
     </g>
     <g id="line2d_6">
      <g>
       <use xlink:href="#m5cc28424ca" x="277.2" y="34.56" style="fill: #262626; stroke: #262626; stroke-width: 0.8"/>
      </g>
     </g>
     <g id="text_3">
      <!-- $\mathdefault{10^{3}}$ -->
      <g style="fill: #262626" transform="translate(267.862898 265.185876)scale(0.14 -0.14)">
       <defs>
        <path id="CMR17-33" d="M 1414 2176 
C 1984 2176 2234 1673 2234 1094 
C 2234 322 1824 25 1453 25 
C 1114 25 563 193 390 691 
C 422 678 454 678 486 678 
C 640 678 755 780 755 947 
C 755 1132 614 1216 486 1216 
C 378 1216 211 1164 211 927 
C 211 335 787 -128 1466 -128 
C 2176 -128 2720 432 2720 1087 
C 2720 1718 2208 2176 1600 2246 
C 2086 2347 2554 2776 2554 3353 
C 2554 3856 2048 4224 1472 4224 
C 890 4224 378 3862 378 3347 
C 378 3123 544 3084 627 3084 
C 762 3084 877 3167 877 3334 
C 877 3500 762 3584 627 3584 
C 602 3584 570 3584 544 3571 
C 730 3999 1235 4076 1459 4076 
C 1683 4076 2106 3966 2106 3347 
C 2106 3167 2080 2851 1862 2574 
C 1670 2329 1453 2316 1242 2297 
C 1210 2297 1062 2284 1037 2284 
C 992 2278 966 2272 966 2227 
C 966 2182 973 2176 1101 2176 
L 1414 2176 
z
" transform="scale(0.015625)"/>
       </defs>
       <use xlink:href="#CMR17-31" transform="scale(0.996264)"/>
       <use xlink:href="#CMR17-30" transform="translate(45.690477 0)scale(0.996264)"/>
       <use xlink:href="#CMR17-33" transform="translate(91.380954 36.153639)scale(0.697382)"/>
      </g>
     </g>
    </g>
    <g id="xtick_4">
     <g id="line2d_7">
      <g>
       <use xlink:href="#m25f7a3d627" x="388.8" y="252" style="fill: #262626; stroke: #262626; stroke-width: 0.8"/>
      </g>
     </g>
     <g id="line2d_8">
      <g>
       <use xlink:href="#m5cc28424ca" x="388.8" y="34.56" style="fill: #262626; stroke: #262626; stroke-width: 0.8"/>
      </g>
     </g>
     <g id="text_4">
      <!-- $\mathdefault{10^{4}}$ -->
      <g style="fill: #262626" transform="translate(379.462898 265.185876)scale(0.14 -0.14)">
       <defs>
        <path id="CMR17-34" d="M 2150 4147 
C 2150 4281 2144 4288 2029 4288 
L 128 1254 
L 128 1088 
L 1779 1088 
L 1779 460 
C 1779 230 1766 166 1318 166 
L 1197 166 
L 1197 0 
C 1402 12 1747 12 1965 12 
C 2182 12 2528 12 2733 0 
L 2733 166 
L 2611 166 
C 2163 166 2150 230 2150 460 
L 2150 1088 
L 2803 1088 
L 2803 1254 
L 2150 1254 
L 2150 4147 
z
M 1798 3723 
L 1798 1254 
L 256 1254 
L 1798 3723 
z
" transform="scale(0.015625)"/>
       </defs>
       <use xlink:href="#CMR17-31" transform="scale(0.996264)"/>
       <use xlink:href="#CMR17-30" transform="translate(45.690477 0)scale(0.996264)"/>
       <use xlink:href="#CMR17-34" transform="translate(91.380954 36.153639)scale(0.697382)"/>
      </g>
     </g>
    </g>
    <g id="xtick_5">
     <g id="line2d_9">
      <defs>
       <path id="m177ac9fc65" d="M 0 0 
L 0 2 
" style="stroke: #262626; stroke-width: 0.6"/>
      </defs>
      <g>
       <use xlink:href="#m177ac9fc65" x="87.594948" y="252" style="fill: #262626; stroke: #262626; stroke-width: 0.6"/>
      </g>
     </g>
    </g>
    <g id="xtick_6">
     <g id="line2d_10">
      <g>
       <use xlink:href="#m177ac9fc65" x="107.246732" y="252" style="fill: #262626; stroke: #262626; stroke-width: 0.6"/>
      </g>
     </g>
    </g>
    <g id="xtick_7">
     <g id="line2d_11">
      <g>
       <use xlink:href="#m177ac9fc65" x="121.189895" y="252" style="fill: #262626; stroke: #262626; stroke-width: 0.6"/>
      </g>
     </g>
    </g>
    <g id="xtick_8">
     <g id="line2d_12">
      <g>
       <use xlink:href="#m177ac9fc65" x="132.005052" y="252" style="fill: #262626; stroke: #262626; stroke-width: 0.6"/>
      </g>
     </g>
    </g>
    <g id="xtick_9">
     <g id="line2d_13">
      <g>
       <use xlink:href="#m177ac9fc65" x="140.84168" y="252" style="fill: #262626; stroke: #262626; stroke-width: 0.6"/>
      </g>
     </g>
    </g>
    <g id="xtick_10">
     <g id="line2d_14">
      <g>
       <use xlink:href="#m177ac9fc65" x="148.312941" y="252" style="fill: #262626; stroke: #262626; stroke-width: 0.6"/>
      </g>
     </g>
    </g>
    <g id="xtick_11">
     <g id="line2d_15">
      <g>
       <use xlink:href="#m177ac9fc65" x="154.784843" y="252" style="fill: #262626; stroke: #262626; stroke-width: 0.6"/>
      </g>
     </g>
    </g>
    <g id="xtick_12">
     <g id="line2d_16">
      <g>
       <use xlink:href="#m177ac9fc65" x="160.493464" y="252" style="fill: #262626; stroke: #262626; stroke-width: 0.6"/>
      </g>
     </g>
    </g>
    <g id="xtick_13">
     <g id="line2d_17">
      <g>
       <use xlink:href="#m177ac9fc65" x="199.194948" y="252" style="fill: #262626; stroke: #262626; stroke-width: 0.6"/>
      </g>
     </g>
    </g>
    <g id="xtick_14">
     <g id="line2d_18">
      <g>
       <use xlink:href="#m177ac9fc65" x="218.846732" y="252" style="fill: #262626; stroke: #262626; stroke-width: 0.6"/>
      </g>
     </g>
    </g>
    <g id="xtick_15">
     <g id="line2d_19">
      <g>
       <use xlink:href="#m177ac9fc65" x="232.789895" y="252" style="fill: #262626; stroke: #262626; stroke-width: 0.6"/>
      </g>
     </g>
    </g>
    <g id="xtick_16">
     <g id="line2d_20">
      <g>
       <use xlink:href="#m177ac9fc65" x="243.605052" y="252" style="fill: #262626; stroke: #262626; stroke-width: 0.6"/>
      </g>
     </g>
    </g>
    <g id="xtick_17">
     <g id="line2d_21">
      <g>
       <use xlink:href="#m177ac9fc65" x="252.44168" y="252" style="fill: #262626; stroke: #262626; stroke-width: 0.6"/>
      </g>
     </g>
    </g>
    <g id="xtick_18">
     <g id="line2d_22">
      <g>
       <use xlink:href="#m177ac9fc65" x="259.912941" y="252" style="fill: #262626; stroke: #262626; stroke-width: 0.6"/>
      </g>
     </g>
    </g>
    <g id="xtick_19">
     <g id="line2d_23">
      <g>
       <use xlink:href="#m177ac9fc65" x="266.384843" y="252" style="fill: #262626; stroke: #262626; stroke-width: 0.6"/>
      </g>
     </g>
    </g>
    <g id="xtick_20">
     <g id="line2d_24">
      <g>
       <use xlink:href="#m177ac9fc65" x="272.093464" y="252" style="fill: #262626; stroke: #262626; stroke-width: 0.6"/>
      </g>
     </g>
    </g>
    <g id="xtick_21">
     <g id="line2d_25">
      <g>
       <use xlink:href="#m177ac9fc65" x="310.794948" y="252" style="fill: #262626; stroke: #262626; stroke-width: 0.6"/>
      </g>
     </g>
    </g>
    <g id="xtick_22">
     <g id="line2d_26">
      <g>
       <use xlink:href="#m177ac9fc65" x="330.446732" y="252" style="fill: #262626; stroke: #262626; stroke-width: 0.6"/>
      </g>
     </g>
    </g>
    <g id="xtick_23">
     <g id="line2d_27">
      <g>
       <use xlink:href="#m177ac9fc65" x="344.389895" y="252" style="fill: #262626; stroke: #262626; stroke-width: 0.6"/>
      </g>
     </g>
    </g>
    <g id="xtick_24">
     <g id="line2d_28">
      <g>
       <use xlink:href="#m177ac9fc65" x="355.205052" y="252" style="fill: #262626; stroke: #262626; stroke-width: 0.6"/>
      </g>
     </g>
    </g>
    <g id="xtick_25">
     <g id="line2d_29">
      <g>
       <use xlink:href="#m177ac9fc65" x="364.04168" y="252" style="fill: #262626; stroke: #262626; stroke-width: 0.6"/>
      </g>
     </g>
    </g>
    <g id="xtick_26">
     <g id="line2d_30">
      <g>
       <use xlink:href="#m177ac9fc65" x="371.512941" y="252" style="fill: #262626; stroke: #262626; stroke-width: 0.6"/>
      </g>
     </g>
    </g>
    <g id="xtick_27">
     <g id="line2d_31">
      <g>
       <use xlink:href="#m177ac9fc65" x="377.984843" y="252" style="fill: #262626; stroke: #262626; stroke-width: 0.6"/>
      </g>
     </g>
    </g>
    <g id="xtick_28">
     <g id="line2d_32">
      <g>
       <use xlink:href="#m177ac9fc65" x="383.693464" y="252" style="fill: #262626; stroke: #262626; stroke-width: 0.6"/>
      </g>
     </g>
    </g>
    <g id="text_5">
     <!-- $\langle v \rangle ~[ \mathrm{km/s}]$ -->
     <g style="fill: #262626" transform="translate(186.602983 283.853073)scale(0.16 -0.16)">
      <defs>
       <path id="CMSY10-68" d="M 2099 4557 
C 2131 4627 2131 4640 2131 4672 
C 2131 4742 2074 4800 2003 4800 
C 1946 4800 1901 4768 1856 4653 
L 736 1715 
C 723 1677 704 1638 704 1600 
C 704 1580 704 1568 736 1491 
L 1856 -1447 
C 1882 -1517 1914 -1600 2003 -1600 
C 2074 -1600 2131 -1543 2131 -1472 
C 2131 -1453 2131 -1440 2099 -1370 
L 966 1600 
L 2099 4557 
z
" transform="scale(0.015625)"/>
       <path id="CMMI12-76" d="M 2925 2388 
C 2925 2790 2720 2816 2669 2816 
C 2515 2816 2374 2662 2374 2534 
C 2374 2458 2419 2413 2445 2388 
C 2509 2330 2675 2158 2675 1826 
C 2675 1558 2291 64 1523 64 
C 1133 64 1056 389 1056 625 
C 1056 945 1203 1392 1376 1851 
C 1478 2113 1504 2177 1504 2305 
C 1504 2573 1312 2816 998 2816 
C 410 2816 173 1890 173 1838 
C 173 1813 198 1781 243 1781 
C 301 1781 307 1807 333 1896 
C 486 2445 736 2687 979 2687 
C 1037 2687 1146 2687 1146 2477 
C 1146 2311 1075 2126 979 1883 
C 672 1066 672 868 672 715 
C 672 574 691 313 890 134 
C 1120 -64 1440 -64 1498 -64 
C 2560 -64 2925 2024 2925 2388 
z
" transform="scale(0.015625)"/>
       <path id="CMSY10-69" d="M 1747 1491 
C 1779 1568 1779 1580 1779 1600 
C 1779 1619 1779 1632 1747 1709 
L 627 4653 
C 589 4761 550 4800 480 4800 
C 410 4800 352 4742 352 4672 
C 352 4653 352 4640 384 4569 
L 1517 1600 
L 384 -1357 
C 352 -1428 352 -1440 352 -1472 
C 352 -1543 410 -1600 480 -1600 
C 563 -1600 589 -1536 614 -1472 
L 1747 1491 
z
" transform="scale(0.015625)"/>
       <path id="CMR17-5b" d="M 1504 -1600 
L 1504 -1376 
L 902 -1376 
L 902 4575 
L 1504 4575 
L 1504 4800 
L 678 4800 
L 678 -1600 
L 1504 -1600 
z
" transform="scale(0.015625)"/>
       <path id="CMR17-6b" d="M 1670 1679 
C 1664 1692 1632 1730 1632 1749 
C 1632 1762 2086 2175 2144 2226 
C 2509 2532 2739 2563 2906 2570 
L 2906 2735 
C 2867 2735 2854 2735 2848 2729 
L 2534 2722 
C 2355 2722 2080 2722 1907 2735 
L 1907 2570 
C 1997 2563 2061 2513 2061 2423 
C 2061 2296 1933 2175 1926 2175 
L 960 1298 
L 960 4416 
L 198 4345 
L 198 4179 
C 576 4179 634 4141 634 3835 
L 634 439 
C 634 198 608 166 198 166 
L 198 0 
C 352 12 634 12 794 12 
C 954 12 1235 12 1389 0 
L 1389 166 
C 979 166 954 191 954 439 
L 954 1139 
L 1395 1540 
L 2042 586 
C 2118 471 2182 382 2182 299 
C 2182 185 2067 166 1990 166 
L 1990 0 
C 2144 12 2419 12 2579 12 
C 2694 12 2931 6 3040 0 
L 3040 166 
C 2739 166 2669 223 2477 503 
L 1670 1679 
z
" transform="scale(0.015625)"/>
       <path id="CMR17-6d" d="M 4326 1954 
C 4326 2276 4269 2816 3507 2816 
C 3072 2816 2771 2520 2656 2173 
L 2650 2173 
C 2573 2700 2195 2816 1837 2816 
C 1331 2816 1069 2424 973 2166 
L 966 2166 
L 966 2816 
L 211 2745 
L 211 2578 
C 589 2578 646 2540 646 2231 
L 646 443 
C 646 198 621 166 211 166 
L 211 0 
C 365 12 646 12 813 12 
C 979 12 1267 12 1421 0 
L 1421 166 
C 1011 166 986 192 986 443 
L 986 1678 
C 986 2269 1344 2713 1792 2713 
C 2266 2713 2317 2289 2317 1980 
L 2317 443 
C 2317 198 2291 166 1882 166 
L 1882 0 
C 2035 12 2317 12 2483 12 
C 2650 12 2938 12 3091 0 
L 3091 166 
C 2682 166 2656 192 2656 443 
L 2656 1678 
C 2656 2269 3014 2713 3462 2713 
C 3936 2713 3987 2289 3987 1980 
L 3987 443 
C 3987 198 3962 166 3552 166 
L 3552 0 
C 3706 12 3987 12 4154 12 
C 4320 12 4608 12 4762 0 
L 4762 166 
C 4352 166 4326 192 4326 443 
L 4326 1954 
z
" transform="scale(0.015625)"/>
       <path id="CMMI12-3d" d="M 2746 4563 
C 2746 4569 2784 4665 2784 4678 
C 2784 4755 2720 4800 2669 4800 
C 2637 4800 2579 4800 2528 4659 
L 384 -1364 
C 384 -1370 346 -1466 346 -1479 
C 346 -1556 410 -1600 461 -1600 
C 499 -1600 557 -1594 602 -1460 
L 2746 4563 
z
" transform="scale(0.015625)"/>
       <path id="CMR17-73" d="M 1978 2688 
C 1978 2803 1971 2809 1933 2809 
C 1907 2809 1901 2803 1824 2707 
C 1805 2681 1747 2617 1728 2592 
C 1523 2809 1235 2816 1126 2816 
C 416 2816 160 2444 160 2073 
C 160 1497 813 1363 998 1324 
C 1402 1241 1542 1216 1677 1100 
C 1760 1024 1901 883 1901 652 
C 1901 384 1747 38 1158 38 
C 602 38 403 460 288 1024 
C 269 1113 269 1120 218 1120 
C 166 1120 160 1113 160 985 
L 160 64 
C 160 -52 166 -58 205 -58 
C 237 -58 243 -52 275 0 
C 314 57 410 211 448 275 
C 576 102 800 -64 1158 -64 
C 1792 -64 2131 281 2131 780 
C 2131 1107 1958 1280 1875 1356 
C 1683 1555 1459 1600 1190 1651 
C 838 1728 390 1817 390 2208 
C 390 2374 480 2726 1126 2726 
C 1811 2726 1850 2086 1862 1881 
C 1869 1849 1901 1843 1920 1843 
C 1978 1843 1978 1862 1978 1971 
L 1978 2688 
z
" transform="scale(0.015625)"/>
       <path id="CMR17-5d" d="M 915 4800 
L 90 4800 
L 90 4575 
L 691 4575 
L 691 -1376 
L 90 -1376 
L 90 -1600 
L 915 -1600 
L 915 4800 
z
" transform="scale(0.015625)"/>
      </defs>
      <use xlink:href="#CMSY10-68" transform="scale(0.996264)"/>
      <use xlink:href="#CMMI12-76" transform="translate(38.743734 0)scale(0.996264)"/>
      <use xlink:href="#CMSY10-69" transform="translate(89.478907 0)scale(0.996264)"/>
      <use xlink:href="#CMR17-5b" transform="translate(158.298607 0)scale(0.996264)"/>
      <use xlink:href="#CMR17-6b" transform="translate(183.169666 0)scale(0.996264)"/>
      <use xlink:href="#CMR17-6d" transform="translate(231.462582 0)scale(0.996264)"/>
      <use xlink:href="#CMMI12-3d" transform="translate(308.382172 0)scale(0.996264)"/>
      <use xlink:href="#CMR17-73" transform="translate(357.15709 0)scale(0.996264)"/>
      <use xlink:href="#CMR17-5d" transform="translate(392.958428 0)scale(0.996264)"/>
     </g>
    </g>
   </g>
   <g id="matplotlib.axis_2">
    <g id="ytick_1">
     <g id="line2d_33">
      <defs>
       <path id="mf9acb2754d" d="M 0 0 
L 3.5 0 
" style="stroke: #262626; stroke-width: 0.8"/>
      </defs>
      <g>
       <use xlink:href="#mf9acb2754d" x="54" y="252" style="fill: #262626; stroke: #262626; stroke-width: 0.8"/>
      </g>
     </g>
     <g id="line2d_34">
      <defs>
       <path id="m68db0ad389" d="M 0 0 
L -3.5 0 
" style="stroke: #262626; stroke-width: 0.8"/>
      </defs>
      <g>
       <use xlink:href="#m68db0ad389" x="388.8" y="252" style="fill: #262626; stroke: #262626; stroke-width: 0.8"/>
      </g>
     </g>
     <g id="text_6">
      <!-- $\mathdefault{10^{0}}$ -->
      <g style="fill: #262626" transform="translate(31.825796 256.842938)scale(0.14 -0.14)">
       <use xlink:href="#CMR17-31" transform="scale(0.996264)"/>
       <use xlink:href="#CMR17-30" transform="translate(45.690477 0)scale(0.996264)"/>
       <use xlink:href="#CMR17-30" transform="translate(91.380954 36.153639)scale(0.697382)"/>
      </g>
     </g>
    </g>
    <g id="ytick_2">
     <g id="line2d_35">
      <g>
       <use xlink:href="#mf9acb2754d" x="54" y="208.512" style="fill: #262626; stroke: #262626; stroke-width: 0.8"/>
      </g>
     </g>
     <g id="line2d_36">
      <g>
       <use xlink:href="#m68db0ad389" x="388.8" y="208.512" style="fill: #262626; stroke: #262626; stroke-width: 0.8"/>
      </g>
     </g>
     <g id="text_7">
      <!-- $\mathdefault{10^{1}}$ -->
      <g style="fill: #262626" transform="translate(31.825796 213.354938)scale(0.14 -0.14)">
       <use xlink:href="#CMR17-31" transform="scale(0.996264)"/>
       <use xlink:href="#CMR17-30" transform="translate(45.690477 0)scale(0.996264)"/>
       <use xlink:href="#CMR17-31" transform="translate(91.380954 36.153639)scale(0.697382)"/>
      </g>
     </g>
    </g>
    <g id="ytick_3">
     <g id="line2d_37">
      <g>
       <use xlink:href="#mf9acb2754d" x="54" y="165.024" style="fill: #262626; stroke: #262626; stroke-width: 0.8"/>
      </g>
     </g>
     <g id="line2d_38">
      <g>
       <use xlink:href="#m68db0ad389" x="388.8" y="165.024" style="fill: #262626; stroke: #262626; stroke-width: 0.8"/>
      </g>
     </g>
     <g id="text_8">
      <!-- $\mathdefault{10^{2}}$ -->
      <g style="fill: #262626" transform="translate(31.825796 169.866938)scale(0.14 -0.14)">
       <use xlink:href="#CMR17-31" transform="scale(0.996264)"/>
       <use xlink:href="#CMR17-30" transform="translate(45.690477 0)scale(0.996264)"/>
       <use xlink:href="#CMR17-32" transform="translate(91.380954 36.153639)scale(0.697382)"/>
      </g>
     </g>
    </g>
    <g id="ytick_4">
     <g id="line2d_39">
      <g>
       <use xlink:href="#mf9acb2754d" x="54" y="121.536" style="fill: #262626; stroke: #262626; stroke-width: 0.8"/>
      </g>
     </g>
     <g id="line2d_40">
      <g>
       <use xlink:href="#m68db0ad389" x="388.8" y="121.536" style="fill: #262626; stroke: #262626; stroke-width: 0.8"/>
      </g>
     </g>
     <g id="text_9">
      <!-- $\mathdefault{10^{3}}$ -->
      <g style="fill: #262626" transform="translate(31.825796 126.378938)scale(0.14 -0.14)">
       <use xlink:href="#CMR17-31" transform="scale(0.996264)"/>
       <use xlink:href="#CMR17-30" transform="translate(45.690477 0)scale(0.996264)"/>
       <use xlink:href="#CMR17-33" transform="translate(91.380954 36.153639)scale(0.697382)"/>
      </g>
     </g>
    </g>
    <g id="ytick_5">
     <g id="line2d_41">
      <g>
       <use xlink:href="#mf9acb2754d" x="54" y="78.048" style="fill: #262626; stroke: #262626; stroke-width: 0.8"/>
      </g>
     </g>
     <g id="line2d_42">
      <g>
       <use xlink:href="#m68db0ad389" x="388.8" y="78.048" style="fill: #262626; stroke: #262626; stroke-width: 0.8"/>
      </g>
     </g>
     <g id="text_10">
      <!-- $\mathdefault{10^{4}}$ -->
      <g style="fill: #262626" transform="translate(31.825796 82.890938)scale(0.14 -0.14)">
       <use xlink:href="#CMR17-31" transform="scale(0.996264)"/>
       <use xlink:href="#CMR17-30" transform="translate(45.690477 0)scale(0.996264)"/>
       <use xlink:href="#CMR17-34" transform="translate(91.380954 36.153639)scale(0.697382)"/>
      </g>
     </g>
    </g>
    <g id="ytick_6">
     <g id="line2d_43">
      <g>
       <use xlink:href="#mf9acb2754d" x="54" y="34.56" style="fill: #262626; stroke: #262626; stroke-width: 0.8"/>
      </g>
     </g>
     <g id="line2d_44">
      <g>
       <use xlink:href="#m68db0ad389" x="388.8" y="34.56" style="fill: #262626; stroke: #262626; stroke-width: 0.8"/>
      </g>
     </g>
     <g id="text_11">
      <!-- $\mathdefault{10^{5}}$ -->
      <g style="fill: #262626" transform="translate(31.825796 39.402938)scale(0.14 -0.14)">
       <defs>
        <path id="CMR17-35" d="M 730 3750 
C 794 3724 1056 3641 1325 3641 
C 1920 3641 2246 3961 2432 4140 
C 2432 4191 2432 4224 2394 4224 
C 2387 4224 2374 4224 2323 4198 
C 2099 4102 1837 4032 1517 4032 
C 1325 4032 1037 4055 723 4191 
C 653 4224 640 4224 634 4224 
C 602 4224 595 4217 595 4090 
L 595 2231 
C 595 2113 595 2080 659 2080 
C 691 2080 704 2093 736 2139 
C 941 2435 1222 2560 1542 2560 
C 1766 2560 2246 2415 2246 1293 
C 2246 1087 2246 716 2054 422 
C 1894 159 1645 25 1370 25 
C 947 25 518 319 403 812 
C 429 806 480 793 506 793 
C 589 793 749 838 749 1036 
C 749 1209 627 1280 506 1280 
C 358 1280 262 1190 262 1011 
C 262 454 704 -128 1382 -128 
C 2042 -128 2669 441 2669 1267 
C 2669 2054 2170 2662 1549 2662 
C 1222 2662 947 2540 730 2304 
L 730 3750 
z
" transform="scale(0.015625)"/>
       </defs>
       <use xlink:href="#CMR17-31" transform="scale(0.996264)"/>
       <use xlink:href="#CMR17-30" transform="translate(45.690477 0)scale(0.996264)"/>
       <use xlink:href="#CMR17-35" transform="translate(91.380954 36.153639)scale(0.697382)"/>
      </g>
     </g>
    </g>
    <g id="ytick_7">
     <g id="line2d_45">
      <defs>
       <path id="m7daded3baf" d="M 0 0 
L -2 0 
" style="stroke: #262626; stroke-width: 0.6"/>
      </defs>
      <g>
       <use xlink:href="#m7daded3baf" x="54" y="238.908808" style="fill: #262626; stroke: #262626; stroke-width: 0.6"/>
      </g>
     </g>
    </g>
    <g id="ytick_8">
     <g id="line2d_46">
      <g>
       <use xlink:href="#m7daded3baf" x="54" y="231.250951" style="fill: #262626; stroke: #262626; stroke-width: 0.6"/>
      </g>
     </g>
    </g>
    <g id="ytick_9">
     <g id="line2d_47">
      <g>
       <use xlink:href="#m7daded3baf" x="54" y="225.817615" style="fill: #262626; stroke: #262626; stroke-width: 0.6"/>
      </g>
     </g>
    </g>
    <g id="ytick_10">
     <g id="line2d_48">
      <g>
       <use xlink:href="#m7daded3baf" x="54" y="221.603192" style="fill: #262626; stroke: #262626; stroke-width: 0.6"/>
      </g>
     </g>
    </g>
    <g id="ytick_11">
     <g id="line2d_49">
      <g>
       <use xlink:href="#m7daded3baf" x="54" y="218.159758" style="fill: #262626; stroke: #262626; stroke-width: 0.6"/>
      </g>
     </g>
    </g>
    <g id="ytick_12">
     <g id="line2d_50">
      <g>
       <use xlink:href="#m7daded3baf" x="54" y="215.248376" style="fill: #262626; stroke: #262626; stroke-width: 0.6"/>
      </g>
     </g>
    </g>
    <g id="ytick_13">
     <g id="line2d_51">
      <g>
       <use xlink:href="#m7daded3baf" x="54" y="212.726423" style="fill: #262626; stroke: #262626; stroke-width: 0.6"/>
      </g>
     </g>
    </g>
    <g id="ytick_14">
     <g id="line2d_52">
      <g>
       <use xlink:href="#m7daded3baf" x="54" y="210.501902" style="fill: #262626; stroke: #262626; stroke-width: 0.6"/>
      </g>
     </g>
    </g>
    <g id="ytick_15">
     <g id="line2d_53">
      <g>
       <use xlink:href="#m7daded3baf" x="54" y="195.420808" style="fill: #262626; stroke: #262626; stroke-width: 0.6"/>
      </g>
     </g>
    </g>
    <g id="ytick_16">
     <g id="line2d_54">
      <g>
       <use xlink:href="#m7daded3baf" x="54" y="187.762951" style="fill: #262626; stroke: #262626; stroke-width: 0.6"/>
      </g>
     </g>
    </g>
    <g id="ytick_17">
     <g id="line2d_55">
      <g>
       <use xlink:href="#m7daded3baf" x="54" y="182.329615" style="fill: #262626; stroke: #262626; stroke-width: 0.6"/>
      </g>
     </g>
    </g>
    <g id="ytick_18">
     <g id="line2d_56">
      <g>
       <use xlink:href="#m7daded3baf" x="54" y="178.115192" style="fill: #262626; stroke: #262626; stroke-width: 0.6"/>
      </g>
     </g>
    </g>
    <g id="ytick_19">
     <g id="line2d_57">
      <g>
       <use xlink:href="#m7daded3baf" x="54" y="174.671758" style="fill: #262626; stroke: #262626; stroke-width: 0.6"/>
      </g>
     </g>
    </g>
    <g id="ytick_20">
     <g id="line2d_58">
      <g>
       <use xlink:href="#m7daded3baf" x="54" y="171.760376" style="fill: #262626; stroke: #262626; stroke-width: 0.6"/>
      </g>
     </g>
    </g>
    <g id="ytick_21">
     <g id="line2d_59">
      <g>
       <use xlink:href="#m7daded3baf" x="54" y="169.238423" style="fill: #262626; stroke: #262626; stroke-width: 0.6"/>
      </g>
     </g>
    </g>
    <g id="ytick_22">
     <g id="line2d_60">
      <g>
       <use xlink:href="#m7daded3baf" x="54" y="167.013902" style="fill: #262626; stroke: #262626; stroke-width: 0.6"/>
      </g>
     </g>
    </g>
    <g id="ytick_23">
     <g id="line2d_61">
      <g>
       <use xlink:href="#m7daded3baf" x="54" y="151.932808" style="fill: #262626; stroke: #262626; stroke-width: 0.6"/>
      </g>
     </g>
    </g>
    <g id="ytick_24">
     <g id="line2d_62">
      <g>
       <use xlink:href="#m7daded3baf" x="54" y="144.274951" style="fill: #262626; stroke: #262626; stroke-width: 0.6"/>
      </g>
     </g>
    </g>
    <g id="ytick_25">
     <g id="line2d_63">
      <g>
       <use xlink:href="#m7daded3baf" x="54" y="138.841615" style="fill: #262626; stroke: #262626; stroke-width: 0.6"/>
      </g>
     </g>
    </g>
    <g id="ytick_26">
     <g id="line2d_64">
      <g>
       <use xlink:href="#m7daded3baf" x="54" y="134.627192" style="fill: #262626; stroke: #262626; stroke-width: 0.6"/>
      </g>
     </g>
    </g>
    <g id="ytick_27">
     <g id="line2d_65">
      <g>
       <use xlink:href="#m7daded3baf" x="54" y="131.183758" style="fill: #262626; stroke: #262626; stroke-width: 0.6"/>
      </g>
     </g>
    </g>
    <g id="ytick_28">
     <g id="line2d_66">
      <g>
       <use xlink:href="#m7daded3baf" x="54" y="128.272376" style="fill: #262626; stroke: #262626; stroke-width: 0.6"/>
      </g>
     </g>
    </g>
    <g id="ytick_29">
     <g id="line2d_67">
      <g>
       <use xlink:href="#m7daded3baf" x="54" y="125.750423" style="fill: #262626; stroke: #262626; stroke-width: 0.6"/>
      </g>
     </g>
    </g>
    <g id="ytick_30">
     <g id="line2d_68">
      <g>
       <use xlink:href="#m7daded3baf" x="54" y="123.525902" style="fill: #262626; stroke: #262626; stroke-width: 0.6"/>
      </g>
     </g>
    </g>
    <g id="ytick_31">
     <g id="line2d_69">
      <g>
       <use xlink:href="#m7daded3baf" x="54" y="108.444808" style="fill: #262626; stroke: #262626; stroke-width: 0.6"/>
      </g>
     </g>
    </g>
    <g id="ytick_32">
     <g id="line2d_70">
      <g>
       <use xlink:href="#m7daded3baf" x="54" y="100.786951" style="fill: #262626; stroke: #262626; stroke-width: 0.6"/>
      </g>
     </g>
    </g>
    <g id="ytick_33">
     <g id="line2d_71">
      <g>
       <use xlink:href="#m7daded3baf" x="54" y="95.353615" style="fill: #262626; stroke: #262626; stroke-width: 0.6"/>
      </g>
     </g>
    </g>
    <g id="ytick_34">
     <g id="line2d_72">
      <g>
       <use xlink:href="#m7daded3baf" x="54" y="91.139192" style="fill: #262626; stroke: #262626; stroke-width: 0.6"/>
      </g>
     </g>
    </g>
    <g id="ytick_35">
     <g id="line2d_73">
      <g>
       <use xlink:href="#m7daded3baf" x="54" y="87.695758" style="fill: #262626; stroke: #262626; stroke-width: 0.6"/>
      </g>
     </g>
    </g>
    <g id="ytick_36">
     <g id="line2d_74">
      <g>
       <use xlink:href="#m7daded3baf" x="54" y="84.784376" style="fill: #262626; stroke: #262626; stroke-width: 0.6"/>
      </g>
     </g>
    </g>
    <g id="ytick_37">
     <g id="line2d_75">
      <g>
       <use xlink:href="#m7daded3baf" x="54" y="82.262423" style="fill: #262626; stroke: #262626; stroke-width: 0.6"/>
      </g>
     </g>
    </g>
    <g id="ytick_38">
     <g id="line2d_76">
      <g>
       <use xlink:href="#m7daded3baf" x="54" y="80.037902" style="fill: #262626; stroke: #262626; stroke-width: 0.6"/>
      </g>
     </g>
    </g>
    <g id="ytick_39">
     <g id="line2d_77">
      <g>
       <use xlink:href="#m7daded3baf" x="54" y="64.956808" style="fill: #262626; stroke: #262626; stroke-width: 0.6"/>
      </g>
     </g>
    </g>
    <g id="ytick_40">
     <g id="line2d_78">
      <g>
       <use xlink:href="#m7daded3baf" x="54" y="57.298951" style="fill: #262626; stroke: #262626; stroke-width: 0.6"/>
      </g>
     </g>
    </g>
    <g id="ytick_41">
     <g id="line2d_79">
      <g>
       <use xlink:href="#m7daded3baf" x="54" y="51.865615" style="fill: #262626; stroke: #262626; stroke-width: 0.6"/>
      </g>
     </g>
    </g>
    <g id="ytick_42">
     <g id="line2d_80">
      <g>
       <use xlink:href="#m7daded3baf" x="54" y="47.651192" style="fill: #262626; stroke: #262626; stroke-width: 0.6"/>
      </g>
     </g>
    </g>
    <g id="ytick_43">
     <g id="line2d_81">
      <g>
       <use xlink:href="#m7daded3baf" x="54" y="44.207758" style="fill: #262626; stroke: #262626; stroke-width: 0.6"/>
      </g>
     </g>
    </g>
    <g id="ytick_44">
     <g id="line2d_82">
      <g>
       <use xlink:href="#m7daded3baf" x="54" y="41.296376" style="fill: #262626; stroke: #262626; stroke-width: 0.6"/>
      </g>
     </g>
    </g>
    <g id="ytick_45">
     <g id="line2d_83">
      <g>
       <use xlink:href="#m7daded3baf" x="54" y="38.774423" style="fill: #262626; stroke: #262626; stroke-width: 0.6"/>
      </g>
     </g>
    </g>
    <g id="ytick_46">
     <g id="line2d_84">
      <g>
       <use xlink:href="#m7daded3baf" x="54" y="36.549902" style="fill: #262626; stroke: #262626; stroke-width: 0.6"/>
      </g>
     </g>
    </g>
    <g id="text_12">
     <!-- $\langle\sigma v \rangle /m ~[\mathrm{cm^2/g \times km/s}]$ -->
     <g style="fill: #262626" transform="translate(23.84074 224.190787)rotate(-90)scale(0.16 -0.16)">
      <defs>
       <path id="CMMI12-1b" d="M 3251 2406 
C 3334 2406 3546 2406 3546 2611 
C 3546 2752 3424 2752 3309 2752 
L 1894 2752 
C 934 2752 243 1685 243 932 
C 243 389 595 -64 1171 -64 
C 1926 -64 2752 746 2752 1704 
C 2752 1953 2694 2195 2541 2406 
L 3251 2406 
z
M 1178 64 
C 851 64 614 312 614 753 
C 614 1136 845 2406 1786 2406 
C 2061 2406 2368 2272 2368 1780 
C 2368 1557 2266 1021 2042 651 
C 1811 274 1466 64 1178 64 
z
" transform="scale(0.015625)"/>
       <path id="CMMI12-6d" d="M 1318 1870 
C 1331 1909 1491 2228 1728 2432 
C 1894 2585 2112 2687 2362 2687 
C 2618 2687 2707 2496 2707 2241 
C 2707 2202 2707 2075 2630 1775 
L 2470 1117 
C 2419 925 2298 453 2285 383 
C 2259 287 2221 121 2221 95 
C 2221 6 2291 -64 2387 -64 
C 2579 -64 2611 83 2669 313 
L 3053 1838 
C 3066 1890 3398 2687 4102 2687 
C 4358 2687 4448 2496 4448 2241 
C 4448 1883 4198 1187 4058 804 
C 4000 651 3968 568 3968 453 
C 3968 166 4166 -64 4474 -64 
C 5069 -64 5293 874 5293 913 
C 5293 945 5267 970 5229 970 
C 5171 970 5165 951 5133 842 
C 4986 332 4749 64 4493 64 
C 4429 64 4326 70 4326 274 
C 4326 440 4403 645 4429 715 
C 4544 1021 4832 1775 4832 2145 
C 4832 2528 4608 2816 4122 2816 
C 3693 2816 3347 2573 3091 2196 
C 3072 2541 2861 2816 2381 2816 
C 1811 2816 1510 2413 1395 2253 
C 1376 2617 1114 2816 832 2816 
C 646 2816 499 2726 378 2483 
C 262 2253 173 1864 173 1838 
C 173 1813 198 1781 243 1781 
C 294 1781 301 1787 339 1934 
C 435 2311 557 2687 813 2687 
C 960 2687 1011 2585 1011 2394 
C 1011 2253 947 2004 902 1807 
L 723 1117 
C 698 996 627 708 595 593 
C 550 427 480 127 480 95 
C 480 6 550 -64 646 -64 
C 723 -64 813 -26 864 70 
C 877 102 934 325 966 453 
L 1107 1028 
L 1318 1870 
z
" transform="scale(0.015625)"/>
       <path id="CMR17-63" d="M 2234 2240 
C 2112 2240 1933 2240 1933 2015 
C 1933 1836 2080 1785 2163 1785 
C 2208 1785 2394 1804 2394 2028 
C 2394 2476 1958 2816 1466 2816 
C 787 2816 211 2201 211 1379 
C 211 521 813 -64 1466 -64 
C 2259 -64 2458 676 2458 747 
C 2458 773 2451 792 2406 792 
C 2362 792 2355 786 2330 702 
C 2163 180 1798 51 1523 51 
C 1114 51 621 431 621 1385 
C 621 2358 1094 2700 1472 2700 
C 1722 2700 2093 2582 2234 2240 
z
" transform="scale(0.015625)"/>
       <path id="CMR17-67" d="M 710 1165 
C 832 1068 1043 960 1299 960 
C 1805 960 2240 1359 2240 1895 
C 2240 2063 2189 2321 1997 2521 
C 2176 2713 2438 2777 2586 2777 
C 2611 2777 2650 2777 2682 2758 
C 2656 2751 2598 2726 2598 2623 
C 2598 2540 2656 2483 2739 2483 
C 2835 2483 2886 2547 2886 2630 
C 2886 2751 2790 2880 2586 2880 
C 2330 2880 2106 2758 1926 2591 
C 1734 2764 1504 2828 1299 2828 
C 794 2828 358 2431 358 1895 
C 358 1527 570 1294 634 1230 
C 442 1004 442 742 442 710 
C 442 544 506 300 723 166 
C 390 82 128 -184 128 -517 
C 128 -996 736 -1344 1466 -1344 
C 2170 -1344 2803 -1009 2803 -510 
C 2803 384 1856 384 1363 384 
C 1216 384 954 384 922 390 
C 723 422 589 601 589 825 
C 589 883 589 1024 710 1165 
z
M 1299 1068 
C 736 1068 736 1766 736 1895 
C 736 2024 736 2719 1299 2719 
C 1862 2719 1862 2024 1862 1895 
C 1862 1766 1862 1068 1299 1068 
z
M 1466 -1236 
C 826 -1236 384 -883 384 -517 
C 384 -311 493 -118 634 -11 
C 794 102 858 102 1293 102 
C 1818 102 2547 102 2547 -517 
C 2547 -883 2106 -1236 1466 -1236 
z
" transform="scale(0.015625)"/>
       <path id="CMSY10-2" d="M 2490 1775 
L 1210 3046 
C 1133 3123 1120 3136 1069 3136 
C 1005 3136 941 3078 941 3008 
C 941 2963 954 2950 1024 2880 
L 2304 1596 
L 1024 313 
C 954 243 941 230 941 185 
C 941 115 1005 57 1069 57 
C 1120 57 1133 70 1210 147 
L 2483 1418 
L 3808 95 
C 3821 89 3866 57 3904 57 
C 3981 57 4032 115 4032 185 
C 4032 198 4032 223 4013 255 
C 4006 268 2989 1271 2669 1596 
L 3840 2765 
C 3872 2803 3968 2886 4000 2925 
C 4006 2937 4032 2963 4032 3008 
C 4032 3078 3981 3136 3904 3136 
C 3853 3136 3827 3110 3757 3040 
L 2490 1775 
z
" transform="scale(0.015625)"/>
      </defs>
      <use xlink:href="#CMSY10-68" transform="scale(0.996264)"/>
      <use xlink:href="#CMMI12-1b" transform="translate(38.743734 0)scale(0.996264)"/>
      <use xlink:href="#CMMI12-76" transform="translate(97.763787 0)scale(0.996264)"/>
      <use xlink:href="#CMSY10-69" transform="translate(148.498961 0)scale(0.996264)"/>
      <use xlink:href="#CMMI12-3d" transform="translate(187.242695 0)scale(0.996264)"/>
      <use xlink:href="#CMMI12-6d" transform="translate(236.017613 0)scale(0.996264)"/>
      <use xlink:href="#CMR17-5b" transform="translate(351.420804 0)scale(0.996264)"/>
      <use xlink:href="#CMR17-63" transform="translate(376.291863 0)scale(0.996264)"/>
      <use xlink:href="#CMR17-6d" transform="translate(416.777523 0)scale(0.996264)"/>
      <use xlink:href="#CMR17-32" transform="translate(493.697113 36.153639)scale(0.697382)"/>
      <use xlink:href="#CMMI12-3d" transform="translate(526.178427 0)scale(0.996264)"/>
      <use xlink:href="#CMR17-67" transform="translate(574.953346 0)scale(0.996264)"/>
      <use xlink:href="#CMSY10-2" transform="translate(644.084196 0)scale(0.996264)"/>
      <use xlink:href="#CMR17-6b" transform="translate(743.710871 0)scale(0.996264)"/>
      <use xlink:href="#CMR17-6d" transform="translate(792.003786 0)scale(0.996264)"/>
      <use xlink:href="#CMMI12-3d" transform="translate(868.923376 0)scale(0.996264)"/>
      <use xlink:href="#CMR17-73" transform="translate(917.698295 0)scale(0.996264)"/>
      <use xlink:href="#CMR17-5d" transform="translate(953.499633 0)scale(0.996264)"/>
     </g>
    </g>
   </g>
   <g id="line2d_85">
    <path clip-path="url(#pb542efedcc)" style="fill: none; stroke: #94b43b; stroke-width: 1.5; stroke-linecap: round"/>
   </g>
   <g id="line2d_86">
    <path d="M 182.249669 289 
L 182.509091 288.898909 
L 185.890909 287.581091 
L 189.272727 286.263273 
L 192.654545 284.945455 
L 196.036364 283.627636 
L 199.418182 282.309818 
L 202.8 280.992 
L 206.181818 279.674182 
L 209.563636 278.356364 
L 212.945455 277.038545 
L 216.327273 275.720727 
L 219.709091 274.402909 
L 223.090909 273.085091 
L 226.472727 271.767273 
L 229.854545 270.449455 
L 233.236364 269.131636 
L 236.618182 267.813818 
L 240 266.496 
L 243.381818 265.178182 
L 246.763636 263.860364 
L 250.145455 262.542545 
L 253.527273 261.224727 
L 256.909091 259.906909 
L 260.290909 258.589091 
L 263.672727 257.271273 
L 267.054545 255.953455 
L 270.436364 254.635636 
L 273.818182 253.317818 
L 277.2 252 
L 280.581818 250.682182 
L 283.963636 249.364364 
L 287.345455 248.046545 
L 290.727273 246.728727 
L 294.109091 245.410909 
L 297.490909 244.093091 
L 300.872727 242.775273 
L 304.254545 241.457455 
L 307.636364 240.139636 
L 311.018182 238.821818 
L 314.4 237.504 
L 317.781818 236.186182 
L 321.163636 234.868364 
L 324.545455 233.550545 
L 327.927273 232.232727 
L 331.309091 230.914909 
L 334.690909 229.597091 
L 338.072727 228.279273 
L 341.454545 226.961455 
L 344.836364 225.643636 
L 348.218182 224.325818 
L 351.6 223.008 
L 354.981818 221.690182 
L 358.363636 220.372364 
L 361.745455 219.054545 
L 365.127273 217.736727 
L 368.509091 216.418909 
L 371.890909 215.101091 
L 375.272727 213.783273 
L 378.654545 212.465455 
L 382.036364 211.147636 
L 385.418182 209.829818 
L 388.8 208.512 
" clip-path="url(#pb542efedcc)" style="fill: none; stroke-dasharray: 5.55,2.4; stroke-dashoffset: 0; stroke: #b1b2b0; stroke-width: 1.5"/>
   </g>
   <g id="line2d_87">
    <path d="M 70.649669 289 
L 70.909091 288.898909 
L 74.290909 287.581091 
L 77.672727 286.263273 
L 81.054545 284.945455 
L 84.436364 283.627636 
L 87.818182 282.309818 
L 91.2 280.992 
L 94.581818 279.674182 
L 97.963636 278.356364 
L 101.345455 277.038545 
L 104.727273 275.720727 
L 108.109091 274.402909 
L 111.490909 273.085091 
L 114.872727 271.767273 
L 118.254545 270.449455 
L 121.636364 269.131636 
L 125.018182 267.813818 
L 128.4 266.496 
L 131.781818 265.178182 
L 135.163636 263.860364 
L 138.545455 262.542545 
L 141.927273 261.224727 
L 145.309091 259.906909 
L 148.690909 258.589091 
L 152.072727 257.271273 
L 155.454545 255.953455 
L 158.836364 254.635636 
L 162.218182 253.317818 
L 165.6 252 
L 168.981818 250.682182 
L 172.363636 249.364364 
L 175.745455 248.046545 
L 179.127273 246.728727 
L 182.509091 245.410909 
L 185.890909 244.093091 
L 189.272727 242.775273 
L 192.654545 241.457455 
L 196.036364 240.139636 
L 199.418182 238.821818 
L 202.8 237.504 
L 206.181818 236.186182 
L 209.563636 234.868364 
L 212.945455 233.550545 
L 216.327273 232.232727 
L 219.709091 230.914909 
L 223.090909 229.597091 
L 226.472727 228.279273 
L 229.854545 226.961455 
L 233.236364 225.643636 
L 236.618182 224.325818 
L 240 223.008 
L 243.381818 221.690182 
L 246.763636 220.372364 
L 250.145455 219.054545 
L 253.527273 217.736727 
L 256.909091 216.418909 
L 260.290909 215.101091 
L 263.672727 213.783273 
L 267.054545 212.465455 
L 270.436364 211.147636 
L 273.818182 209.829818 
L 277.2 208.512 
L 280.581818 207.194182 
L 283.963636 205.876364 
L 287.345455 204.558545 
L 290.727273 203.240727 
L 294.109091 201.922909 
L 297.490909 200.605091 
L 300.872727 199.287273 
L 304.254545 197.969455 
L 307.636364 196.651636 
L 311.018182 195.333818 
L 314.4 194.016 
L 317.781818 192.698182 
L 321.163636 191.380364 
L 324.545455 190.062545 
L 327.927273 188.744727 
L 331.309091 187.426909 
L 334.690909 186.109091 
L 338.072727 184.791273 
L 341.454545 183.473455 
L 344.836364 182.155636 
L 348.218182 180.837818 
L 351.6 179.52 
L 354.981818 178.202182 
L 358.363636 176.884364 
L 361.745455 175.566545 
L 365.127273 174.248727 
L 368.509091 172.930909 
L 371.890909 171.613091 
L 375.272727 170.295273 
L 378.654545 168.977455 
L 382.036364 167.659636 
L 385.418182 166.341818 
L 388.8 165.024 
" clip-path="url(#pb542efedcc)" style="fill: none; stroke-dasharray: 5.55,2.4; stroke-dashoffset: 0; stroke: #b1b2b0; stroke-width: 1.5"/>
   </g>
   <g id="line2d_88">
    <path d="M 54 252 
L 57.381818 250.682182 
L 60.763636 249.364364 
L 64.145455 248.046545 
L 67.527273 246.728727 
L 70.909091 245.410909 
L 74.290909 244.093091 
L 77.672727 242.775273 
L 81.054545 241.457455 
L 84.436364 240.139636 
L 87.818182 238.821818 
L 91.2 237.504 
L 94.581818 236.186182 
L 97.963636 234.868364 
L 101.345455 233.550545 
L 104.727273 232.232727 
L 108.109091 230.914909 
L 111.490909 229.597091 
L 114.872727 228.279273 
L 118.254545 226.961455 
L 121.636364 225.643636 
L 125.018182 224.325818 
L 128.4 223.008 
L 131.781818 221.690182 
L 135.163636 220.372364 
L 138.545455 219.054545 
L 141.927273 217.736727 
L 145.309091 216.418909 
L 148.690909 215.101091 
L 152.072727 213.783273 
L 155.454545 212.465455 
L 158.836364 211.147636 
L 162.218182 209.829818 
L 165.6 208.512 
L 168.981818 207.194182 
L 172.363636 205.876364 
L 175.745455 204.558545 
L 179.127273 203.240727 
L 182.509091 201.922909 
L 185.890909 200.605091 
L 189.272727 199.287273 
L 192.654545 197.969455 
L 196.036364 196.651636 
L 199.418182 195.333818 
L 202.8 194.016 
L 206.181818 192.698182 
L 209.563636 191.380364 
L 212.945455 190.062545 
L 216.327273 188.744727 
L 219.709091 187.426909 
L 223.090909 186.109091 
L 226.472727 184.791273 
L 229.854545 183.473455 
L 233.236364 182.155636 
L 236.618182 180.837818 
L 240 179.52 
L 243.381818 178.202182 
L 246.763636 176.884364 
L 250.145455 175.566545 
L 253.527273 174.248727 
L 256.909091 172.930909 
L 260.290909 171.613091 
L 263.672727 170.295273 
L 267.054545 168.977455 
L 270.436364 167.659636 
L 273.818182 166.341818 
L 277.2 165.024 
L 280.581818 163.706182 
L 283.963636 162.388364 
L 287.345455 161.070545 
L 290.727273 159.752727 
L 294.109091 158.434909 
L 297.490909 157.117091 
L 300.872727 155.799273 
L 304.254545 154.481455 
L 307.636364 153.163636 
L 311.018182 151.845818 
L 314.4 150.528 
L 317.781818 149.210182 
L 321.163636 147.892364 
L 324.545455 146.574545 
L 327.927273 145.256727 
L 331.309091 143.938909 
L 334.690909 142.621091 
L 338.072727 141.303273 
L 341.454545 139.985455 
L 344.836364 138.667636 
L 348.218182 137.349818 
L 351.6 136.032 
L 354.981818 134.714182 
L 358.363636 133.396364 
L 361.745455 132.078545 
L 365.127273 130.760727 
L 368.509091 129.442909 
L 371.890909 128.125091 
L 375.272727 126.807273 
L 378.654545 125.489455 
L 382.036364 124.171636 
L 385.418182 122.853818 
L 388.8 121.536 
" clip-path="url(#pb542efedcc)" style="fill: none; stroke-dasharray: 5.55,2.4; stroke-dashoffset: 0; stroke: #b1b2b0; stroke-width: 1.5"/>
   </g>
   <g id="line2d_89">
    <path d="M 54 165.024 
L 57.381818 163.706182 
L 60.763636 162.388364 
L 64.145455 161.070545 
L 67.527273 159.752727 
L 70.909091 158.434909 
L 74.290909 157.117091 
L 77.672727 155.799273 
L 81.054545 154.481455 
L 84.436364 153.163636 
L 87.818182 151.845818 
L 91.2 150.528 
L 94.581818 149.210182 
L 97.963636 147.892364 
L 101.345455 146.574545 
L 104.727273 145.256727 
L 108.109091 143.938909 
L 111.490909 142.621091 
L 114.872727 141.303273 
L 118.254545 139.985455 
L 121.636364 138.667636 
L 125.018182 137.349818 
L 128.4 136.032 
L 131.781818 134.714182 
L 135.163636 133.396364 
L 138.545455 132.078545 
L 141.927273 130.760727 
L 145.309091 129.442909 
L 148.690909 128.125091 
L 152.072727 126.807273 
L 155.454545 125.489455 
L 158.836364 124.171636 
L 162.218182 122.853818 
L 165.6 121.536 
L 168.981818 120.218182 
L 172.363636 118.900364 
L 175.745455 117.582545 
L 179.127273 116.264727 
L 182.509091 114.946909 
L 185.890909 113.629091 
L 189.272727 112.311273 
L 192.654545 110.993455 
L 196.036364 109.675636 
L 199.418182 108.357818 
L 202.8 107.04 
L 206.181818 105.722182 
L 209.563636 104.404364 
L 212.945455 103.086545 
L 216.327273 101.768727 
L 219.709091 100.450909 
L 223.090909 99.133091 
L 226.472727 97.815273 
L 229.854545 96.497455 
L 233.236364 95.179636 
L 236.618182 93.861818 
L 240 92.544 
L 243.381818 91.226182 
L 246.763636 89.908364 
L 250.145455 88.590545 
L 253.527273 87.272727 
L 256.909091 85.954909 
L 260.290909 84.637091 
L 263.672727 83.319273 
L 267.054545 82.001455 
L 270.436364 80.683636 
L 273.818182 79.365818 
L 277.2 78.048 
L 280.581818 76.730182 
L 283.963636 75.412364 
L 287.345455 74.094545 
L 290.727273 72.776727 
L 294.109091 71.458909 
L 297.490909 70.141091 
L 300.872727 68.823273 
L 304.254545 67.505455 
L 307.636364 66.187636 
L 311.018182 64.869818 
L 314.4 63.552 
L 317.781818 62.234182 
L 321.163636 60.916364 
L 324.545455 59.598545 
L 327.927273 58.280727 
L 331.309091 56.962909 
L 334.690909 55.645091 
L 338.072727 54.327273 
L 341.454545 53.009455 
L 344.836364 51.691636 
L 348.218182 50.373818 
L 351.6 49.056 
L 354.981818 47.738182 
L 358.363636 46.420364 
L 361.745455 45.102545 
L 365.127273 43.784727 
L 368.509091 42.466909 
L 371.890909 41.149091 
L 375.272727 39.831273 
L 378.654545 38.513455 
L 382.036364 37.195636 
L 385.418182 35.877818 
L 388.8 34.56 
" clip-path="url(#pb542efedcc)" style="fill: none; stroke-dasharray: 5.55,2.4; stroke-dashoffset: 0; stroke: #b1b2b0; stroke-width: 1.5"/>
   </g>
   <g id="line2d_90">
    <path d="M 54 121.536 
L 57.381818 120.218182 
L 60.763636 118.900364 
L 64.145455 117.582545 
L 67.527273 116.264727 
L 70.909091 114.946909 
L 74.290909 113.629091 
L 77.672727 112.311273 
L 81.054545 110.993455 
L 84.436364 109.675636 
L 87.818182 108.357818 
L 91.2 107.04 
L 94.581818 105.722182 
L 97.963636 104.404364 
L 101.345455 103.086545 
L 104.727273 101.768727 
L 108.109091 100.450909 
L 111.490909 99.133091 
L 114.872727 97.815273 
L 118.254545 96.497455 
L 121.636364 95.179636 
L 125.018182 93.861818 
L 128.4 92.544 
L 131.781818 91.226182 
L 135.163636 89.908364 
L 138.545455 88.590545 
L 141.927273 87.272727 
L 145.309091 85.954909 
L 148.690909 84.637091 
L 152.072727 83.319273 
L 155.454545 82.001455 
L 158.836364 80.683636 
L 162.218182 79.365818 
L 165.6 78.048 
L 168.981818 76.730182 
L 172.363636 75.412364 
L 175.745455 74.094545 
L 179.127273 72.776727 
L 182.509091 71.458909 
L 185.890909 70.141091 
L 189.272727 68.823273 
L 192.654545 67.505455 
L 196.036364 66.187636 
L 199.418182 64.869818 
L 202.8 63.552 
L 206.181818 62.234182 
L 209.563636 60.916364 
L 212.945455 59.598545 
L 216.327273 58.280727 
L 219.709091 56.962909 
L 223.090909 55.645091 
L 226.472727 54.327273 
L 229.854545 53.009455 
L 233.236364 51.691636 
L 236.618182 50.373818 
L 240 49.056 
L 243.381818 47.738182 
L 246.763636 46.420364 
L 250.145455 45.102545 
L 253.527273 43.784727 
L 256.909091 42.466909 
L 260.290909 41.149091 
L 263.672727 39.831273 
L 267.054545 38.513455 
L 270.436364 37.195636 
L 273.818182 35.877818 
L 277.2 34.56 
L 280.581818 33.242182 
L 283.963636 31.924364 
L 287.345455 30.606545 
L 290.727273 29.288727 
L 294.109091 27.970909 
L 297.490909 26.653091 
L 300.872727 25.335273 
L 304.254545 24.017455 
L 307.636364 22.699636 
L 311.018182 21.381818 
L 314.4 20.064 
L 317.781818 18.746182 
L 321.163636 17.428364 
L 324.545455 16.110545 
L 327.927273 14.792727 
L 331.309091 13.474909 
L 334.690909 12.157091 
L 338.072727 10.839273 
L 341.454545 9.521455 
L 344.836364 8.203636 
L 348.218182 6.885818 
L 351.6 5.568 
L 354.981818 4.250182 
L 358.363636 2.932364 
L 361.745455 1.614545 
L 365.127273 0.296727 
L 368.454967 -1 
" clip-path="url(#pb542efedcc)" style="fill: none; stroke-dasharray: 5.55,2.4; stroke-dashoffset: 0; stroke: #b1b2b0; stroke-width: 1.5"/>
   </g>
   <g id="LineCollection_1">
    <path d="M 96.552592 161.419148 
L 110.976823 161.419148 
" clip-path="url(#pb542efedcc)" style="fill: none; stroke: #77232f; stroke-width: 1.5"/>
    <path d="M 121.407508 201.559667 
L 137.341745 201.559667 
" clip-path="url(#pb542efedcc)" style="fill: none; stroke: #77232f; stroke-width: 1.5"/>
    <path d="M 132.678888 158.759787 
L 141.163722 158.759787 
" clip-path="url(#pb542efedcc)" style="fill: none; stroke: #77232f; stroke-width: 1.5"/>
    <path d="M 141.147671 151.645101 
L 148.27138 151.645101 
" clip-path="url(#pb542efedcc)" style="fill: none; stroke: #77232f; stroke-width: 1.5"/>
    <path d="M 165.662967 113.302772 
L 181.60576 113.302772 
" clip-path="url(#pb542efedcc)" style="fill: none; stroke: #77232f; stroke-width: 1.5"/>
   </g>
   <g id="LineCollection_2">
    <path d="M 103.677286 181.657093 
L 103.677286 140.718536 
" clip-path="url(#pb542efedcc)" style="fill: none; stroke: #77232f; stroke-width: 1.5"/>
    <path d="M 129.201657 220.254878 
L 129.201657 183.022073 
" clip-path="url(#pb542efedcc)" style="fill: none; stroke: #77232f; stroke-width: 1.5"/>
    <path d="M 136.92317 175.289263 
L 136.92317 142.383516 
" clip-path="url(#pb542efedcc)" style="fill: none; stroke: #77232f; stroke-width: 1.5"/>
    <path d="M 144.706215 167.093814 
L 144.706215 135.887248 
" clip-path="url(#pb542efedcc)" style="fill: none; stroke: #77232f; stroke-width: 1.5"/>
    <path d="M 173.634353 130.450581 
L 173.634353 96.463553 
" clip-path="url(#pb542efedcc)" style="fill: none; stroke: #77232f; stroke-width: 1.5"/>
   </g>
   <g id="line2d_91">
    <defs>
     <path id="m22db626128" d="M 0 3 
L 0 -3 
" style="stroke: #77232f"/>
    </defs>
    <g clip-path="url(#pb542efedcc)">
     <use xlink:href="#m22db626128" x="96.552592" y="161.419148" style="fill: #77232f; stroke: #77232f"/>
     <use xlink:href="#m22db626128" x="121.407508" y="201.559667" style="fill: #77232f; stroke: #77232f"/>
     <use xlink:href="#m22db626128" x="132.678888" y="158.759787" style="fill: #77232f; stroke: #77232f"/>
     <use xlink:href="#m22db626128" x="141.147671" y="151.645101" style="fill: #77232f; stroke: #77232f"/>
     <use xlink:href="#m22db626128" x="165.662967" y="113.302772" style="fill: #77232f; stroke: #77232f"/>
    </g>
   </g>
   <g id="line2d_92">
    <g clip-path="url(#pb542efedcc)">
     <use xlink:href="#m22db626128" x="110.976823" y="161.419148" style="fill: #77232f; stroke: #77232f"/>
     <use xlink:href="#m22db626128" x="137.341745" y="201.559667" style="fill: #77232f; stroke: #77232f"/>
     <use xlink:href="#m22db626128" x="141.163722" y="158.759787" style="fill: #77232f; stroke: #77232f"/>
     <use xlink:href="#m22db626128" x="148.27138" y="151.645101" style="fill: #77232f; stroke: #77232f"/>
     <use xlink:href="#m22db626128" x="181.60576" y="113.302772" style="fill: #77232f; stroke: #77232f"/>
    </g>
   </g>
   <g id="line2d_93">
    <defs>
     <path id="m09d2970db6" d="M 3 0 
L -3 -0 
" style="stroke: #77232f"/>
    </defs>
    <g clip-path="url(#pb542efedcc)">
     <use xlink:href="#m09d2970db6" x="103.677286" y="181.657093" style="fill: #77232f; stroke: #77232f"/>
     <use xlink:href="#m09d2970db6" x="129.201657" y="220.254878" style="fill: #77232f; stroke: #77232f"/>
     <use xlink:href="#m09d2970db6" x="136.92317" y="175.289263" style="fill: #77232f; stroke: #77232f"/>
     <use xlink:href="#m09d2970db6" x="144.706215" y="167.093814" style="fill: #77232f; stroke: #77232f"/>
     <use xlink:href="#m09d2970db6" x="173.634353" y="130.450581" style="fill: #77232f; stroke: #77232f"/>
    </g>
   </g>
   <g id="line2d_94">
    <g clip-path="url(#pb542efedcc)">
     <use xlink:href="#m09d2970db6" x="103.677286" y="140.718536" style="fill: #77232f; stroke: #77232f"/>
     <use xlink:href="#m09d2970db6" x="129.201657" y="183.022073" style="fill: #77232f; stroke: #77232f"/>
     <use xlink:href="#m09d2970db6" x="136.92317" y="142.383516" style="fill: #77232f; stroke: #77232f"/>
     <use xlink:href="#m09d2970db6" x="144.706215" y="135.887248" style="fill: #77232f; stroke: #77232f"/>
     <use xlink:href="#m09d2970db6" x="173.634353" y="96.463553" style="fill: #77232f; stroke: #77232f"/>
    </g>
   </g>
   <g id="LineCollection_3">
    <path d="M 138.3131 177.132654 
L 159.172391 177.132654 
" clip-path="url(#pb542efedcc)" style="fill: none; stroke: #565a5c; stroke-width: 1.5"/>
    <path d="M 157.990409 178.19089 
L 179.868014 178.19089 
" clip-path="url(#pb542efedcc)" style="fill: none; stroke: #565a5c; stroke-width: 1.5"/>
    <path d="M 166.063067 145.286166 
L 171.660613 145.286166 
" clip-path="url(#pb542efedcc)" style="fill: none; stroke: #565a5c; stroke-width: 1.5"/>
    <path d="M 162.781197 114.696013 
L 178.72446 114.696013 
" clip-path="url(#pb542efedcc)" style="fill: none; stroke: #565a5c; stroke-width: 1.5"/>
    <path d="M 175.058654 148.674421 
L 183.541772 148.674421 
" clip-path="url(#pb542efedcc)" style="fill: none; stroke: #565a5c; stroke-width: 1.5"/>
    <path d="M 175.597934 163.813352 
L 184.077695 163.813352 
" clip-path="url(#pb542efedcc)" style="fill: none; stroke: #565a5c; stroke-width: 1.5"/>
    <path d="M 192.064983 171.519097 
L 202.240337 171.519097 
" clip-path="url(#pb542efedcc)" style="fill: none; stroke: #565a5c; stroke-width: 1.5"/>
   </g>
   <g id="LineCollection_4">
    <path d="M 148.829471 198.601663 
L 148.829471 155.038935 
" clip-path="url(#pb542efedcc)" style="fill: none; stroke: #565a5c; stroke-width: 1.5"/>
    <path d="M 169.014929 201.210025 
L 169.014929 154.7101 
" clip-path="url(#pb542efedcc)" style="fill: none; stroke: #565a5c; stroke-width: 1.5"/>
    <path d="M 168.947127 159.499286 
L 168.947127 131.227879 
" clip-path="url(#pb542efedcc)" style="fill: none; stroke: #565a5c; stroke-width: 1.5"/>
    <path d="M 170.754011 129.989946 
L 170.754011 99.247401 
" clip-path="url(#pb542efedcc)" style="fill: none; stroke: #565a5c; stroke-width: 1.5"/>
    <path d="M 179.301437 163.968095 
L 179.301437 132.607926 
" clip-path="url(#pb542efedcc)" style="fill: none; stroke: #565a5c; stroke-width: 1.5"/>
    <path d="M 179.83912 178.95319 
L 179.83912 148.982882 
" clip-path="url(#pb542efedcc)" style="fill: none; stroke: #565a5c; stroke-width: 1.5"/>
    <path d="M 197.153268 186.198987 
L 197.153268 156.225299 
" clip-path="url(#pb542efedcc)" style="fill: none; stroke: #565a5c; stroke-width: 1.5"/>
   </g>
   <g id="line2d_95">
    <defs>
     <path id="m5130cb53ce" d="M 0 3 
L 0 -3 
" style="stroke: #565a5c"/>
    </defs>
    <g clip-path="url(#pb542efedcc)">
     <use xlink:href="#m5130cb53ce" x="138.3131" y="177.132654" style="fill: #565a5c; stroke: #565a5c"/>
     <use xlink:href="#m5130cb53ce" x="157.990409" y="178.19089" style="fill: #565a5c; stroke: #565a5c"/>
     <use xlink:href="#m5130cb53ce" x="166.063067" y="145.286166" style="fill: #565a5c; stroke: #565a5c"/>
     <use xlink:href="#m5130cb53ce" x="162.781197" y="114.696013" style="fill: #565a5c; stroke: #565a5c"/>
     <use xlink:href="#m5130cb53ce" x="175.058654" y="148.674421" style="fill: #565a5c; stroke: #565a5c"/>
     <use xlink:href="#m5130cb53ce" x="175.597934" y="163.813352" style="fill: #565a5c; stroke: #565a5c"/>
     <use xlink:href="#m5130cb53ce" x="192.064983" y="171.519097" style="fill: #565a5c; stroke: #565a5c"/>
    </g>
   </g>
   <g id="line2d_96">
    <g clip-path="url(#pb542efedcc)">
     <use xlink:href="#m5130cb53ce" x="159.172391" y="177.132654" style="fill: #565a5c; stroke: #565a5c"/>
     <use xlink:href="#m5130cb53ce" x="179.868014" y="178.19089" style="fill: #565a5c; stroke: #565a5c"/>
     <use xlink:href="#m5130cb53ce" x="171.660613" y="145.286166" style="fill: #565a5c; stroke: #565a5c"/>
     <use xlink:href="#m5130cb53ce" x="178.72446" y="114.696013" style="fill: #565a5c; stroke: #565a5c"/>
     <use xlink:href="#m5130cb53ce" x="183.541772" y="148.674421" style="fill: #565a5c; stroke: #565a5c"/>
     <use xlink:href="#m5130cb53ce" x="184.077695" y="163.813352" style="fill: #565a5c; stroke: #565a5c"/>
     <use xlink:href="#m5130cb53ce" x="202.240337" y="171.519097" style="fill: #565a5c; stroke: #565a5c"/>
    </g>
   </g>
   <g id="line2d_97">
    <defs>
     <path id="md74582ee28" d="M 3 0 
L -3 -0 
" style="stroke: #565a5c"/>
    </defs>
    <g clip-path="url(#pb542efedcc)">
     <use xlink:href="#md74582ee28" x="148.829471" y="198.601663" style="fill: #565a5c; stroke: #565a5c"/>
     <use xlink:href="#md74582ee28" x="169.014929" y="201.210025" style="fill: #565a5c; stroke: #565a5c"/>
     <use xlink:href="#md74582ee28" x="168.947127" y="159.499286" style="fill: #565a5c; stroke: #565a5c"/>
     <use xlink:href="#md74582ee28" x="170.754011" y="129.989946" style="fill: #565a5c; stroke: #565a5c"/>
     <use xlink:href="#md74582ee28" x="179.301437" y="163.968095" style="fill: #565a5c; stroke: #565a5c"/>
     <use xlink:href="#md74582ee28" x="179.83912" y="178.95319" style="fill: #565a5c; stroke: #565a5c"/>
     <use xlink:href="#md74582ee28" x="197.153268" y="186.198987" style="fill: #565a5c; stroke: #565a5c"/>
    </g>
   </g>
   <g id="line2d_98">
    <g clip-path="url(#pb542efedcc)">
     <use xlink:href="#md74582ee28" x="148.829471" y="155.038935" style="fill: #565a5c; stroke: #565a5c"/>
     <use xlink:href="#md74582ee28" x="169.014929" y="154.7101" style="fill: #565a5c; stroke: #565a5c"/>
     <use xlink:href="#md74582ee28" x="168.947127" y="131.227879" style="fill: #565a5c; stroke: #565a5c"/>
     <use xlink:href="#md74582ee28" x="170.754011" y="99.247401" style="fill: #565a5c; stroke: #565a5c"/>
     <use xlink:href="#md74582ee28" x="179.301437" y="132.607926" style="fill: #565a5c; stroke: #565a5c"/>
     <use xlink:href="#md74582ee28" x="179.83912" y="148.982882" style="fill: #565a5c; stroke: #565a5c"/>
     <use xlink:href="#md74582ee28" x="197.153268" y="156.225299" style="fill: #565a5c; stroke: #565a5c"/>
    </g>
   </g>
   <g id="LineCollection_5">
    <path d="M 287.37663 170.495147 
L 300.26581 170.495147 
" clip-path="url(#pb542efedcc)" style="fill: none; stroke: #a61c31; stroke-width: 1.5"/>
    <path d="M 284.48326 165.238634 
L 307.208803 165.238634 
" clip-path="url(#pb542efedcc)" style="fill: none; stroke: #a61c31; stroke-width: 1.5"/>
    <path d="M 283.436081 150.101842 
L 304.805586 150.101842 
" clip-path="url(#pb542efedcc)" style="fill: none; stroke: #a61c31; stroke-width: 1.5"/>
    <path d="M 292.430059 152.721511 
L 308.711038 152.721511 
" clip-path="url(#pb542efedcc)" style="fill: none; stroke: #a61c31; stroke-width: 1.5"/>
    <path d="M 298.537855 154.260423 
L 314.141396 154.260423 
" clip-path="url(#pb542efedcc)" style="fill: none; stroke: #a61c31; stroke-width: 1.5"/>
   </g>
   <g id="LineCollection_6">
    <path d="M 293.651692 178.217456 
L 293.651692 162.305705 
" clip-path="url(#pb542efedcc)" style="fill: none; stroke: #a61c31; stroke-width: 1.5"/>
    <path d="M 295.846231 179.453341 
L 295.846231 150.717731 
" clip-path="url(#pb542efedcc)" style="fill: none; stroke: #a61c31; stroke-width: 1.5"/>
    <path d="M 293.951406 161.687894 
L 293.951406 138.360981 
" clip-path="url(#pb542efedcc)" style="fill: none; stroke: #a61c31; stroke-width: 1.5"/>
    <path d="M 300.570805 168.788193 
L 300.570805 136.499942 
" clip-path="url(#pb542efedcc)" style="fill: none; stroke: #a61c31; stroke-width: 1.5"/>
    <path d="M 306.339936 170.480013 
L 306.339936 137.729981 
" clip-path="url(#pb542efedcc)" style="fill: none; stroke: #a61c31; stroke-width: 1.5"/>
   </g>
   <g id="line2d_99">
    <defs>
     <path id="m1e1a522b7f" d="M 0 3 
L 0 -3 
" style="stroke: #a61c31"/>
    </defs>
    <g clip-path="url(#pb542efedcc)">
     <use xlink:href="#m1e1a522b7f" x="287.37663" y="170.495147" style="fill: #a61c31; stroke: #a61c31"/>
     <use xlink:href="#m1e1a522b7f" x="284.48326" y="165.238634" style="fill: #a61c31; stroke: #a61c31"/>
     <use xlink:href="#m1e1a522b7f" x="283.436081" y="150.101842" style="fill: #a61c31; stroke: #a61c31"/>
     <use xlink:href="#m1e1a522b7f" x="292.430059" y="152.721511" style="fill: #a61c31; stroke: #a61c31"/>
     <use xlink:href="#m1e1a522b7f" x="298.537855" y="154.260423" style="fill: #a61c31; stroke: #a61c31"/>
    </g>
   </g>
   <g id="line2d_100">
    <g clip-path="url(#pb542efedcc)">
     <use xlink:href="#m1e1a522b7f" x="300.26581" y="170.495147" style="fill: #a61c31; stroke: #a61c31"/>
     <use xlink:href="#m1e1a522b7f" x="307.208803" y="165.238634" style="fill: #a61c31; stroke: #a61c31"/>
     <use xlink:href="#m1e1a522b7f" x="304.805586" y="150.101842" style="fill: #a61c31; stroke: #a61c31"/>
     <use xlink:href="#m1e1a522b7f" x="308.711038" y="152.721511" style="fill: #a61c31; stroke: #a61c31"/>
     <use xlink:href="#m1e1a522b7f" x="314.141396" y="154.260423" style="fill: #a61c31; stroke: #a61c31"/>
    </g>
   </g>
   <g id="line2d_101">
    <defs>
     <path id="mb811904aa3" d="M 3 0 
L -3 -0 
" style="stroke: #a61c31"/>
    </defs>
    <g clip-path="url(#pb542efedcc)">
     <use xlink:href="#mb811904aa3" x="293.651692" y="178.217456" style="fill: #a61c31; stroke: #a61c31"/>
     <use xlink:href="#mb811904aa3" x="295.846231" y="179.453341" style="fill: #a61c31; stroke: #a61c31"/>
     <use xlink:href="#mb811904aa3" x="293.951406" y="161.687894" style="fill: #a61c31; stroke: #a61c31"/>
     <use xlink:href="#mb811904aa3" x="300.570805" y="168.788193" style="fill: #a61c31; stroke: #a61c31"/>
     <use xlink:href="#mb811904aa3" x="306.339936" y="170.480013" style="fill: #a61c31; stroke: #a61c31"/>
    </g>
   </g>
   <g id="line2d_102">
    <g clip-path="url(#pb542efedcc)">
     <use xlink:href="#mb811904aa3" x="293.651692" y="162.305705" style="fill: #a61c31; stroke: #a61c31"/>
     <use xlink:href="#mb811904aa3" x="295.846231" y="150.717731" style="fill: #a61c31; stroke: #a61c31"/>
     <use xlink:href="#mb811904aa3" x="293.951406" y="138.360981" style="fill: #a61c31; stroke: #a61c31"/>
     <use xlink:href="#mb811904aa3" x="300.570805" y="136.499942" style="fill: #a61c31; stroke: #a61c31"/>
     <use xlink:href="#mb811904aa3" x="306.339936" y="137.729981" style="fill: #a61c31; stroke: #a61c31"/>
    </g>
   </g>
   <g id="line2d_103"/>
   <g id="line2d_104"/>
   <g id="line2d_105"/>
   <g id="patch_3">
    <path d="M 54 252 
L 54 34.56 
" style="fill: none; stroke: #262626; stroke-width: 1.65; stroke-linejoin: miter; stroke-linecap: square"/>
   </g>
   <g id="patch_4">
    <path d="M 388.8 252 
L 388.8 34.56 
" style="fill: none; stroke: #262626; stroke-width: 1.65; stroke-linejoin: miter; stroke-linecap: square"/>
   </g>
   <g id="patch_5">
    <path d="M 54 252 
L 388.8 252 
" style="fill: none; stroke: #262626; stroke-width: 1.65; stroke-linejoin: miter; stroke-linecap: square"/>
   </g>
   <g id="patch_6">
    <path d="M 54 34.56 
L 388.8 34.56 
" style="fill: none; stroke: #262626; stroke-width: 1.65; stroke-linejoin: miter; stroke-linecap: square"/>
   </g>
   <g id="text_13">
    <!-- $ \sigma/m = 0.001 \mathrm{cm^2/g}$ -->
    <g style="fill: #b1b2b0" transform="translate(279.973653 244.492349)rotate(-20)scale(0.1 -0.1)">
     <defs>
      <path id="CMR17-3d" d="M 4115 2048 
C 4211 2048 4307 2048 4307 2156 
C 4307 2272 4198 2272 4090 2272 
L 512 2272 
C 403 2272 294 2272 294 2156 
C 294 2048 390 2048 486 2048 
L 4115 2048 
z
M 4090 927 
C 4198 927 4307 927 4307 1043 
C 4307 1152 4211 1152 4115 1152 
L 486 1152 
C 390 1152 294 1152 294 1043 
C 294 927 403 927 512 927 
L 4090 927 
z
" transform="scale(0.015625)"/>
      <path id="CMMI12-3a" d="M 1178 307 
C 1178 492 1024 620 870 620 
C 685 620 557 467 557 313 
C 557 128 710 0 864 0 
C 1050 0 1178 153 1178 307 
z
" transform="scale(0.015625)"/>
     </defs>
     <use xlink:href="#CMMI12-1b" transform="scale(0.996264)"/>
     <use xlink:href="#CMMI12-3d" transform="translate(59.020054 0)scale(0.996264)"/>
     <use xlink:href="#CMMI12-6d" transform="translate(107.794972 0)scale(0.996264)"/>
     <use xlink:href="#CMR17-3d" transform="translate(220.796206 0)scale(0.996264)"/>
     <use xlink:href="#CMR17-30" transform="translate(320.185003 0)scale(0.996264)"/>
     <use xlink:href="#CMMI12-3a" transform="translate(365.87548 0)scale(0.996264)"/>
     <use xlink:href="#CMR17-30" transform="translate(392.972657 0)scale(0.996264)"/>
     <use xlink:href="#CMR17-30" transform="translate(438.663134 0)scale(0.996264)"/>
     <use xlink:href="#CMR17-31" transform="translate(484.353611 0)scale(0.996264)"/>
     <use xlink:href="#CMR17-63" transform="translate(530.044088 0)scale(0.996264)"/>
     <use xlink:href="#CMR17-6d" transform="translate(570.529749 0)scale(0.996264)"/>
     <use xlink:href="#CMR17-32" transform="translate(647.449339 36.153639)scale(0.697382)"/>
     <use xlink:href="#CMMI12-3d" transform="translate(679.930653 0)scale(0.996264)"/>
     <use xlink:href="#CMR17-67" transform="translate(728.705571 0)scale(0.996264)"/>
    </g>
   </g>
   <g id="text_14">
    <!-- $ \sigma/m = 0.01 \mathrm{cm^2/g}$ -->
    <g style="fill: #b1b2b0" transform="translate(168.373653 244.492349)rotate(-20)scale(0.1 -0.1)">
     <use xlink:href="#CMMI12-1b" transform="scale(0.996264)"/>
     <use xlink:href="#CMMI12-3d" transform="translate(59.020054 0)scale(0.996264)"/>
     <use xlink:href="#CMMI12-6d" transform="translate(107.794972 0)scale(0.996264)"/>
     <use xlink:href="#CMR17-3d" transform="translate(220.796206 0)scale(0.996264)"/>
     <use xlink:href="#CMR17-30" transform="translate(320.185003 0)scale(0.996264)"/>
     <use xlink:href="#CMMI12-3a" transform="translate(365.87548 0)scale(0.996264)"/>
     <use xlink:href="#CMR17-30" transform="translate(392.972657 0)scale(0.996264)"/>
     <use xlink:href="#CMR17-31" transform="translate(438.663134 0)scale(0.996264)"/>
     <use xlink:href="#CMR17-63" transform="translate(484.353611 0)scale(0.996264)"/>
     <use xlink:href="#CMR17-6d" transform="translate(524.839272 0)scale(0.996264)"/>
     <use xlink:href="#CMR17-32" transform="translate(601.758861 36.153639)scale(0.697382)"/>
     <use xlink:href="#CMMI12-3d" transform="translate(634.240175 0)scale(0.996264)"/>
     <use xlink:href="#CMR17-67" transform="translate(683.015094 0)scale(0.996264)"/>
    </g>
   </g>
   <g id="text_15">
    <!-- $ \sigma/m = 0.1 \mathrm{cm^2/g}$ -->
    <g style="fill: #b1b2b0" transform="translate(56.773653 244.492349)rotate(-20)scale(0.1 -0.1)">
     <use xlink:href="#CMMI12-1b" transform="scale(0.996264)"/>
     <use xlink:href="#CMMI12-3d" transform="translate(59.020054 0)scale(0.996264)"/>
     <use xlink:href="#CMMI12-6d" transform="translate(107.794972 0)scale(0.996264)"/>
     <use xlink:href="#CMR17-3d" transform="translate(220.796206 0)scale(0.996264)"/>
     <use xlink:href="#CMR17-30" transform="translate(320.185003 0)scale(0.996264)"/>
     <use xlink:href="#CMMI12-3a" transform="translate(365.87548 0)scale(0.996264)"/>
     <use xlink:href="#CMR17-31" transform="translate(392.972657 0)scale(0.996264)"/>
     <use xlink:href="#CMR17-63" transform="translate(438.663134 0)scale(0.996264)"/>
     <use xlink:href="#CMR17-6d" transform="translate(479.148794 0)scale(0.996264)"/>
     <use xlink:href="#CMR17-32" transform="translate(556.068384 36.153639)scale(0.697382)"/>
     <use xlink:href="#CMMI12-3d" transform="translate(588.549698 0)scale(0.996264)"/>
     <use xlink:href="#CMR17-67" transform="translate(637.324617 0)scale(0.996264)"/>
    </g>
   </g>
   <g id="text_16">
    <!-- $ \sigma/m = 10 \mathrm{cm^2/g}$ -->
    <g style="fill: #b1b2b0" transform="translate(56.773653 157.516349)rotate(-20)scale(0.1 -0.1)">
     <use xlink:href="#CMMI12-1b" transform="scale(0.996264)"/>
     <use xlink:href="#CMMI12-3d" transform="translate(59.020054 0)scale(0.996264)"/>
     <use xlink:href="#CMMI12-6d" transform="translate(107.794972 0)scale(0.996264)"/>
     <use xlink:href="#CMR17-3d" transform="translate(220.796206 0)scale(0.996264)"/>
     <use xlink:href="#CMR17-31" transform="translate(320.185003 0)scale(0.996264)"/>
     <use xlink:href="#CMR17-30" transform="translate(365.87548 0)scale(0.996264)"/>
     <use xlink:href="#CMR17-63" transform="translate(411.565957 0)scale(0.996264)"/>
     <use xlink:href="#CMR17-6d" transform="translate(452.051617 0)scale(0.996264)"/>
     <use xlink:href="#CMR17-32" transform="translate(528.971207 36.153639)scale(0.697382)"/>
     <use xlink:href="#CMMI12-3d" transform="translate(561.452521 0)scale(0.996264)"/>
     <use xlink:href="#CMR17-67" transform="translate(610.22744 0)scale(0.996264)"/>
    </g>
   </g>
   <g id="text_17">
    <!-- $ \sigma/m = 100 \mathrm{cm^2/g}$ -->
    <g style="fill: #b1b2b0" transform="translate(168.373653 70.540349)rotate(-20)scale(0.1 -0.1)">
     <use xlink:href="#CMMI12-1b" transform="scale(0.996264)"/>
     <use xlink:href="#CMMI12-3d" transform="translate(59.020054 0)scale(0.996264)"/>
     <use xlink:href="#CMMI12-6d" transform="translate(107.794972 0)scale(0.996264)"/>
     <use xlink:href="#CMR17-3d" transform="translate(220.796206 0)scale(0.996264)"/>
     <use xlink:href="#CMR17-31" transform="translate(320.185003 0)scale(0.996264)"/>
     <use xlink:href="#CMR17-30" transform="translate(365.87548 0)scale(0.996264)"/>
     <use xlink:href="#CMR17-30" transform="translate(411.565957 0)scale(0.996264)"/>
     <use xlink:href="#CMR17-63" transform="translate(457.256434 0)scale(0.996264)"/>
     <use xlink:href="#CMR17-6d" transform="translate(497.742094 0)scale(0.996264)"/>
     <use xlink:href="#CMR17-32" transform="translate(574.661684 36.153639)scale(0.697382)"/>
     <use xlink:href="#CMMI12-3d" transform="translate(607.142998 0)scale(0.996264)"/>
     <use xlink:href="#CMR17-67" transform="translate(655.917917 0)scale(0.996264)"/>
    </g>
   </g>
   <g id="legend_1">
    <g id="patch_7">
     <path d="M 63.8 104.296085 
L 151.922967 104.296085 
Q 154.722967 104.296085 154.722967 101.496085 
L 154.722967 44.36 
Q 154.722967 41.56 151.922967 41.56 
L 63.8 41.56 
Q 61 41.56 61 44.36 
L 61 101.496085 
Q 61 104.296085 63.8 104.296085 
z
" style="fill: #ffffff; opacity: 0.8; stroke: #cccccc; stroke-linejoin: miter"/>
    </g>
    <g id="LineCollection_7">
     <path d="M 73.6 52.06 
L 87.6 52.06 
" style="fill: none; stroke: #77232f; stroke-width: 1.5"/>
    </g>
    <g id="LineCollection_8">
     <path d="M 80.6 59.06 
L 80.6 45.06 
" style="fill: none; stroke: #77232f; stroke-width: 1.5"/>
    </g>
    <g id="line2d_106">
     <g>
      <use xlink:href="#m22db626128" x="73.6" y="52.06" style="fill: #77232f; stroke: #77232f"/>
     </g>
    </g>
    <g id="line2d_107">
     <g>
      <use xlink:href="#m22db626128" x="87.6" y="52.06" style="fill: #77232f; stroke: #77232f"/>
     </g>
    </g>
    <g id="line2d_108">
     <g>
      <use xlink:href="#m09d2970db6" x="80.6" y="59.06" style="fill: #77232f; stroke: #77232f"/>
     </g>
    </g>
    <g id="line2d_109">
     <g>
      <use xlink:href="#m09d2970db6" x="80.6" y="45.06" style="fill: #77232f; stroke: #77232f"/>
     </g>
    </g>
    <g id="line2d_110"/>
    <g id="line2d_111"/>
    <g id="text_18">
     <!-- Dwarf -->
     <g style="fill: #262626" transform="translate(105.8 56.96)scale(0.14 -0.14)">
      <defs>
       <path id="CMR17-44" d="M 333 4352 
L 333 4185 
C 774 4185 845 4185 845 3898 
L 845 453 
C 845 166 774 166 333 166 
L 333 0 
L 2368 0 
C 3398 0 4224 943 4224 2140 
C 4224 3344 3411 4352 2368 4352 
L 333 4352 
z
M 1523 166 
C 1267 166 1254 198 1254 414 
L 1254 3936 
C 1254 4153 1267 4185 1523 4185 
L 2240 4185 
C 2771 4185 3750 3873 3750 2140 
C 3750 1242 3488 879 3366 707 
C 3213 510 2848 166 2240 166 
L 1523 166 
z
" transform="scale(0.015625)"/>
       <path id="CMR17-77" d="M 3725 2186 
C 3853 2566 4109 2579 4205 2585 
L 4205 2752 
C 4077 2745 3949 2739 3821 2739 
C 3699 2739 3424 2739 3315 2752 
L 3315 2585 
C 3514 2572 3622 2456 3622 2296 
C 3622 2251 3610 2193 3597 2148 
L 2995 398 
L 2342 2296 
C 2330 2341 2310 2392 2310 2418 
C 2310 2585 2528 2585 2630 2585 
L 2630 2752 
C 2483 2739 2214 2739 2061 2739 
C 1901 2739 1734 2739 1587 2752 
L 1587 2585 
C 1939 2585 1939 2572 2074 2167 
L 1485 443 
L 851 2302 
C 819 2386 819 2399 819 2418 
C 819 2585 1037 2585 1139 2585 
L 1139 2752 
C 986 2739 717 2739 557 2739 
C 416 2739 198 2739 64 2752 
L 64 2585 
C 346 2585 416 2566 486 2353 
L 1274 38 
C 1299 -45 1318 -64 1370 -64 
C 1414 -64 1440 -52 1472 44 
L 2131 1987 
L 2797 44 
C 2829 -52 2854 -64 2899 -64 
C 2950 -64 2970 -45 2995 38 
L 3725 2186 
z
" transform="scale(0.015625)"/>
       <path id="CMR17-61" d="M 2304 1656 
C 2304 2048 2304 2275 2035 2534 
C 1798 2751 1523 2816 1306 2816 
C 800 2816 435 2408 435 1977 
C 435 1740 627 1728 666 1728 
C 749 1728 896 1779 896 1958 
C 896 2118 774 2188 666 2188 
C 640 2188 608 2182 589 2176 
C 723 2594 1069 2713 1293 2713 
C 1613 2713 1965 2421 1965 1875 
L 1965 1632 
C 1587 1619 1133 1568 774 1373 
C 371 1147 256 822 256 576 
C 256 77 832 -64 1171 -64 
C 1523 -64 1850 135 1990 505 
C 2003 219 2182 -39 2464 -39 
C 2598 -39 2938 51 2938 563 
L 2938 926 
L 2822 926 
L 2822 557 
C 2822 161 2650 109 2566 109 
C 2304 109 2304 446 2304 732 
L 2304 1656 
z
M 1965 887 
C 1965 323 1568 38 1216 38 
C 896 38 646 278 646 576 
C 646 771 730 1114 1101 1322 
C 1408 1497 1760 1523 1965 1536 
L 1965 887 
z
" transform="scale(0.015625)"/>
       <path id="CMR17-72" d="M 960 1517 
C 960 2134 1222 2713 1702 2713 
C 1747 2713 1792 2707 1837 2687 
C 1837 2687 1696 2642 1696 2475 
C 1696 2321 1818 2257 1914 2257 
C 1990 2257 2131 2302 2131 2482 
C 2131 2687 1926 2816 1709 2816 
C 1222 2816 1011 2340 947 2115 
L 941 2115 
L 941 2816 
L 198 2745 
L 198 2578 
C 576 2578 634 2540 634 2231 
L 634 443 
C 634 198 608 166 198 166 
L 198 0 
C 352 12 646 12 813 12 
C 998 12 1325 12 1498 0 
L 1498 166 
C 1037 166 960 166 960 455 
L 960 1517 
z
" transform="scale(0.015625)"/>
       <path id="CMR17-66" d="M 979 2585 
L 1709 2585 
L 1709 2752 
L 966 2752 
L 966 3539 
C 966 4076 1235 4377 1510 4377 
C 1594 4377 1690 4363 1754 4339 
C 1702 4326 1568 4281 1568 4121 
C 1568 3955 1696 3904 1786 3904 
C 1875 3904 2003 3955 2003 4121 
C 2003 4353 1773 4480 1517 4480 
C 1152 4480 653 4211 653 3526 
L 653 2752 
L 141 2752 
L 141 2585 
L 653 2585 
L 653 441 
C 653 198 627 166 218 166 
L 218 0 
C 371 12 666 12 832 12 
C 1018 12 1344 12 1517 0 
L 1517 166 
C 1056 166 979 166 979 454 
L 979 2585 
z
" transform="scale(0.015625)"/>
      </defs>
      <use xlink:href="#CMR17-44" transform="scale(0.996264)"/>
      <use xlink:href="#CMR17-77" transform="translate(70.393556 0)scale(0.996264)"/>
      <use xlink:href="#CMR17-61" transform="translate(134.300983 0)scale(0.996264)"/>
      <use xlink:href="#CMR17-72" transform="translate(179.99146 0)scale(0.996264)"/>
      <use xlink:href="#CMR17-66" transform="translate(215.272227 0)scale(0.996264)"/>
     </g>
    </g>
    <g id="LineCollection_9">
     <path d="M 73.6 71.572028 
L 87.6 71.572028 
" style="fill: none; stroke: #565a5c; stroke-width: 1.5"/>
    </g>
    <g id="LineCollection_10">
     <path d="M 80.6 78.572028 
L 80.6 64.572028 
" style="fill: none; stroke: #565a5c; stroke-width: 1.5"/>
    </g>
    <g id="line2d_112">
     <g>
      <use xlink:href="#m5130cb53ce" x="73.6" y="71.572028" style="fill: #565a5c; stroke: #565a5c"/>
     </g>
    </g>
    <g id="line2d_113">
     <g>
      <use xlink:href="#m5130cb53ce" x="87.6" y="71.572028" style="fill: #565a5c; stroke: #565a5c"/>
     </g>
    </g>
    <g id="line2d_114">
     <g>
      <use xlink:href="#md74582ee28" x="80.6" y="78.572028" style="fill: #565a5c; stroke: #565a5c"/>
     </g>
    </g>
    <g id="line2d_115">
     <g>
      <use xlink:href="#md74582ee28" x="80.6" y="64.572028" style="fill: #565a5c; stroke: #565a5c"/>
     </g>
    </g>
    <g id="line2d_116"/>
    <g id="line2d_117"/>
    <g id="text_19">
     <!-- LSB -->
     <g style="fill: #262626" transform="translate(105.8 76.472028)scale(0.14 -0.14)">
      <defs>
       <path id="CMR17-4c" d="M 3469 1612 
L 3354 1612 
C 3302 981 3219 166 2125 166 
L 1530 166 
C 1274 166 1261 198 1261 414 
L 1261 3892 
C 1261 4121 1274 4185 1760 4185 
L 1901 4185 
L 1901 4352 
C 1638 4339 1331 4339 1069 4339 
C 870 4339 512 4339 326 4352 
L 326 4185 
C 768 4185 838 4185 838 3898 
L 838 453 
C 838 166 768 166 326 166 
L 326 0 
L 3315 0 
L 3469 1612 
z
" transform="scale(0.015625)"/>
       <path id="CMR17-53" d="M 2803 4351 
C 2803 4467 2797 4473 2758 4473 
C 2720 4473 2707 4447 2682 4390 
L 2490 3965 
C 2246 4320 1875 4480 1472 4480 
C 819 4480 294 3958 294 3301 
C 294 3101 339 2817 557 2546 
C 794 2250 1018 2198 1530 2063 
C 1722 2011 2042 1927 2106 1901 
C 2470 1747 2662 1360 2662 999 
C 2662 534 2336 38 1779 38 
C 1094 38 454 425 410 1328 
C 403 1431 397 1437 352 1437 
C 301 1437 294 1431 294 1302 
L 294 0 
C 294 -116 301 -122 339 -122 
C 384 -122 397 -90 486 109 
C 493 128 493 141 614 386 
C 934 -39 1472 -128 1779 -128 
C 2477 -128 2970 457 2970 1141 
C 2970 1476 2848 1734 2778 1850 
C 2509 2263 2221 2340 1914 2417 
C 1869 2437 1856 2437 1498 2527 
C 1152 2617 1005 2662 845 2836 
C 666 3036 602 3243 602 3449 
C 602 3868 934 4326 1478 4326 
C 2157 4326 2579 3842 2675 3036 
C 2694 2920 2701 2914 2746 2914 
C 2803 2914 2803 2933 2803 3043 
L 2803 4351 
z
" transform="scale(0.015625)"/>
       <path id="CMR17-42" d="M 333 4352 
L 333 4185 
C 774 4185 845 4185 845 3897 
L 845 451 
C 845 166 774 166 333 166 
L 333 0 
L 2534 0 
C 3354 0 3885 578 3885 1155 
C 3885 1726 3360 2214 2675 2259 
C 3290 2380 3718 2790 3718 3276 
C 3718 3808 3194 4352 2368 4352 
L 333 4352 
z
M 1248 2304 
L 1248 3936 
C 1248 4153 1261 4185 1517 4185 
L 2336 4185 
C 2970 4185 3251 3673 3251 3276 
C 3251 2790 2861 2304 2170 2304 
L 1248 2304 
z
M 1517 166 
C 1261 166 1248 198 1248 413 
L 1248 2201 
L 2432 2201 
C 3091 2201 3411 1624 3411 1161 
C 3411 698 3046 166 2349 166 
L 1517 166 
z
" transform="scale(0.015625)"/>
      </defs>
      <use xlink:href="#CMR17-4c" transform="scale(0.996264)"/>
      <use xlink:href="#CMR17-53" transform="translate(57.381408 0)scale(0.996264)"/>
      <use xlink:href="#CMR17-42" transform="translate(108.276778 0)scale(0.996264)"/>
     </g>
    </g>
    <g id="LineCollection_11">
     <path d="M 73.6 91.084057 
L 87.6 91.084057 
" style="fill: none; stroke: #a61c31; stroke-width: 1.5"/>
    </g>
    <g id="LineCollection_12">
     <path d="M 80.6 98.084057 
L 80.6 84.084057 
" style="fill: none; stroke: #a61c31; stroke-width: 1.5"/>
    </g>
    <g id="line2d_118">
     <g>
      <use xlink:href="#m1e1a522b7f" x="73.6" y="91.084057" style="fill: #a61c31; stroke: #a61c31"/>
     </g>
    </g>
    <g id="line2d_119">
     <g>
      <use xlink:href="#m1e1a522b7f" x="87.6" y="91.084057" style="fill: #a61c31; stroke: #a61c31"/>
     </g>
    </g>
    <g id="line2d_120">
     <g>
      <use xlink:href="#mb811904aa3" x="80.6" y="98.084057" style="fill: #a61c31; stroke: #a61c31"/>
     </g>
    </g>
    <g id="line2d_121">
     <g>
      <use xlink:href="#mb811904aa3" x="80.6" y="84.084057" style="fill: #a61c31; stroke: #a61c31"/>
     </g>
    </g>
    <g id="line2d_122"/>
    <g id="line2d_123"/>
    <g id="text_20">
     <!-- Cluster -->
     <g style="fill: #262626" transform="translate(105.8 95.984057)scale(0.14 -0.14)">
      <defs>
       <path id="CMR17-43" d="M 3974 4351 
C 3974 4467 3968 4473 3930 4473 
C 3904 4473 3898 4467 3853 4390 
L 3571 3849 
C 3258 4249 2874 4480 2381 4480 
C 1286 4480 294 3507 294 2179 
C 294 837 1286 -128 2387 -128 
C 3366 -128 3974 741 3974 1482 
C 3974 1547 3974 1573 3917 1573 
C 3866 1573 3866 1553 3859 1495 
C 3808 592 3168 38 2477 38 
C 1824 38 781 502 781 2179 
C 781 3862 1843 4313 2464 4313 
C 3187 4313 3712 3681 3834 2785 
C 3846 2707 3846 2695 3904 2695 
C 3974 2695 3974 2707 3974 2824 
L 3974 4351 
z
" transform="scale(0.015625)"/>
       <path id="CMR17-6c" d="M 979 4416 
L 218 4345 
L 218 4179 
C 595 4179 653 4141 653 3835 
L 653 439 
C 653 198 627 166 218 166 
L 218 0 
C 371 12 653 12 813 12 
C 979 12 1261 12 1414 0 
L 1414 166 
C 1005 166 979 191 979 439 
L 979 4416 
z
" transform="scale(0.015625)"/>
       <path id="CMR17-75" d="M 1882 2745 
L 1882 2579 
C 2259 2579 2317 2540 2317 2229 
L 2317 1053 
C 2317 510 2029 38 1555 38 
C 1030 38 986 355 986 691 
L 986 2816 
L 211 2745 
L 211 2579 
C 467 2579 640 2579 646 2320 
L 646 1079 
C 646 646 646 368 813 187 
C 896 103 1056 -64 1517 -64 
C 2061 -64 2272 400 2323 536 
L 2330 536 
L 2330 -64 
L 3091 -13 
L 3091 154 
C 2714 154 2656 193 2656 503 
L 2656 2816 
L 1882 2745 
z
" transform="scale(0.015625)"/>
       <path id="CMR17-74" d="M 966 2585 
L 1862 2585 
L 1862 2752 
L 966 2752 
L 966 3968 
L 851 3968 
C 838 3292 614 2700 70 2687 
L 70 2585 
L 627 2585 
L 627 778 
C 627 655 627 -64 1370 -64 
C 1747 -64 1965 308 1965 784 
L 1965 1151 
L 1850 1151 
L 1850 790 
C 1850 347 1677 51 1408 51 
C 1222 51 966 179 966 765 
L 966 2585 
z
" transform="scale(0.015625)"/>
       <path id="CMR17-65" d="M 2438 1503 
C 2464 1529 2464 1542 2464 1606 
C 2464 2251 2118 2816 1389 2816 
C 710 2816 173 2175 173 1394 
C 173 554 781 -64 1459 -64 
C 2176 -64 2458 619 2458 755 
C 2458 800 2419 800 2406 800 
C 2362 800 2355 787 2330 709 
C 2189 270 1837 51 1504 51 
C 1229 51 954 206 781 490 
C 582 819 582 1200 582 1503 
L 2438 1503 
z
M 589 1600 
C 634 2511 1126 2713 1382 2713 
C 1818 2713 2112 2308 2118 1600 
L 589 1600 
z
" transform="scale(0.015625)"/>
      </defs>
      <use xlink:href="#CMR17-43" transform="scale(0.996264)"/>
      <use xlink:href="#CMR17-6c" transform="translate(66.509881 0)scale(0.996264)"/>
      <use xlink:href="#CMR17-75" transform="translate(91.380939 0)scale(0.996264)"/>
      <use xlink:href="#CMR17-73" transform="translate(142.276309 0)scale(0.996264)"/>
      <use xlink:href="#CMR17-74" transform="translate(178.077646 0)scale(0.996264)"/>
      <use xlink:href="#CMR17-65" transform="translate(213.358414 0)scale(0.996264)"/>
      <use xlink:href="#CMR17-72" transform="translate(253.844075 0)scale(0.996264)"/>
     </g>
    </g>
   </g>
  </g>
 </g>
 <defs>
  <clipPath id="pb542efedcc">
   <rect x="54" y="34.56" width="334.8" height="217.44"/>
  </clipPath>
 </defs>
</svg>
